<?xml version="1.0" encoding="UTF-8" standalone="no"?>
<!-- Created with Inkscape (http://www.inkscape.org/) -->

<svg
   xmlns:dc="http://purl.org/dc/elements/1.1/"
   xmlns:cc="http://creativecommons.org/ns#"
   xmlns:rdf="http://www.w3.org/1999/02/22-rdf-syntax-ns#"
   xmlns:svg="http://www.w3.org/2000/svg"
   xmlns="http://www.w3.org/2000/svg"
   xmlns:sodipodi="http://sodipodi.sourceforge.net/DTD/sodipodi-0.dtd"
   xmlns:inkscape="http://www.inkscape.org/namespaces/inkscape"
   width="89.660065mm"
   height="137.44492mm"
   viewBox="0 0 89.660065 137.44492"
   version="1.1"
   id="svg5149"
   sodipodi:docname="landPageLlama.svg"
   inkscape:version="0.92.3 (2405546, 2018-03-11)">
  <defs
     id="defs5143" />
  <sodipodi:namedview
     id="base"
     pagecolor="#ffffff"
     bordercolor="#666666"
     borderopacity="1.0"
     inkscape:pageopacity="0.0"
     inkscape:pageshadow="2"
     inkscape:zoom="0.57080078"
     inkscape:cx="21.066122"
     inkscape:cy="-15.831542"
     inkscape:document-units="mm"
     inkscape:current-layer="layer1"
     showgrid="false"
     showguides="true"
     inkscape:guide-bbox="true"
     inkscape:window-width="1280"
     inkscape:window-height="996"
     inkscape:window-x="0"
     inkscape:window-y="0"
     inkscape:window-maximized="1"
     fit-margin-top="0"
     fit-margin-left="0"
     fit-margin-right="0"
     fit-margin-bottom="0">
    <sodipodi:guide
       position="0.67083967,94.754973"
       orientation="1,0"
       id="guide5812"
       inkscape:locked="false" />
  </sodipodi:namedview>
  <metadata
     id="metadata5146">
    <rdf:RDF>
      <cc:Work
         rdf:about="">
        <dc:format>image/svg+xml</dc:format>
        <dc:type
           rdf:resource="http://purl.org/dc/dcmitype/StillImage" />
        <dc:title></dc:title>
      </cc:Work>
    </rdf:RDF>
  </metadata>
  <g
     inkscape:label="Layer 1"
     inkscape:groupmode="layer"
     id="layer1"
     transform="translate(-57.474831,-14.936906)">
    <path
       style="fill:#ce9074;fill-opacity:1;stroke:none;stroke-width:0.47626388;stroke-linecap:butt;stroke-linejoin:miter;stroke-miterlimit:4;stroke-dasharray:none;stroke-opacity:1"
       d="m 108.47688,30.611922 c -2.4642,-5.954566 -2.98705,-9.055056 -6.10225,-13.383135 -0.61861,-0.859465 -1.99897,-1.254516 -3.02182,-0.98028 -2.83702,0.760558 -4.822483,3.813677 -5.897457,6.547107 -0.755887,1.922022 -0.855793,4.27311 -0.100001,6.195168 1.279372,3.253554 3.193452,5.365091 5.298375,7.983397 1.356433,1.687283 4.649933,0.806579 6.485793,-0.340823 1.946,-1.216238 4.21484,-3.900979 3.33735,-6.021398 z"
       id="path18606"
       inkscape:connector-curvature="0"
       sodipodi:nodetypes="ssaassas" />
    <path
       style="fill:#be6b45;fill-opacity:1;stroke:none;stroke-width:0.47626388;stroke-linecap:butt;stroke-linejoin:miter;stroke-miterlimit:4;stroke-dasharray:none;stroke-opacity:1"
       d="m 99.935793,32.823154 c 2.008897,-1.219737 4.357417,-2.724291 4.357417,-2.724291 1.55413,-0.971667 -1.64756,-5.549867 -3.70125,-7.815859 -0.49865,-0.550222 -1.955629,-0.767897 -2.226345,-0.07645 -0.809208,2.066709 -2.191586,4.50651 -1.320965,6.560222 0.690719,1.629412 1.471846,4.918113 2.891143,4.056374 z"
       id="path18608"
       inkscape:connector-curvature="0"
       sodipodi:nodetypes="ssssss" />
    <path
       sodipodi:nodetypes="ssaassas"
       inkscape:connector-curvature="0"
       id="path18610"
       d="m 129.64027,35.745511 c 5.10602,-3.931636 7.10577,-6.358013 11.96468,-8.555231 0.96487,-0.436343 2.3583,-0.09017 3.10801,0.657747 2.07946,2.074355 2.27732,5.710903 1.84548,8.616195 -0.30363,2.042894 -1.38982,4.130407 -3.00363,5.419253 -2.73179,2.181685 -5.44401,3.056966 -8.57443,4.276277 -2.01729,0.785742 -4.43246,-1.620442 -5.45125,-3.530648 -1.07992,-2.024833 -1.70711,-5.483478 0.11113,-6.883539 z"
       style="fill:#ce9074;fill-opacity:1;stroke:none;stroke-width:0.47626388;stroke-linecap:butt;stroke-linejoin:miter;stroke-miterlimit:4;stroke-dasharray:none;stroke-opacity:1" />
    <path
       sodipodi:nodetypes="ssssss"
       inkscape:connector-curvature="0"
       id="path18612"
       d="m 135.93984,41.922497 c -1.13268,-2.059218 -2.41763,-4.534734 -2.41763,-4.534734 -0.86229,-1.61737 4.19635,-3.988244 7.10662,-4.927755 0.70664,-0.228125 2.07798,0.309994 1.96771,1.044299 -0.32958,2.194877 -0.3485,4.999022 -2.12752,6.344712 -1.41143,1.067652 -3.72893,3.528331 -4.52918,2.073478 z"
       style="fill:#be6b45;fill-opacity:1;stroke:none;stroke-width:0.47626388;stroke-linecap:butt;stroke-linejoin:miter;stroke-miterlimit:4;stroke-dasharray:none;stroke-opacity:1" />
    <path
       style="fill:#ffffff;fill-opacity:1;stroke:none;stroke-width:1.8000524;stroke-linecap:butt;stroke-linejoin:miter;stroke-miterlimit:4;stroke-dasharray:none;stroke-opacity:1"
       d="m 448.54205,575.93131 c 1.50286,-3.30584 2.46203,-6.76607 2.36881,-10.30008 -0.15572,-5.90305 -7.75095,-15.92768 -7.75095,-15.92768 0,0 8.54922,-2.46338 10.81191,-5.88646 1.99559,-3.01924 1.50607,-7.21815 1.03854,-10.80692 -0.56542,-4.33799 -4.56488,-12.30425 -4.56488,-12.30425 0,0 15.35237,-7.99911 19.29544,-15.16706 4.50236,-8.18483 6.19816,-19.16798 2.83324,-27.88233 -3.06727,-7.94328 -18.99371,-17.08274 -18.99371,-17.08274 0,0 5.98681,-8.84217 5.52767,-13.76531 -0.22488,-2.41096 -2.41307,-4.21961 -3.90739,-6.12499 -2.00031,-2.55076 -6.71523,-7.03351 -6.71523,-7.03351 0,0 4.46059,-4.66609 5.8298,-7.98981 1.61027,-3.90947 3.00972,-9.11391 2.47525,-13.30802 -0.67177,-5.26798 -6.19665,-14.31443 -6.50668,-14.81926 l 0.0113,-0.26079 c 0.20863,-0.13682 3.95478,-2.60208 5.04933,-4.57526 1.20352,-2.16918 1.56148,-4.8593 1.30628,-7.32672 -0.21656,-2.09243 -2.35566,-5.85725 -2.35566,-5.85725 0,0 7.89759,-6.54812 9.67143,-11.1326 1.28878,-3.33078 1.00944,-7.22 0.24794,-10.70934 -0.96805,-4.43566 -5.96217,-12.24823 -5.96217,-12.24823 0,0 6.32005,-4.12689 7.96857,-7.33927 1.71451,-3.34069 1.61888,-7.43549 1.36853,-11.18198 -0.25134,-3.75532 -2.85457,-10.92445 -2.85457,-10.92445 0,0 4.51102,-1.12136 5.18975,-3.001 0.5252,-1.45573 -1.60494,-4.35345 -1.60494,-4.35345 0,0 4.79104,-3.62813 6.05397,-6.23505 3.00798,-6.21017 5.24893,-14.10459 2.71174,-20.52145 -2.54098,-6.42638 -1.71013,-14.34727 -1.71013,-14.34727 0,0 4.12676,-7.28287 6.92353,-10.34914 3.87205,-4.24512 6.12374,-7.01129 6.73448,-11.37519 0.77098,-5.50892 -4.23288,-16.14002 -4.23288,-16.14002 0,0 4.39177,0.14037 5.86594,-1.20455 5.00273,-4.56405 6.55026,-12.70351 5.88873,-19.44275 -0.44735,-4.55602 -6.46031,-12.11769 -6.46031,-12.11769 0,0 7.68835,-4.35176 9.76153,-8.0164 1.91679,-3.38837 1.70208,-11.55609 1.70208,-11.55609 0,0 4.54684,-6.4024 5.2529,-10.14397 0.6943,-3.67819 -0.11301,-7.5752 -1.17415,-11.1647 -1.10491,-3.73739 -2.5042,-7.70622 -5.29693,-10.42459 -2.05935,-2.0044 -7.78776,-3.69689 -7.78776,-3.69689 0,0 3.51678,-8.58094 1.65699,-12.26111 -1.416,-2.80082 -5.23692,-3.67908 -8.26175,-4.51653 -3.23486,-0.89341 -10.06023,-0.37952 -10.06023,-0.37952 0,0 5.3478,-6.8758 4.17377,-10.43234 -0.97338,-2.94987 -4.82684,-4.73957 -7.92919,-4.88712 -2.73996,-0.13016 -6.92844,2.96727 -8.04434,3.83134 -0.61554,-2.38312 -2.33095,-8.14562 -5.04684,-9.951 -1.33028,-0.88388 -3.01028,-1.53521 -4.79789,-1.91838 l 0.002,0.002 v 0 c -2.97922,-0.63941 -6.2586,-0.53662 -8.7261,0.46284 -2.34376,0.94929 -4.3657,3.15166 -5.17697,5.54666 -0.81589,2.40731 0.74426,7.58847 0.74426,7.58847 0,0 -2.9636,-3.99983 -5.11434,-5.06143 -2.15074,-1.06157 -4.96086,-2.01075 -7.12725,-0.98184 -2.38068,1.13088 -3.76516,4.14054 -4.117,6.75275 -0.23168,1.71904 1.43562,5.00117 1.43562,5.00117 0,0 -4.10782,-4.93035 -6.69634,-4.32794 -2.63683,0.61369 -4.17082,6.9681 -4.17082,6.9681 0,0 -9.2953,-6.85233 -14.51199,-6.18673 -3.15768,0.40287 -5.731,3.22404 -7.56116,5.82861 -1.71243,2.43711 -2.73691,8.5075 -2.73691,8.5075 0,0 -10.24286,-1.96375 -14.93366,-0.29579 -4.17924,1.48617 -8.16683,4.63852 -10.15229,8.60495 -2.00431,4.00425 -7.2e-4,9.87961 -0.81137,13.40993 0,0 -6.5715,9.51321 -7.71055,15.02757 -1.58926,7.69293 0.44904,16.12907 2.64843,23.80305 0.37781,1.31828 1.77781,3.70659 1.77781,3.70659 0,0 -8.48128,7.45692 -9.83751,12.6137 -1.23744,4.70646 2.1482,14.44177 2.1482,14.44177 0,0 -11.98462,8.91119 -14.32027,15.5625 -1.97927,5.63662 -0.60122,10.47066 1.34614,16.11822 3.10386,8.26042 10e-4,0.002 4.84973,9.09603 0,0 -6.66927,7.16555 -8.19821,11.66573 -1.32378,3.89538 -1.06997,8.25176 -0.5265,12.32979 0.83931,6.29876 5.76941,18.17017 5.76941,18.17017 0,0 -8.11732,4.51406 -10.5229,8.27247 -2.96806,4.63705 -4.13778,10.57001 -3.83432,16.06716 0.25928,4.69659 3.51621,8.5646 4.76711,13.28099 0.60682,2.28796 -5.17128,0.44362 -6.54194,3.98801 -1.23236,2.4952 0.18792,8.47187 0.18792,8.47187 0,0 -4.11849,0.24136 -5.67079,1.41863 -4.65705,3.53175 -7.6504,9.47773 -8.68737,15.22979 -1.15754,6.42096 3.14979,19.31943 3.14979,19.31943 0,0 -9.74481,-9.26604 -15.94667,-11.19137 -7.96162,-2.47154 -17.20275,-2.68296 -25.00701,0.24756 -5.90963,2.21908 -14.37747,12.3233 -14.37747,12.3233 0,0 -5.80707,-8.26288 -10.22866,-10.12293 -5.65306,-2.37823 -12.94987,-3.11501 -18.39794,-0.29858 -2.38209,1.23148 -4.54236,6.63904 -4.54236,6.63904 0,0 -3.27346,-5.85152 -6.92155,-9.3094 l -0.19751,195.85619 z"
       id="path5828"
       transform="scale(0.26458333)"
       inkscape:connector-curvature="0" />
    <path
       style="fill:#ce9074;fill-opacity:1;stroke:none;stroke-width:0.47626388;stroke-linecap:butt;stroke-linejoin:miter;stroke-miterlimit:4;stroke-dasharray:none;stroke-opacity:1"
       d="m 112.18741,51.651795 c 0.90264,-0.603244 2.54659,-0.130956 3.1671,0.759932 3.33352,4.785877 5.1457,10.388589 4.00034,11.87088 -1.96465,2.542552 -4.10725,4.754845 -6.75271,6.837053 -1.48701,1.170387 -4.48395,0.140521 -5.48459,-1.465607 -1.61172,-2.586985 -2.28715,-4.959327 -3.55038,-8.380443 -0.69777,-1.88973 4.87449,-7.118492 8.62024,-9.621798 z"
       id="path18620"
       inkscape:connector-curvature="0"
       sodipodi:nodetypes="sssssss" />
    <ellipse
       style="fill:#440077;fill-opacity:1;stroke:#440077;stroke-width:0.47626388;stroke-linecap:square;stroke-miterlimit:4;stroke-dasharray:none;stroke-opacity:1"
       id="ellipse18622"
       cx="114.78968"
       cy="21.230314"
       rx="3.8403502"
       ry="3.6316357"
       transform="rotate(14.961136)" />
    <path
       style="fill:#000000;stroke:#000000;stroke-width:0.28575835;stroke-linecap:round;stroke-linejoin:miter;stroke-miterlimit:4;stroke-dasharray:none;stroke-opacity:1"
       d="m 105.98958,46.54924 -4.57293,-1.966764 c 0,0 0.83562,0.83588 0.96997,1.382592 0.14462,0.588481 -0.23534,1.802681 -0.23534,1.802681 0,0 0.83354,-0.787379 1.35618,-0.984666 0.7775,-0.293521 2.48212,-0.233843 2.48212,-0.233843 z"
       id="path18624"
       inkscape:connector-curvature="0"
       sodipodi:nodetypes="ccacac" />
    <ellipse
       style="fill:#ffffff;fill-opacity:1;stroke:none;stroke-width:0.61441302;stroke-linecap:square;stroke-miterlimit:4;stroke-dasharray:none;stroke-opacity:1"
       id="ellipse18626"
       cx="113.70304"
       cy="20.541521"
       rx="1.7085292"
       ry="1.6824893"
       transform="rotate(14.961136)" />
    <ellipse
       ry="1.075609"
       rx="1.0094178"
       cy="22.674076"
       cx="116.25376"
       id="ellipse18628"
       style="fill:#ffffff;fill-opacity:1;stroke:none;stroke-width:0.37760329;stroke-linecap:square;stroke-miterlimit:4;stroke-dasharray:none;stroke-opacity:1"
       transform="rotate(14.961136)" />
    <path
       style="fill:#000000;stroke:#000000;stroke-width:0.95252776;stroke-linecap:round;stroke-linejoin:miter;stroke-miterlimit:4;stroke-dasharray:none;stroke-opacity:1"
       d="m 108.82149,59.609907 c 0,0 2.1814,2.240456 3.62327,2.610115 1.23594,0.316772 3.67886,-0.831641 3.67886,-0.831641 0,0 -2.30613,0.323598 -3.46334,0.02508 -1.36917,-0.352372 -3.83879,-1.803561 -3.83879,-1.803561 z"
       id="path18630"
       inkscape:connector-curvature="0"
       sodipodi:nodetypes="cscsc" />
    <ellipse
       ry="3.6316357"
       rx="3.8403502"
       cy="21.230314"
       cx="-132.14514"
       id="ellipse18634"
       style="fill:#440077;fill-opacity:1;stroke:#440077;stroke-width:0.47626388;stroke-linecap:square;stroke-miterlimit:4;stroke-dasharray:none;stroke-opacity:1"
       transform="matrix(-0.96610116,-0.25816379,-0.25816379,0.96610116,0,0)" />
    <path
       sodipodi:nodetypes="ccacac"
       inkscape:connector-curvature="0"
       id="path18636"
       d="m 123.48272,51.223802 4.94443,0.576477 c 0,0 -1.14117,0.307645 -1.53033,0.714456 -0.41889,0.437903 -0.69525,1.679792 -0.69525,1.679792 0,0 -0.32966,-1.098222 -0.68424,-1.529912 -0.52743,-0.642231 -2.03461,-1.440813 -2.03461,-1.440813 z"
       style="fill:#000000;stroke:#000000;stroke-width:0.28575835;stroke-linecap:round;stroke-linejoin:miter;stroke-miterlimit:4;stroke-dasharray:none;stroke-opacity:1" />
    <ellipse
       ry="1.6824893"
       rx="1.7085292"
       cy="20.541521"
       cx="-133.23167"
       id="ellipse18638"
       style="fill:#ffffff;fill-opacity:1;stroke:none;stroke-width:0.61441302;stroke-linecap:square;stroke-miterlimit:4;stroke-dasharray:none;stroke-opacity:1"
       transform="matrix(-0.96610116,-0.25816379,-0.25816379,0.96610116,0,0)" />
    <ellipse
       style="fill:#ffffff;fill-opacity:1;stroke:none;stroke-width:0.37760329;stroke-linecap:square;stroke-miterlimit:4;stroke-dasharray:none;stroke-opacity:1"
       id="ellipse18640"
       cx="-130.68095"
       cy="22.674076"
       rx="1.0094178"
       ry="1.075609"
       transform="matrix(-0.96610116,-0.25816379,-0.25816379,0.96610116,0,0)" />
    <path
       style="fill:none;stroke:#6e1365;stroke-width:1.42879176;stroke-linecap:round;stroke-linejoin:miter;stroke-miterlimit:4;stroke-dasharray:none;stroke-opacity:1"
       d="m 97.283327,35.408932 c 0,0 -2.790807,-3.166671 -3.526248,-5.097425 -0.785625,-2.06251 -1.144088,-4.38974 -0.810372,-6.571441 0.217239,-1.419819 1.781716,-3.923422 1.781716,-3.923422"
       id="path18642"
       inkscape:connector-curvature="0"
       sodipodi:nodetypes="caac" />
    <ellipse
       style="fill:#6e1365;fill-opacity:1;stroke:none;stroke-width:1.37587345;stroke-linecap:round;stroke-miterlimit:4;stroke-dasharray:none;stroke-opacity:1"
       id="ellipse18644"
       cx="97.020844"
       cy="-7.3931384"
       rx="0.81398726"
       ry="0.87428266"
       transform="rotate(14.961136)" />
    <path
       style="fill:none;stroke:#6e1365;stroke-width:1.42879176;stroke-linecap:round;stroke-linejoin:miter;stroke-miterlimit:4;stroke-dasharray:none;stroke-opacity:1"
       d="m 131.39247,34.272652 c 0,0 3.45331,-3.03043 5.31552,-4.369413 1.6226,-1.166671 3.10728,-2.882022 5.08369,-3.178322 0.97699,-0.14647 2.86327,0.765129 2.86327,0.765129"
       id="path18646"
       inkscape:connector-curvature="0"
       sodipodi:nodetypes="caac" />
    <path
       style="fill:none;stroke:#6e1365;stroke-width:1.42879176;stroke-linecap:round;stroke-linejoin:miter;stroke-miterlimit:4;stroke-dasharray:none;stroke-opacity:1"
       d="m 97.390708,16.739769 c 0,0 0.705977,-0.551825 1.10974,-0.736427 0.395328,-0.180743 1.25623,-0.350019 1.25623,-0.350019"
       id="path18648"
       inkscape:connector-curvature="0"
       sodipodi:nodetypes="cac" />
    <path
       style="fill:none;stroke:#6e1365;stroke-width:1.42879176;stroke-linecap:round;stroke-linejoin:miter;stroke-miterlimit:4;stroke-dasharray:none;stroke-opacity:1"
       d="m 89.003698,76.91167 1.625466,3.978453 v 0 m 0,0 c 0,0 -2.153753,1.38254 -2.845655,2.417016 -0.854437,1.27749 -1.543006,2.855851 -1.416859,4.387565 0.09603,1.166182 1.610701,3.119037 1.610701,3.119037 0,0 -1.317464,0.509155 -1.61638,1.085201 -0.344254,0.663309 0.04972,2.241421 0.04972,2.241421 0,0 -1.151705,0.04705 -1.614255,0.345116 -1.262511,0.813371 -2.379228,2.150934 -2.678945,3.622547 -0.379578,1.863567 1.328041,5.548804 1.328041,5.548804 0,0 -2.070117,-2.80386 -3.610767,-3.40908 -2.203925,-0.865759 -4.907129,-0.827798 -7.103419,0.0571 -1.671623,0.67354 -3.926298,3.71697 -3.926298,3.71697 0,0 -0.990302,-2.07232 -1.934207,-2.59442 -1.627922,-0.90045 -3.867809,-1.21387 -5.563113,-0.44781 -0.579382,0.26184 -1.14157,1.52808 -1.14157,1.52808 0,0 -0.951858,-1.33098 -1.968229,-1.94955"
       id="path18658"
       inkscape:connector-curvature="0"
       sodipodi:nodetypes="ccccaacacaacaacaacc" />
    <ellipse
       ry="0.87428266"
       rx="0.81398726"
       cy="-9.2821808"
       cx="148.97035"
       id="ellipse18660"
       style="fill:#6e1365;fill-opacity:1;stroke:none;stroke-width:1.37587345;stroke-linecap:round;stroke-miterlimit:4;stroke-dasharray:none;stroke-opacity:1"
       transform="rotate(14.961136)" />
    <ellipse
       ry="0.87428266"
       rx="0.81398726"
       cy="48.924755"
       cx="104.81329"
       id="ellipse18662"
       style="fill:#6e1365;fill-opacity:1;stroke:none;stroke-width:1.37587345;stroke-linecap:round;stroke-miterlimit:4;stroke-dasharray:none;stroke-opacity:1"
       transform="rotate(14.961136)" />
    <circle
       style="fill:none;fill-opacity:0;stroke:#84487f;stroke-width:0.95252776;stroke-linecap:round;stroke-miterlimit:4;stroke-dasharray:1.90505552, 1.90505552;stroke-dashoffset:0;stroke-opacity:0.94117647"
       id="circle18666"
       cx="111.36109"
       cy="30.29417"
       r="3.333847"
       transform="rotate(14.961136)" />
    <circle
       r="3.333847"
       cy="29.793222"
       cx="136.07295"
       id="circle18668"
       style="fill:none;fill-opacity:1;stroke:#8b5386;stroke-width:0.95252776;stroke-linecap:round;stroke-miterlimit:4;stroke-dasharray:1.90505558, 1.90505558;stroke-dashoffset:0;stroke-opacity:1"
       transform="rotate(14.961136)" />
    <path
       style="fill:#c77393;fill-opacity:1;stroke:none;stroke-width:0.25202295px;stroke-linecap:butt;stroke-linejoin:miter;stroke-opacity:1"
       d="m 120.00983,121.86021 c 0,0 -3.02919,3.68149 -5.05054,4.84727 -1.80221,1.03937 -5.99585,1.73323 -5.99585,1.73323 0,0 0.72344,2.05083 0.63723,3.10332 -0.12277,1.49875 -0.65995,3.05059 -1.61451,4.21252 -0.95461,1.16194 -2.34996,2.08058 -3.81914,2.40131 -1.78368,0.38939 -5.429838,-0.7177 -5.429838,-0.7177 0,0 0.569432,2.34623 -0.108119,3.14855 -0.681343,0.8068 -3.103307,0.63724 -3.103307,0.63724 0,0 3.100651,2.00342 4.33444,1.15825 0.854114,-0.58507 0.336254,-3.08759 0.336254,-3.08759 0,0 2.6329,0.37116 3.89389,0.0628 1.89304,-0.46282 3.73983,-1.42816 5.14268,-2.7809 1.05849,-1.02069 1.99674,-2.35098 2.23794,-3.80151 0.17327,-1.04171 -0.63724,-3.10331 -0.63724,-3.10331 0,0 3.73873,-0.0409 5.17219,-1.06207 2.13099,-1.51818 4.00392,-6.75147 4.00392,-6.75147 z"
       id="path18670"
       inkscape:connector-curvature="0"
       sodipodi:nodetypes="cacaaacacacaaacac" />
    <path
       style="fill:#c77393;fill-opacity:1;stroke:none;stroke-width:0.25202295px;stroke-linecap:butt;stroke-linejoin:miter;stroke-opacity:1"
       d="m 97.004836,80.025571 c 0,0 -1.714706,5.481305 -0.642953,7.89403 1.002882,2.257597 5.884227,4.505421 5.884227,4.505421 0,0 -1.39245,2.109095 -1.37068,3.300011 0.0271,1.48123 1.8536,4.039415 1.8536,4.039415 0,0 -1.09036,4.190842 -1.20493,6.338432 -0.11237,2.10695 0.5139,6.30891 0.5139,6.30891 0,0 1.61941,-5.59616 1.65129,-9.1522 0.0163,-1.82157 2.35641,-4.930854 2.35641,-4.930854 0,0 -2.44914,-1.99123 -2.75136,-3.423822 -0.22744,-1.078229 0.85345,-3.193805 0.85345,-3.193805 0,0 -4.792159,-2.817864 -6.218526,-5.083604 -1.050852,-1.669262 -1.396389,-5.750369 -1.396389,-5.750369"
       id="path18672"
       inkscape:connector-curvature="0"
       sodipodi:nodetypes="cacacacscacac" />
    <path
       style="fill:#524a45;fill-opacity:1;stroke:none;stroke-width:0.22801176px;stroke-linecap:butt;stroke-linejoin:miter;stroke-opacity:1"
       d="m 109.01863,64.553541 c 0,0 -0.003,1.739065 0.54793,2.304046 0.61074,0.625823 1.68938,0.885493 2.53661,0.668998 0.59904,-0.153078 1.34674,-1.275473 1.34674,-1.275473 l -1.67787,-1.726432 z"
       id="path18746"
       inkscape:connector-curvature="0"
       sodipodi:nodetypes="caaccc" />
    <path
       sodipodi:nodetypes="caacac"
       inkscape:connector-curvature="0"
       id="path18748"
       d="m 109.10225,65.552883 c 0,0 0.0709,1.054108 0.46431,1.39102 0.62695,0.536913 1.69069,0.784001 2.53661,0.58924 0.40255,-0.09268 0.96296,-0.780037 0.96296,-0.780037 0,0 -1.11496,-0.639025 -1.72294,-0.831339 -0.72178,-0.228311 -2.24094,-0.368884 -2.24094,-0.368884 z"
       style="fill:#cd0437;fill-opacity:1;stroke:none;stroke-width:0.21398929px;stroke-linecap:butt;stroke-linejoin:miter;stroke-opacity:1" />
    <path
       style="fill:#000000;stroke:#000000;stroke-width:0.25202295px;stroke-linecap:round;stroke-linejoin:miter;stroke-opacity:1"
       d="m 112.07287,62.509501 c 0,0 -0.0852,1.185641 -0.46597,1.582197 -0.417,0.434223 -1.12791,0.731838 -1.71045,0.579915 -0.77884,-0.202328 -1.61645,-1.793004 -1.61645,-1.793004 0,0 0.54383,1.87003 1.3366,2.193506 0.68636,0.280026 2.15544,-0.547435 2.15544,-0.547435 0,0 0.70283,1.424638 1.38265,1.536091 0.8545,0.140022 2.26338,-1.274705 2.26338,-1.274705 0,0 -1.40916,1.112821 -2.16639,0.911742 -0.62807,-0.166848 -1.185,-1.548061 -1.185,-1.548061 l 0.4498,-1.5217 c 0,0 -0.054,-0.225863 -0.14776,-0.255517 -0.10349,-0.03344 -0.29584,0.13698 -0.29584,0.13698 z"
       id="path18632"
       inkscape:connector-curvature="0"
       sodipodi:nodetypes="caacacacaccac" />
  </g>
</svg>
