<?xml version="1.0" encoding="UTF-8" standalone="no"?>
<!-- Created with Inkscape (http://www.inkscape.org/) -->

<svg
   xmlns:dc="http://purl.org/dc/elements/1.1/"
   xmlns:cc="http://creativecommons.org/ns#"
   xmlns:rdf="http://www.w3.org/1999/02/22-rdf-syntax-ns#"
   xmlns:svg="http://www.w3.org/2000/svg"
   xmlns="http://www.w3.org/2000/svg"
   xmlns:sodipodi="http://sodipodi.sourceforge.net/DTD/sodipodi-0.dtd"
   xmlns:inkscape="http://www.inkscape.org/namespaces/inkscape"
   width="105.83334mm"
   height="62.055332mm"
   viewBox="0 0 105.83334 62.055334"
   version="1.1"
   id="svg3016"
   inkscape:version="0.92.2 (5c3e80d, 2017-08-06)"
   sodipodi:docname="llamaBus.svg">
  <defs
     id="defs3010" />
  <sodipodi:namedview
     id="base"
     pagecolor="#ffffff"
     bordercolor="#666666"
     borderopacity="1.0"
     inkscape:pageopacity="0.0"
     inkscape:pageshadow="2"
     inkscape:zoom="0.2854004"
     inkscape:cx="525.81129"
     inkscape:cy="453.68503"
     inkscape:document-units="mm"
     inkscape:current-layer="layer1"
     showgrid="false"
     fit-margin-top="0"
     fit-margin-left="0"
     fit-margin-right="0"
     fit-margin-bottom="0"
     inkscape:window-width="1024"
     inkscape:window-height="705"
     inkscape:window-x="-8"
     inkscape:window-y="-8"
     inkscape:window-maximized="1" />
  <metadata
     id="metadata3013">
    <rdf:RDF>
      <cc:Work
         rdf:about="">
        <dc:format>image/svg+xml</dc:format>
        <dc:type
           rdf:resource="http://purl.org/dc/dcmitype/StillImage" />
        <dc:title></dc:title>
      </cc:Work>
    </rdf:RDF>
  </metadata>
  <g
     inkscape:label="Layer 1"
     inkscape:groupmode="layer"
     id="layer1"
     transform="translate(48.924916,-181.7784)">
    <g
       transform="matrix(0.35877539,0,0,0.35877539,28.985652,-355.77704)"
       id="busBody"
       inkscape:label="busBody">
      <path
         sodipodi:nodetypes="ccaaac"
         inkscape:connector-curvature="0"
         id="path11554"
         d="m -172.26182,1649.8852 44.82412,-0.4305 c 0,0 -1.33988,-11.6364 -4.6029,-15.8475 -4.48424,-5.7872 -11.59316,-10.046 -18.47716,-10.2312 -6.10749,-0.1643 -12.72566,3.1156 -16.77157,8.185 -3.81404,4.7787 -4.97249,18.3242 -4.97249,18.3242"
         style="fill:#2f2a28;fill-opacity:1;stroke:none;stroke-width:0.27843317px;stroke-linecap:butt;stroke-linejoin:miter;stroke-opacity:1" />
      <path
         style="fill:#fbdd74;fill-opacity:1;stroke:none;stroke-width:4.05529404;stroke-linecap:round;stroke-linejoin:round;stroke-miterlimit:4;stroke-dasharray:none;stroke-opacity:1"
         d="m 55.945428,1625.1569 c 0,0 12.23365,-16.1917 12.55865,-25.8465 0.22597,-6.713 -7.502094,-18.5667 -7.502094,-18.5667 v 0 l -12.473078,0.3117 0.392947,44.1041 z"
         id="path11731"
         inkscape:connector-curvature="0"
         sodipodi:nodetypes="caccccc" />
      <path
         sodipodi:nodetypes="cacscc"
         inkscape:connector-curvature="0"
         id="path11733"
         d="m 54.570114,1623.3887 c 0,0 11.745078,-10.8327 12.918464,-18.1712 0.941927,-5.891 -5.304778,-17.0931 -5.304778,-17.0931 0,0 -0.352426,11.1605 -1.473549,16.6019 -0.660763,3.2071 -6.807945,15.9479 -8.379236,19.006 z"
         style="fill:#f9cc30;fill-opacity:1;stroke:none;stroke-width:0.26458332px;stroke-linecap:butt;stroke-linejoin:miter;stroke-opacity:1" />
      <path
         sodipodi:nodetypes="caacac"
         inkscape:connector-curvature="0"
         id="path11729"
         d="m 69.355077,1594.5096 c 0,0 3.337127,1.3479 4.617122,2.5542 0.846239,0.7975 1.952607,1.7875 1.866496,2.9471 -0.34032,4.5829 -9.015981,10.4299 -9.015981,10.4299 0,0 3.105089,-5.3019 3.514729,-8.2686 0.352223,-2.5509 -0.982366,-7.6626 -0.982366,-7.6626 z"
         style="fill:#2f2a28;fill-opacity:1;stroke:#2f2a28;stroke-width:3.96875;stroke-linecap:round;stroke-linejoin:round;stroke-miterlimit:4;stroke-dasharray:none;stroke-opacity:1" />
      <path
         inkscape:connector-curvature="0"
         style="opacity:1;fill:#fbdd74;fill-opacity:1;stroke:none;stroke-width:1;stroke-linecap:round;stroke-miterlimit:4;stroke-dasharray:none;stroke-dashoffset:0;stroke-opacity:1"
         d="m -193.61038,1524.986 c -7.59659,0 -13.71235,5.4958 -13.71235,12.3228 v 97.6813 c 0,6.827 6.11576,12.3228 13.71235,12.3228 h 21.34856 a 22.32031,22.32031 0 0 1 22.23895,-20.6964 22.32031,22.32031 0 0 1 22.25912,20.6964 h 102.42114 a 22.32031,22.32031 0 0 1 22.25911,-21.1083 22.32031,22.32031 0 0 1 22.27717,21.1083 h 17.67957 c 7.59658,0 13.62712,-5.4962 13.71232,-12.3228 l 0.91572,-73.397 c 0.21365,-17.1199 -18.48146,-36.6071 -32.49001,-36.6071 z"
         id="path11163" />
      <path
         sodipodi:nodetypes="ccaaccc"
         inkscape:connector-curvature="0"
         id="path11611"
         d="m -204.67704,1616.5813 0.35192,-54.5087 c 0,0 0.40668,27.0689 6.56489,38.5619 5.28206,9.8579 15.57777,16.1601 24.41993,23.008 3.71361,2.8761 11.92156,7.5127 11.92156,7.5127 l -42.09738,-0.3887 z"
         style="opacity:0.8;fill:#f9c81f;fill-opacity:1;stroke:none;stroke-width:0.26458332px;stroke-linecap:butt;stroke-linejoin:miter;stroke-opacity:1" />
      <path
         style="fill:#2f2a28;fill-opacity:1;stroke:none;stroke-width:0.27843317px;stroke-linecap:butt;stroke-linejoin:miter;stroke-opacity:1"
         d="m -25.68259,1649.8852 44.82412,-0.4305 c 0,0 -1.33988,-11.6364 -4.6029,-15.8475 -4.48424,-5.7872 -11.59316,-10.046 -18.47716,-10.2312 -6.10749,-0.1643 -12.72566,3.1156 -16.77157,8.185 -3.81404,4.7787 -4.97249,18.3242 -4.97249,18.3242"
         id="path11567"
         inkscape:connector-curvature="0"
         sodipodi:nodetypes="ccaaac" />
      <path
         sodipodi:nodetypes="cscscccscc"
         inkscape:connector-curvature="0"
         id="path11171"
         d="M -193.61055,1524.986 H 19.01122 c 14.00855,0 24.06535,14.832 24.06535,14.832 v 0 c 0,0 0,0 -0.0829,0.01 l -249.88614,0.474 c 0,0 -0.72628,-0.013 -0.36836,-0.02 l -0.43039,-2.9898 c -0.65217,-4.5306 5.73388,-12.865 14.08064,-12.3032 z"
         style="opacity:0.98000004;fill:#d18b00;fill-opacity:1;stroke:none;stroke-width:1;stroke-linecap:round;stroke-miterlimit:4;stroke-dasharray:none;stroke-dashoffset:0;stroke-opacity:1" />
      <path
         sodipodi:nodetypes="caaccc"
         inkscape:connector-curvature="0"
         id="path11613"
         d="m -207.26083,1540.282 c 0,0 9.60723,-6.1159 14.89908,-8.1066 5.14232,-1.9344 10.80664,-2.0776 16.0804,-3.618 3.21443,-0.9389 9.44724,-3.4171 9.44724,-3.4171 l -34.77387,1.005 -5.65285,14.1367"
         style="opacity:0.8;fill:#b07602;fill-opacity:1;stroke:none;stroke-width:0.26458332px;stroke-linecap:butt;stroke-linejoin:miter;stroke-opacity:1" />
      <rect
         y="1608.6438"
         x="-207.32289"
         height="7.9375"
         width="257.46344"
         id="rect11173"
         style="opacity:0.98000004;fill:#cd0437;fill-opacity:1;stroke:none;stroke-width:1.08372962;stroke-linecap:round;stroke-linejoin:round;stroke-miterlimit:4;stroke-dasharray:none;stroke-dashoffset:0;stroke-opacity:1" />
      <rect
         style="opacity:1;fill:#d10000;fill-opacity:0;stroke:none;stroke-width:1.55746198;stroke-linecap:round;stroke-linejoin:round;stroke-miterlimit:4;stroke-dasharray:none;stroke-dashoffset:0;stroke-opacity:1"
         id="rect11175"
         width="258.10947"
         height="20.231205"
         x="-207.10921"
         y="1589.9749" />
      <rect
         ry="1.2071117"
         y="1598.0507"
         x="27.951803"
         height="4.6427174"
         width="15.799847"
         id="rect11177"
         style="opacity:1;fill:#cc0036;fill-opacity:1;stroke:none;stroke-width:0.80000001;stroke-linecap:round;stroke-linejoin:round;stroke-miterlimit:4;stroke-dasharray:none;stroke-dashoffset:0;stroke-opacity:1" />
      <rect
         style="opacity:1;fill:#cc0036;fill-opacity:1;stroke:none;stroke-width:0.80000001;stroke-linecap:round;stroke-linejoin:round;stroke-miterlimit:4;stroke-dasharray:none;stroke-dashoffset:0;stroke-opacity:1"
         id="rect11179"
         width="15.799847"
         height="4.6427174"
         x="-199.98701"
         y="1574.7616"
         ry="1.2071117" />
      <rect
         ry="1.2071117"
         y="1548.3029"
         x="-199.98701"
         height="4.6427174"
         width="15.799847"
         id="rect11181"
         style="opacity:1;fill:#cc0036;fill-opacity:1;stroke:none;stroke-width:0.80000001;stroke-linecap:round;stroke-linejoin:round;stroke-miterlimit:4;stroke-dasharray:none;stroke-dashoffset:0;stroke-opacity:1" />
      <rect
         style="opacity:0.98000004;fill:#cd0337;fill-opacity:0.99607843;stroke:none;stroke-width:0.88511604;stroke-linecap:round;stroke-linejoin:round;stroke-miterlimit:4;stroke-dasharray:none;stroke-dashoffset:0;stroke-opacity:1"
         id="rect11201"
         width="257.6116"
         height="5.2916665"
         x="-207.47105"
         y="1586.9154" />
      <rect
         style="opacity:0.98000004;fill:#336fd7;fill-opacity:1;stroke:none;stroke-width:1.45002961;stroke-linecap:round;stroke-linejoin:round;stroke-miterlimit:4;stroke-dasharray:none;stroke-dashoffset:0;stroke-opacity:1"
         id="rect11217"
         width="38.237469"
         height="30.86919"
         x="-132.48357"
         y="1548.5105"
         ry="2.9597523" />
      <rect
         ry="2.9597523"
         y="1548.5105"
         x="-177.46342"
         height="30.86919"
         width="38.237469"
         id="rect11219"
         style="opacity:0.98000004;fill:#3570d7;fill-opacity:1;stroke:none;stroke-width:1.45002961;stroke-linecap:round;stroke-linejoin:round;stroke-miterlimit:4;stroke-dasharray:none;stroke-dashoffset:0;stroke-opacity:0.94117647" />
      <rect
         ry="2.9597523"
         y="1548.45"
         x="1.3948566"
         height="30.86919"
         width="38.237469"
         id="rect11221"
         style="opacity:0.98000004;fill:#3771d5;fill-opacity:1;stroke:none;stroke-width:1.45002961;stroke-linecap:round;stroke-linejoin:round;stroke-miterlimit:4;stroke-dasharray:none;stroke-dashoffset:0;stroke-opacity:1" />
      <path
         sodipodi:nodetypes="caacsaasc"
         inkscape:connector-curvature="0"
         id="path11357"
         d="m -167.91731,1647.681 c 0,0 7.37129,-7.3742 12.15896,-8.8792 3.7838,-1.1894 8.17956,-1.1277 11.89621,0.2573 4.99523,1.8615 12.31572,10.202 12.31572,10.202 0,0 -1.47346,-5.8356 -3.64795,-8.2058 -1.74761,-1.9049 -4.05274,-4.2594 -6.69062,-5.3564 -3.67683,-1.5289 -7.99253,-2.255 -11.8699,-1.3479 -4.40335,1.0302 -8.64912,3.5474 -11.40195,7.352 -1.28664,1.7782 -2.76047,5.978 -2.76047,5.978 z"
         style="fill:#3c3632;fill-opacity:0.53211012;stroke:none;stroke-width:0.26362562px;stroke-linecap:butt;stroke-linejoin:miter;stroke-opacity:1" />
      <path
         sodipodi:nodetypes="ccasccaacc"
         inkscape:connector-curvature="0"
         id="path11404"
         d="m 10.944162,1630.7665 h 37.807102 c 0,0 0.397292,4.6772 0,6.9644 -0.28852,1.661 -0.988301,3.2357 -1.70558,4.7614 -1.326668,2.8219 -6.875634,4.4319 -6.875634,4.4319 H 19.67056 c 0,0 -0.983502,-5.361 -2.079942,-7.8283 -0.949112,-2.1358 -2.288409,-4.1148 -3.822846,-5.8777 -0.818368,-0.9402 -2.82361,-2.4517 -2.82361,-2.4517 h 37.807102"
         style="fill:#d18b00;fill-opacity:1;stroke:none;stroke-width:0.26458332px;stroke-linecap:butt;stroke-linejoin:miter;stroke-opacity:1" />
      <path
         inkscape:connector-curvature="0"
         id="path11406"
         transform="scale(0.26458333)"
         d="m -514.63672,6163.5273 c 0,0 6.79401,6.0108 9.72266,9.4551 5.80305,6.824 11.62416,13.9013 15.39844,22.0254 4.29955,9.2546 7.86132,29.5879 7.86132,29.5879 h 306.11914 77.478519 c 0,0 3.71535,-20.2627 7.859375,-29.5879 3.587195,-8.0723 8.649772,-15.5519 14.449219,-22.2148 3.093045,-3.5535 10.671875,-9.2657 10.671875,-9.2657 H -207.96875 -371.74414 Z"
         style="fill:#d18b00;fill-opacity:1;stroke:none;stroke-width:0.99999994px;stroke-linecap:butt;stroke-linejoin:miter;stroke-opacity:1" />
      <path
         style="fill:#d18b00;fill-opacity:1;stroke:none;stroke-width:0.25643569px;stroke-linecap:butt;stroke-linejoin:miter;stroke-opacity:1"
         d="m -164.06459,1631.1552 -42.09738,-0.3887 c 0,0 -1.13525,5.2736 -0.30151,7.7049 0.89323,2.6047 3.69219,5.3965 5.32074,6.3191 2.68398,1.5207 5.65467,2.1337 5.65467,2.1337 l 23.22625,0.3887 c 0,0 0.92386,-5.361 1.95381,-7.8283 0.89156,-2.1358 2.14964,-4.1148 3.59103,-5.8777 0.76875,-0.9402 2.65239,-2.4517 2.65239,-2.4517 l -42.09738,-0.3887"
         id="path11410"
         inkscape:connector-curvature="0"
         sodipodi:nodetypes="ccasccaacc" />
      <rect
         style="opacity:1;fill:#fbdd74;fill-opacity:0.98039216;stroke:#050402;stroke-width:1.54054844;stroke-linecap:round;stroke-linejoin:round;stroke-miterlimit:4;stroke-dasharray:none;stroke-dashoffset:0;stroke-opacity:1"
         id="rect11203"
         width="51.376118"
         height="91.063622"
         x="-82.976257"
         y="1545.7113"
         ry="9.6360502" />
      <rect
         style="opacity:0.98000004;fill:#3771d5;fill-opacity:1;stroke:none;stroke-width:1.09452701;stroke-linecap:round;stroke-linejoin:round;stroke-miterlimit:4;stroke-dasharray:none;stroke-dashoffset:0;stroke-opacity:1"
         id="rect11205"
         width="17.426306"
         height="38.592976"
         x="-76.849426"
         y="1551.0444"
         ry="3.7003124" />
      <rect
         ry="3.7003124"
         y="1551.0444"
         x="-55.15329"
         height="38.592976"
         width="17.426306"
         id="rect11207"
         style="opacity:0.98000004;fill:#3771d5;fill-opacity:1;stroke:none;stroke-width:1.09452701;stroke-linecap:round;stroke-linejoin:round;stroke-miterlimit:4;stroke-dasharray:none;stroke-dashoffset:0;stroke-opacity:1" />
      <rect
         ry="3.7003124"
         y="1592.8486"
         x="-76.849426"
         height="38.592976"
         width="17.426306"
         id="rect11211"
         style="opacity:0.98000004;fill:#3771d5;fill-opacity:1;stroke:none;stroke-width:1.09452701;stroke-linecap:round;stroke-linejoin:round;stroke-miterlimit:4;stroke-dasharray:none;stroke-dashoffset:0;stroke-opacity:1" />
      <rect
         style="opacity:0.98000004;fill:#3b73d3;fill-opacity:1;stroke:none;stroke-width:1.09452701;stroke-linecap:round;stroke-linejoin:round;stroke-miterlimit:4;stroke-dasharray:none;stroke-dashoffset:0;stroke-opacity:1"
         id="rect11213"
         width="17.426306"
         height="38.592976"
         x="-55.15329"
         y="1592.8486"
         ry="3.7003124" />
      <path
         sodipodi:nodetypes="sacss"
         inkscape:connector-curvature="0"
         id="path11643"
         d="m 36.838513,1570.5026 c -3.73745,-4.1743 0.01,-11.7449 -4.20266,-15.475 -4.39395,-3.891 -18.05232,-3.7254 -18.05232,-3.7254 0,0 20.02796,-2.9995 22.65731,-0.3921 2.4029,2.3829 -0.40233,19.5925 -0.40233,19.5925 z"
         style="opacity:0.8;fill:#5284da;fill-opacity:1;stroke:none;stroke-width:0.27937433px;stroke-linecap:butt;stroke-linejoin:miter;stroke-opacity:1" />
      <path
         style="opacity:0.8;fill:#5284da;fill-opacity:1;stroke:none;stroke-width:0.27937433px;stroke-linecap:butt;stroke-linejoin:miter;stroke-opacity:1"
         d="m 3.8356819,1558.0206 c 3.73745,4.1743 -0.01,11.7449 4.20266,15.475 4.3939501,3.891 18.0523201,3.7254 18.0523201,3.7254 0,0 -20.0279601,2.9995 -22.6573101,0.3921 -2.4029,-2.3829 0.40233,-19.5925 0.40233,-19.5925 z"
         id="path11645"
         inkscape:connector-curvature="0"
         sodipodi:nodetypes="sacss" />
      <path
         sodipodi:nodetypes="ccccc"
         style="fill:#6c97e2;fill-opacity:1;stroke:none;stroke-width:0.26458332px;stroke-linecap:butt;stroke-linejoin:miter;stroke-opacity:1"
         d="m 32.382363,1548.6736 -21.438201,29.8115 2.694486,0.1005 22.613056,-29.9497 z"
         id="path11427"
         inkscape:connector-curvature="0" />
      <path
         sodipodi:nodetypes="ccccc"
         style="fill:#6c97e2;fill-opacity:1;stroke:none;stroke-width:0.26458332px;stroke-linecap:butt;stroke-linejoin:miter;stroke-opacity:1"
         d="m 38.6374,1549.7292 -19.080171,28.9491 -3.890194,-0.1119 21.614657,-29.6512 z"
         id="path11429"
         inkscape:connector-curvature="0" />
      <path
         id="path11452"
         d="m -34.655905,1647.3129 h 9.665041 c 0.643202,-11.8279 10.413812,-21.0933 22.2591281,-21.1083 11.8522749,0.01 21.6335499,9.2735 22.2771489,21.1083 h 17.679591 c 7.596584,0 13.627099,-5.4962 13.712322,-12.3228 l 0.102605,-52.9746"
         style="opacity:0.98000004;fill:none;fill-opacity:1;stroke:#cc0036;stroke-width:3.96875;stroke-linecap:round;stroke-linejoin:round;stroke-miterlimit:4;stroke-dasharray:none;stroke-dashoffset:0;stroke-opacity:1"
         inkscape:connector-curvature="0"
         sodipodi:nodetypes="ccccscc" />
      <path
         id="path11445"
         d="m -206.97098,1562.0726 v 72.9175 c 0,6.827 6.11576,12.3228 13.71235,12.3228 h 21.34856 a 22.320309,22.320309 0 0 1 22.23895,-20.6964 22.320309,22.320309 0 0 1 22.25912,20.6964 h 52.718229"
         style="opacity:0.98000004;fill:none;fill-opacity:1;stroke:#cc0036;stroke-width:3.96875;stroke-linecap:round;stroke-linejoin:round;stroke-miterlimit:4;stroke-dasharray:none;stroke-dashoffset:0;stroke-opacity:1"
         inkscape:connector-curvature="0" />
      <path
         id="path11438"
         d="m -184.96972,1524.986 h -8.28891 v 0 c -7.07336,0 -14.49737,5.2623 -14.05322,13.704"
         style="opacity:0.98000004;fill:none;fill-opacity:1;stroke:#cc0036;stroke-width:3.96875;stroke-linecap:round;stroke-linejoin:round;stroke-miterlimit:4;stroke-dasharray:none;stroke-dashoffset:0;stroke-opacity:1"
         inkscape:connector-curvature="0"
         sodipodi:nodetypes="cccc" />
      <circle
         r="3.3072917"
         cy="1554.1058"
         cx="-207.29359"
         id="path11459"
         style="opacity:1;fill:#cd0437;fill-opacity:1;stroke:none;stroke-width:3.37634921;stroke-linecap:round;stroke-linejoin:round;stroke-miterlimit:4;stroke-dasharray:none;stroke-dashoffset:0;stroke-opacity:1" />
      <circle
         r="3.3072917"
         cy="1647.0817"
         cx="-42.095135"
         id="path11459-1"
         style="opacity:1;fill:#cd0437;fill-opacity:1;stroke:none;stroke-width:3.37634921;stroke-linecap:round;stroke-linejoin:round;stroke-miterlimit:4;stroke-dasharray:none;stroke-dashoffset:0;stroke-opacity:1" />
      <rect
         ry="4.4345636"
         y="-1639.2771"
         x="-215.17244"
         height="17.055935"
         width="39.470554"
         id="rect11169"
         style="opacity:1;fill:#99be91;fill-opacity:1;stroke:none;stroke-width:0.81106484;stroke-linecap:round;stroke-linejoin:round;stroke-miterlimit:4;stroke-dasharray:none;stroke-dashoffset:0;stroke-opacity:1"
         transform="scale(1,-1)" />
      <path
         id="path11481"
         d="M -195.00502,1622.64 H -210.738 c -2.45675,0 -4.43457,1.9778 -4.43457,4.4346 v 8.1868 c 0,2.4567 1.97782,4.4345 4.43457,4.4345 v 0 h 30.60142 c 2.45675,0 4.43457,-1.9778 4.43457,-4.4345 l -1e-5,-4.0761"
         style="opacity:1;fill:none;fill-opacity:1;stroke:#cd0437;stroke-width:3.96875;stroke-linecap:round;stroke-linejoin:round;stroke-miterlimit:4;stroke-dasharray:none;stroke-dashoffset:0;stroke-opacity:1"
         inkscape:connector-curvature="0" />
      <circle
         style="opacity:1;fill:#cd0437;fill-opacity:1;stroke:none;stroke-width:3.96875;stroke-linecap:round;stroke-linejoin:round;stroke-miterlimit:4;stroke-dasharray:none;stroke-dashoffset:0;stroke-opacity:1"
         id="circle11483"
         cx="-187.11099"
         cy="1622.4637"
         r="3.3072917" />
      <rect
         style="opacity:1;fill:#99be91;fill-opacity:1;stroke:none;stroke-width:1;stroke-linecap:round;stroke-linejoin:round;stroke-miterlimit:4;stroke-dasharray:none;stroke-dashoffset:0;stroke-opacity:1"
         id="rect11167"
         width="25.862589"
         height="16.866905"
         x="34.230595"
         y="1625.4518"
         ry="4.3854141" />
      <path
         sodipodi:nodetypes="cc"
         id="path11501"
         d="m 43.78867,1625.4397 9.504368,0.012"
         style="opacity:1;fill:none;fill-opacity:1;stroke:#cc0036;stroke-width:3.96875;stroke-linecap:round;stroke-linejoin:round;stroke-miterlimit:4;stroke-dasharray:none;stroke-dashoffset:0;stroke-opacity:0.98039216"
         inkscape:connector-curvature="0" />
      <path
         style="fill:#3c3632;fill-opacity:0.53211012;stroke:none;stroke-width:0.26362562px;stroke-linecap:butt;stroke-linejoin:miter;stroke-opacity:1"
         d="m -21.33808,1647.681 c 0,0 7.37129,-7.3742 12.15896,-8.8792 3.7838,-1.1894 8.17956,-1.1277 11.89621,0.2573 4.99523,1.8615 12.31572,10.202 12.31572,10.202 0,0 -1.47346,-5.8356 -3.64795,-8.2058 -1.74761,-1.9049 -4.05274,-4.2594 -6.69062,-5.3564 -3.67683,-1.5289 -7.99253,-2.255 -11.8699,-1.3479 -4.40335,1.0302 -8.64912,3.5474 -11.40195,7.352 -1.28664,1.7782 -2.76047,5.978 -2.76047,5.978 z"
         id="path11583"
         inkscape:connector-curvature="0"
         sodipodi:nodetypes="caacsaasc" />
      <path
         sodipodi:nodetypes="casccsssscc"
         inkscape:connector-curvature="0"
         id="path11605"
         d="m -206.21435,1625.6497 c 0,0 -3.32233,2.8413 -3.50123,4.8325 -0.16495,1.8358 0.5644,4.9746 2.38083,4.9746 h 19.88697 9.21812 c 0,0 -0.61641,1.5249 -1.29494,1.528 l -30.28078,0.136 c -0.94525,0 -2.39427,0.03 -2.58035,-0.9102 -0.73541,-3.7172 -0.26164,-6.3271 -0.21805,-9.4345 0.0239,-1.7068 6.38938,-1.1263 6.38938,-1.1263 z"
         style="opacity:0.8;fill:#79a96f;fill-opacity:1;stroke:none;stroke-width:0.26263741;stroke-linecap:round;stroke-linejoin:round;stroke-miterlimit:4;stroke-dasharray:none;stroke-opacity:1" />
      <path
         style="opacity:0.8;fill:#79aa6e;fill-opacity:1;stroke:none;stroke-width:0.28030166;stroke-linecap:round;stroke-linejoin:round;stroke-miterlimit:4;stroke-dasharray:none;stroke-opacity:1"
         d="m 39.60783,1625.8528 c 0,0 -2.719475,1.4652 -3.175181,2.8009 -0.917072,2.6881 0.382238,8.3666 1.612408,8.3666 h 13.468376 6.242938 c 0,0 -0.417461,2.5647 -0.876993,2.5699 l -20.507546,0.2287 c -0.640167,0 -1.62151,0.051 -1.747533,-1.5308 -0.498053,-6.2518 -0.07669,-6.5207 -0.04717,-11.747 0.01618,-2.8706 5.030702,-0.6883 5.030701,-0.6883 z"
         id="path11609"
         inkscape:connector-curvature="0"
         sodipodi:nodetypes="casccsssscc" />
      <path
         inkscape:connector-curvature="0"
         d="m 47.472201,1625.4519 h 8.235569 c 2.429518,0 4.385413,1.9559 4.385413,4.3855 v 2.9191 m 0,0 v 5.1769 c 0,2.4295 -1.955893,4.3855 -4.385411,4.3855 h -17.09176 c -2.429521,0 -4.238114,-1.9605 -4.385416,-4.3855 l -0.284264,-4.6798"
         style="opacity:1;fill:none;fill-opacity:1;stroke:#cc0036;stroke-width:3.96875;stroke-linecap:round;stroke-linejoin:round;stroke-miterlimit:4;stroke-dasharray:none;stroke-dashoffset:0;stroke-opacity:0.98039216"
         id="rect11489" />
      <circle
         style="opacity:1;fill:#cd0437;fill-opacity:1;stroke:none;stroke-width:3.37634921;stroke-linecap:round;stroke-linejoin:round;stroke-miterlimit:4;stroke-dasharray:none;stroke-dashoffset:0;stroke-opacity:1"
         id="circle11509"
         cx="36.423958"
         cy="1626.1033"
         r="3.3072917" />
      <path
         inkscape:connector-curvature="0"
         d="m -79.096443,1589.4771 c 0,0 3.321492,1.1084 5.045686,1.3502 5.443301,0.7635 14.627638,-1.1898 16.487309,0.2843 0.428572,0.3397 0.08399,1.3532 -0.461928,1.3858 -1.71754,0.1025 -18.824048,-0.3594 -18.824048,-0.3594 l -2.261176,1.1056 z m 21.37891,-38.4326 c 0,0 -16.178884,-2.2291 -19.131891,0 -3.256791,2.4585 -2.690926,75.9662 0,80.3971 1.86076,3.0639 16.082705,0.3649 17.426307,0 1.291604,-0.3508 0,4.0152 0,4.0152 h -21.179869 v -87.6029 h 23.027585 z"
         style="fill:#f9cc30;fill-opacity:1;stroke:none;stroke-width:0.26458332px;stroke-linecap:butt;stroke-linejoin:miter;stroke-opacity:1"
         id="path11631" />
      <rect
         ry="9.6360502"
         y="1545.7113"
         x="-82.976257"
         height="91.063622"
         width="51.376118"
         id="rect11514"
         style="opacity:0.98000004;fill:none;fill-opacity:0.98039216;stroke:#ce0839;stroke-width:3.96875;stroke-linecap:round;stroke-linejoin:round;stroke-miterlimit:4;stroke-dasharray:none;stroke-dashoffset:0;stroke-opacity:1" />
      <path
         sodipodi:nodetypes="sacss"
         inkscape:connector-curvature="0"
         id="path11639"
         d="m -176.04422,1558.7287 c 3.35218,4.1743 -0.009,11.7449 3.76943,15.475 3.94101,3.891 16.19142,3.7254 16.19142,3.7254 0,0 -17.9634,2.9995 -20.32171,0.3921 -2.1552,-2.3829 0.36086,-19.5925 0.36086,-19.5925 z"
         style="opacity:0.8;fill:#5284da;fill-opacity:1;stroke:none;stroke-width:0.26458332px;stroke-linecap:butt;stroke-linejoin:miter;stroke-opacity:1" />
      <path
         style="opacity:0.8;fill:#5284da;fill-opacity:1;stroke:none;stroke-width:0.27937433px;stroke-linecap:butt;stroke-linejoin:miter;stroke-opacity:1"
         d="m -130.76711,1557.7257 c 3.73745,4.1743 -0.01,11.7449 4.20266,15.475 4.39395,3.891 18.05232,3.7254 18.05232,3.7254 0,0 -20.02796,2.9995 -22.65731,0.3921 -2.4029,-2.3829 0.40233,-19.5925 0.40233,-19.5925 z"
         id="path11641"
         inkscape:connector-curvature="0"
         sodipodi:nodetypes="sacss" />
      <path
         inkscape:connector-curvature="0"
         id="path11417"
         d="m -164.82407,1548.4569 -12.2613,18.4924 0.201,4.0201 15.87939,-22.3115 z"
         style="fill:#6c97e2;fill-opacity:1;stroke:none;stroke-width:0.26458332px;stroke-linecap:butt;stroke-linejoin:miter;stroke-opacity:1" />
      <path
         inkscape:connector-curvature="0"
         id="path11419"
         d="m -157.62436,1548.472 -19.47208,27.7157 -0.0711,-3.1269 18.05076,-24.6599 z"
         style="fill:#6c97e2;fill-opacity:1;stroke:none;stroke-width:0.26458332px;stroke-linecap:butt;stroke-linejoin:miter;stroke-opacity:1" />
      <path
         sodipodi:nodetypes="ccccc"
         style="fill:#6c97e2;fill-opacity:1;stroke:none;stroke-width:0.26602259px;stroke-linecap:butt;stroke-linejoin:miter;stroke-opacity:1"
         d="m -109.60032,1548.7502 -21.81648,28.7817 -0.21403,-4.264 18.24768,-24.6599 z"
         id="path11423"
         inkscape:connector-curvature="0" />
      <path
         style="fill:#6c97e2;fill-opacity:1;stroke:none;stroke-width:0.26458332px;stroke-linecap:butt;stroke-linejoin:miter;stroke-opacity:1"
         d="m -119.28734,1548.664 -12.2613,18.4924 0.201,4.0201 15.87939,-22.3115 z"
         id="path11421"
         inkscape:connector-curvature="0" />
      <path
         sodipodi:nodetypes="ccccc"
         inkscape:connector-curvature="0"
         id="path11425"
         d="m -124.28506,1548.8061 -7.97424,11.8554 0.2845,3.9059 11.24766,-15.7614 z"
         style="fill:#6c97e2;fill-opacity:1;stroke:none;stroke-width:0.18715841px;stroke-linecap:butt;stroke-linejoin:miter;stroke-opacity:1" />
      <path
         sodipodi:nodetypes="sacss"
         inkscape:connector-curvature="0"
         id="path11647"
         d="m -75.148987,1568.1856 c 2.241695,4.1743 -0.006,11.7449 2.520724,15.475 2.635459,3.891 10.82765,3.7254 10.82765,3.7254 0,0 -12.012624,2.9995 -13.589689,0.3921 -1.441242,-2.3829 0.241315,-19.5925 0.241315,-19.5925 z"
         style="opacity:0.8;fill:#5284da;fill-opacity:1;stroke:none;stroke-width:0.21636504px;stroke-linecap:butt;stroke-linejoin:miter;stroke-opacity:1" />
      <path
         style="opacity:0.8;fill:#5284da;fill-opacity:1;stroke:none;stroke-width:0.21636504px;stroke-linecap:butt;stroke-linejoin:miter;stroke-opacity:1"
         d="m -51.936515,1566.4662 c 2.241695,4.1743 -0.006,11.7449 2.520724,15.475 2.635459,3.891 10.82765,3.7254 10.82765,3.7254 0,0 -12.012624,2.9995 -13.589689,0.3921 -1.441242,-2.3829 0.241315,-19.5925 0.241315,-19.5925 z"
         id="path11649"
         inkscape:connector-curvature="0"
         sodipodi:nodetypes="sacss" />
      <path
         style="opacity:0.8;fill:#5284da;fill-opacity:1;stroke:none;stroke-width:0.21636504px;stroke-linecap:butt;stroke-linejoin:miter;stroke-opacity:1"
         d="m -74.432553,1608.1626 c 2.241695,4.1743 -0.006,11.7449 2.520724,15.475 2.635459,3.891 10.82765,3.7254 10.82765,3.7254 0,0 -12.012624,2.9995 -13.589689,0.3921 -1.441242,-2.3829 0.241315,-19.5925 0.241315,-19.5925 z"
         id="path11651"
         inkscape:connector-curvature="0"
         sodipodi:nodetypes="sacss" />
      <path
         sodipodi:nodetypes="sacss"
         inkscape:connector-curvature="0"
         id="path11653"
         d="m -52.509663,1608.7357 c 2.241695,4.1743 -0.006,11.7449 2.520724,15.475 2.635459,3.891 10.82765,3.7254 10.82765,3.7254 0,0 -12.012624,2.9995 -13.589689,0.3921 -1.441242,-2.3829 0.241315,-19.5925 0.241315,-19.5925 z"
         style="opacity:0.8;fill:#5284da;fill-opacity:1;stroke:none;stroke-width:0.21636504px;stroke-linecap:butt;stroke-linejoin:miter;stroke-opacity:1" />
      <path
         style="fill:#d28c02;fill-opacity:1;stroke:none;stroke-width:0.90544713;stroke-linecap:butt;stroke-linejoin:miter;stroke-miterlimit:4;stroke-dasharray:none;stroke-opacity:1"
         d="m 28.58573,1520.2264 c -7.681357,-9.4324 -10.240984,-14.7056 -18.332154,-20.9315 -1.6067093,-1.2363 -4.4212147,-1.2831 -6.2198115,-0.3077 -4.98865192,2.7049 -7.2040013,9.0875 -7.856589,14.4675 -0.4589057,3.7828 0.5418501,8.0178 2.94625609,11.0813 4.07003311,5.1857 8.76425261,8.0355 14.07643641,11.6969 3.423254,2.3596 9.215717,-0.7762 12.112255,-3.6937 3.070332,-3.0923 6.00888,-8.9538 3.273607,-12.3126 z"
         id="path11705"
         inkscape:connector-curvature="0"
         sodipodi:nodetypes="ssaassas" />
      <path
         style="fill:#be6b45;fill-opacity:1;stroke:none;stroke-width:0.83751142;stroke-linecap:butt;stroke-linejoin:miter;stroke-miterlimit:4;stroke-dasharray:none;stroke-opacity:1"
         d="m 15.191008,1528.6371 c 2.859153,-2.9842 6.165988,-6.6064 6.165988,-6.6064 2.199185,-2.3564 -5.318565,-8.6807 -9.836282,-11.598 -1.096939,-0.7085 -3.6710017,-0.4169 -3.8170125,0.8808 -0.4365209,3.8784 -1.6773961,8.651 0.7340427,11.7447 1.9131778,2.4546 4.7332508,7.6872 6.7532638,5.5789 z"
         id="path11707"
         inkscape:connector-curvature="0"
         sodipodi:nodetypes="ssssss" />
      <path
         style="fill:#2f2a28;fill-opacity:1;stroke:#2f2a28;stroke-width:3.96875;stroke-linecap:round;stroke-linejoin:round;stroke-miterlimit:4;stroke-dasharray:none;stroke-opacity:1"
         d="m 14.748236,1547.3995 -21.1725152,-2.6375 c 0,0 3.5568259,1.5583 4.4757146,3.1299 1.93046743,3.3017 3.7007157,11.1043 3.7007157,11.1043 0,0 -0.2398878,-9.4199 0.6095955,-9.8567 3.6624876,-1.8836 12.3864894,-1.74 12.3864894,-1.74 z"
         id="path11711"
         inkscape:connector-curvature="0"
         sodipodi:nodetypes="ccscsc" />
      <ellipse
         style="fill:#ffffff;fill-opacity:1;stroke:none;stroke-width:2.68077779;stroke-linecap:square;stroke-miterlimit:4;stroke-dasharray:none;stroke-opacity:1"
         id="ellipse11713"
         cx="13.614608"
         cy="1559.7395"
         rx="7.4545736"
         ry="7.3409576" />
      <path
         style="fill:none;stroke:#cc0036;stroke-width:3.96875;stroke-linecap:round;stroke-linejoin:miter;stroke-miterlimit:4;stroke-dasharray:none;stroke-opacity:0.98039216"
         d="m 12.640644,1537.5856 c 0,0 -8.6162088,-4.6484 -11.5445556,-8.3997 -2.3881935,-3.0594 -3.9365359,-6.9384 -4.3600301,-10.7964 -0.2755213,-2.5106 1.2457642,-7.4742 1.2457642,-7.4742"
         id="path11717"
         inkscape:connector-curvature="0"
         sodipodi:nodetypes="caac" />
      <ellipse
         style="fill:#6e1365;fill-opacity:1;stroke:#cc0036;stroke-width:2.41947722;stroke-linecap:round;stroke-miterlimit:4;stroke-dasharray:none;stroke-opacity:0.98039216"
         id="ellipse11719"
         cx="0.33931756"
         cy="1503.5669"
         rx="1.4313987"
         ry="1.5374284" />
      <path
         sodipodi:nodetypes="caac"
         inkscape:connector-curvature="0"
         id="path11723"
         d="m 28.467355,1530.2058 c 0,0 0.832291,-5.8547 0.155531,-8.6621 -1.093362,-4.5356 -3.781649,-8.6247 -6.600141,-12.3428 -2.348046,-3.0974 -8.4152,-8.0715 -8.4152,-8.0715"
         style="fill:none;stroke:#cc0036;stroke-width:3.96875;stroke-linecap:round;stroke-linejoin:miter;stroke-miterlimit:4;stroke-dasharray:none;stroke-opacity:0.98039216" />
      <path
         sodipodi:nodetypes="cac"
         inkscape:connector-curvature="0"
         id="path11725"
         d="m 55.945428,1625.157 c 0,0 12.233652,-15.508 12.558647,-24.7551 0.225968,-6.4295 -7.502091,-17.7827 -7.502091,-17.7827"
         style="fill:none;stroke:#ce0838;stroke-width:3.96875;stroke-linecap:round;stroke-linejoin:round;stroke-miterlimit:4;stroke-dasharray:none;stroke-opacity:1" />
      <text
         id="text6851"
         y="1605.588"
         x="-199.55551"
         style="font-style:normal;font-weight:normal;font-size:15.20818138px;line-height:1.25;font-family:sans-serif;letter-spacing:0px;word-spacing:0px;fill:#2f2a28;fill-opacity:1;stroke:none;stroke-width:0.38020456"
         xml:space="preserve"><tspan
           style="font-style:normal;font-variant:normal;font-weight:normal;font-stretch:normal;font-family:'Goudy Stout';-inkscape-font-specification:'Goudy Stout';fill:#2f2a28;fill-opacity:1;stroke-width:0.38020456"
           y="1605.588"
           x="-199.55551"
           id="tspan6849"
           sodipodi:role="line">school</tspan></text>
    </g>
    <g
       transform="matrix(0.35877539,0,0,0.35877539,28.985652,-355.77704)"
       id="busWheelBack"
       inkscape:label="busWheelBack">
      <circle
         r="16.668692"
         cy="1652.6176"
         cx="-149.86461"
         id="circle11243"
         style="opacity:1;fill:#524a45;fill-opacity:1;stroke:#cc0036;stroke-width:3.96875;stroke-linecap:round;stroke-linejoin:round;stroke-miterlimit:4;stroke-dasharray:none;stroke-dashoffset:0;stroke-opacity:0.98039216" />
      <circle
         r="10.499964"
         cy="1652.6176"
         cx="-149.86461"
         id="circle11247"
         style="opacity:1;fill:#99be91;fill-opacity:1;stroke:none;stroke-width:1.05844939;stroke-linecap:round;stroke-linejoin:round;stroke-miterlimit:4;stroke-dasharray:none;stroke-dashoffset:0;stroke-opacity:1" />
      <circle
         style="opacity:1;fill:#cc0335;fill-opacity:1;stroke:none;stroke-width:0.8467595;stroke-linecap:round;stroke-linejoin:round;stroke-miterlimit:4;stroke-dasharray:none;stroke-dashoffset:0;stroke-opacity:1"
         id="circle11249"
         cx="-149.86461"
         cy="1648.4333"
         r="2.099993" />
      <circle
         r="2.099993"
         cy="1656.8016"
         cx="-149.86461"
         id="circle11251"
         style="opacity:1;fill:#cc0036;fill-opacity:0.98039216;stroke:none;stroke-width:0.8467595;stroke-linecap:round;stroke-linejoin:round;stroke-miterlimit:4;stroke-dasharray:none;stroke-dashoffset:0;stroke-opacity:1" />
      <circle
         style="opacity:1;fill:#cc0036;fill-opacity:0.98039216;stroke:none;stroke-width:0.8467595;stroke-linecap:round;stroke-linejoin:round;stroke-miterlimit:4;stroke-dasharray:none;stroke-dashoffset:0;stroke-opacity:1"
         id="circle11253"
         cx="-154.0488"
         cy="1652.6176"
         r="2.099993" />
      <circle
         r="2.099993"
         cy="1652.6176"
         cx="-145.68042"
         id="circle11255"
         style="opacity:1;fill:#ca0136;fill-opacity:0.99607843;stroke:none;stroke-width:0.8467595;stroke-linecap:round;stroke-linejoin:round;stroke-miterlimit:4;stroke-dasharray:none;stroke-dashoffset:0;stroke-opacity:1" />
      <path
         style="fill:#6b605a;fill-opacity:1;stroke:none;stroke-width:0.23257492px;stroke-linecap:butt;stroke-linejoin:miter;stroke-opacity:1"
         d="m -141.44506,1661.7436 c 0.4137,0.5344 1.44287,0.2788 2.02651,-0.062 0.8177,-0.4774 1.4128,-1.4847 1.47139,-2.4298 0.0411,-0.6636 -0.16071,-1.7002 -0.8146,-1.8208 -0.93295,-0.172 -1.52912,1.1962 -2.01247,2.0125 -0.4069,0.6872 -1.15969,1.6685 -0.67083,2.2999 z"
         id="path11257"
         inkscape:connector-curvature="0"
         sodipodi:nodetypes="aaaaaa" />
    </g>
    <g
       transform="matrix(0.35877539,0,0,0.35877539,28.985652,-355.77704)"
       id="busWheelFront"
       inkscape:label="busWheelFront">
      <circle
         style="opacity:1;fill:#524a45;fill-opacity:1;stroke:#cc0036;stroke-width:3.96875;stroke-linecap:round;stroke-linejoin:round;stroke-miterlimit:4;stroke-dasharray:none;stroke-dashoffset:0;stroke-opacity:0.98039216"
         id="circle11569"
         cx="-3.2853787"
         cy="1652.6176"
         r="16.668692" />
      <circle
         style="opacity:1;fill:#99be91;fill-opacity:1;stroke:none;stroke-width:1.05844939;stroke-linecap:round;stroke-linejoin:round;stroke-miterlimit:4;stroke-dasharray:none;stroke-dashoffset:0;stroke-opacity:1"
         id="circle11571"
         cx="-3.2853787"
         cy="1652.6176"
         r="10.499964" />
      <circle
         r="2.099993"
         cy="1648.4333"
         cx="-3.2853787"
         id="circle11573"
         style="opacity:1;fill:#cc0335;fill-opacity:1;stroke:none;stroke-width:0.8467595;stroke-linecap:round;stroke-linejoin:round;stroke-miterlimit:4;stroke-dasharray:none;stroke-dashoffset:0;stroke-opacity:1" />
      <circle
         style="opacity:1;fill:#cc0036;fill-opacity:0.98039216;stroke:none;stroke-width:0.8467595;stroke-linecap:round;stroke-linejoin:round;stroke-miterlimit:4;stroke-dasharray:none;stroke-dashoffset:0;stroke-opacity:1"
         id="circle11575"
         cx="-3.2853787"
         cy="1656.8016"
         r="2.099993" />
      <circle
         r="2.099993"
         cy="1652.6176"
         cx="-7.4695678"
         id="circle11577"
         style="opacity:1;fill:#cc0036;fill-opacity:0.98039216;stroke:none;stroke-width:0.8467595;stroke-linecap:round;stroke-linejoin:round;stroke-miterlimit:4;stroke-dasharray:none;stroke-dashoffset:0;stroke-opacity:1" />
      <circle
         style="opacity:1;fill:#ca0136;fill-opacity:0.99607843;stroke:none;stroke-width:0.8467595;stroke-linecap:round;stroke-linejoin:round;stroke-miterlimit:4;stroke-dasharray:none;stroke-dashoffset:0;stroke-opacity:1"
         id="circle11579"
         cx="0.89881009"
         cy="1652.6176"
         r="2.099993" />
      <path
         sodipodi:nodetypes="aaaaaa"
         inkscape:connector-curvature="0"
         id="path11581"
         d="m 5.13417,1661.7436 c 0.4137,0.5344 1.44287,0.2788 2.02651,-0.062 0.8177,-0.4774 1.4128,-1.4847 1.47139,-2.4298 0.0411,-0.6636 -0.16071,-1.7002 -0.8146,-1.8208 -0.93295,-0.172 -1.52912,1.1962 -2.01247,2.0125 -0.4069,0.6872 -1.15969,1.6685 -0.67083,2.2999 z"
         style="fill:#6b605a;fill-opacity:1;stroke:none;stroke-width:0.23257492px;stroke-linecap:butt;stroke-linejoin:miter;stroke-opacity:1" />
    </g>
  </g>
</svg>
