<?xml version="1.0" encoding="UTF-8" standalone="no"?>
<!-- Created with Inkscape (http://www.inkscape.org/) -->

<svg
   xmlns:dc="http://purl.org/dc/elements/1.1/"
   xmlns:cc="http://creativecommons.org/ns#"
   xmlns:rdf="http://www.w3.org/1999/02/22-rdf-syntax-ns#"
   xmlns:svg="http://www.w3.org/2000/svg"
   xmlns="http://www.w3.org/2000/svg"
   xmlns:xlink="http://www.w3.org/1999/xlink"
   xmlns:sodipodi="http://sodipodi.sourceforge.net/DTD/sodipodi-0.dtd"
   xmlns:inkscape="http://www.inkscape.org/namespaces/inkscape"
   width="50.638298mm"
   height="60.075302mm"
   viewBox="0 0 50.638298 60.075302"
   version="1.1"
   id="svg4247"
   inkscape:version="0.92.3 (2405546, 2018-03-11)"
   sodipodi:docname="llamaLogo.svg">
  <defs
     id="defs4241">
    <path
       style="fill:none;stroke:none;stroke-width:0.26458332px;stroke-linecap:butt;stroke-linejoin:miter;stroke-opacity:1"
       d="m -719.18659,1170.2241 c 0,0 12.94602,40.2227 27.99678,53.6559 21.30467,19.015 51.45604,32.6693 79.94948,30.7767 30.54767,-2.029 61.78844,-19.8855 80.59657,-44.0419 14.983,-19.2436 18.27337,-70.8472 18.27337,-70.8472"
       id="path4232"
       inkscape:connector-curvature="0"
       sodipodi:nodetypes="caaac" />
  </defs>
  <sodipodi:namedview
     id="base"
     pagecolor="#ffffff"
     bordercolor="#666666"
     borderopacity="1.0"
     inkscape:pageopacity="0.0"
     inkscape:pageshadow="2"
     inkscape:zoom="1.1416016"
     inkscape:cx="127.79023"
     inkscape:cy="-77.171598"
     inkscape:document-units="mm"
     inkscape:current-layer="layer1"
     showgrid="false"
     fit-margin-top="0"
     fit-margin-left="0"
     fit-margin-right="0"
     fit-margin-bottom="0"
     inkscape:window-width="1280"
     inkscape:window-height="996"
     inkscape:window-x="0"
     inkscape:window-y="0"
     inkscape:window-maximized="1" />
  <metadata
     id="metadata4244">
    <rdf:RDF>
      <cc:Work
         rdf:about="">
        <dc:format>image/svg+xml</dc:format>
        <dc:type
           rdf:resource="http://purl.org/dc/dcmitype/StillImage" />
        <dc:title></dc:title>
      </cc:Work>
    </rdf:RDF>
  </metadata>
  <g
     inkscape:label="Layer 1"
     inkscape:groupmode="layer"
     id="layer1"
     transform="translate(-28.913872,-68.339712)">
    <g
       inkscape:export-ydpi="86.875999"
       inkscape:export-xdpi="86.875999"
       inkscape:export-filename="/home/marcos/Pictures/landingpage.png"
       id="g4100"
       transform="translate(-50.766981,-1751.1574)">
      <path
         style="fill:#ffffff;fill-opacity:1;stroke:#ffffff;stroke-width:3.00457644;stroke-miterlimit:4;stroke-dasharray:none;stroke-opacity:1"
         d="m 109.3598,1820.9994 c -0.21036,0 -0.36826,0.081 -0.43894,0.3049 -0.0991,0.3132 -0.31379,0.6754 -0.44378,1.3453 -0.40184,2.6179 0.20443,0.7815 0.20443,0.8963 0,0.072 -0.42743,0.1336 -0.29233,0.2681 -0.89734,5.0934 -3.69903,14.3481 -3.69903,14.3481 0,0 -9.467651,-1.8621 -9.844601,-1.4684 -0.86705,0.9054 -6.54384,16.1738 -6.54384,16.1738 0,0 6.3607,0.552 6.6697,0.1888 0.43193,-0.5078 2.35507,-5.9728 2.35507,-5.9728 l -1.51075,6.5847 16.019801,-0.5592 -1.7483,-5.203 c 0.0353,0.014 0.0598,0.028 0.0672,0.042 0.47665,0.8798 1.68115,5.162 1.68115,5.162 0,0 6.31168,2.2171 6.13442,1.3363 -1.00051,-4.9712 -5.22139,-25.5455 -5.22139,-25.5455 l 2.011,-0.6483 c 0,0 0.30341,-1.7115 0.33547,-1.7828 0.10347,-0.083 0.32457,2.0202 0.39458,1.4994 0.0771,-0.5741 -0.11134,-3.1921 -0.20091,-3.2817 -0.0468,-0.046 -0.15902,-0.08 -0.30281,-0.1004 -0.075,-0.3237 -0.16545,-0.6293 -0.25985,-0.8669 0.0963,-0.09 0.15657,-0.1707 0.15657,-0.2209 0,-0.2661 -0.898,-1.3957 -1.11451,-1.4021 -0.2263,-0.01 -1.12484,0.8571 -1.12484,1.0813 0,0.02 9.6e-4,0.039 0.004,0.057 -0.39458,0.038 -0.73106,0.078 -0.99035,0.113 -0.0756,-0.01 -0.15212,-0.012 -0.23049,-0.012 -0.0548,0 -0.11038,0.01 -0.16596,0.014 l -0.0372,-0.521 c 0.0236,-0.1008 0.0334,-0.2198 0.0235,-0.3501 -0.0313,-0.4098 -0.004,-0.4521 0.31807,-0.489 0.34049,-0.039 0.351,-0.023 0.31572,0.4651 -0.0625,0.8655 0.41173,1.0285 0.56803,0.1953 0.0489,-0.2609 0.13579,-0.4075 0.21316,-0.3596 0.0725,0.044 0.0605,-0.05 -0.0272,-0.2144 -0.0868,-0.1621 -0.14842,-0.3085 -0.13685,-0.3258 0.14743,-0.218 -0.10344,-0.286 -0.94315,-0.2541 l -0.75233,0.028 c -0.53224,-0.2556 -0.90277,-0.3429 -1.4425,-0.5243 z m 4.4043,1.8688 c 0.0574,0 0.10387,0.061 0.18167,0.1635 0.0429,0.057 0.075,0.1034 0.10188,0.1464 -0.066,0 -0.13756,-0.01 -0.21315,-0.01 -0.006,0 -0.01,0 -0.0159,-0.01 -0.0848,-0.033 -0.13329,-0.028 -0.13216,0.01 -0.10656,0 -0.21762,0 -0.33379,0.011 0.015,-0.014 0.0299,-0.026 0.0448,-0.04 0.20071,-0.1923 0.29277,-0.2773 0.36665,-0.273 z m -29.100041,31.142 c -10e-6,0.2984 0.007,0.5966 0.0214,0.8946 0.0292,0.5029 0.079,1.0045 0.14882,1.5034 -0.0842,0 -0.17876,0.014 -0.29599,0.037 -0.35661,0.068 -1.25991,0.4068 -2.0072,0.7532 -1.1725,0.5436 -1.34554,0.6988 -1.2631,1.1321 0.0827,0.4348 0.32189,0.5211 1.78326,0.6458 1.28576,0.1094 1.955,0.1354 2.30389,0.013 0.13235,0.4966 0.28513,0.9877 0.45798,1.4722 0.4373,1.1894 0.99444,2.3328 1.66308,3.413 0.3341,0.5398 0.69541,1.0628 1.08258,1.5671 0.33958,0.4364 0.69827,0.8581 1.07508,1.2638 -0.14207,0.1007 -0.27235,0.2542 -0.39905,0.4631 -0.27031,0.4457 -0.95767,1.7772 -1.52717,2.9591 -1.36117,2.8249 -0.62365,3.1597 2.25883,1.0257 1.23074,-0.9111 1.94891,-1.5769 2.22127,-2.1368 0.66955,0.5162 1.3731,0.9881 2.10602,1.4127 0.26241,0.1492 0.52836,0.2922 0.79763,0.4291 0.57069,0.2898 1.15574,0.5514 1.75298,0.7837 0.59714,0.2323 1.20569,0.435 1.8234,0.6075 0.16015,0.039 0.3208,0.075 0.48191,0.1094 -0.002,0.017 -0.006,0.033 -0.008,0.051 v 0 c -0.0472,0.4001 -0.10347,1.5569 -0.12511,2.5708 -0.0516,2.4232 0.57437,2.4224 1.917541,0 0.54612,-0.9861 0.83671,-1.6669 0.87367,-2.1451 0.21477,0.031 0.43006,0.058 0.64575,0.081 1.2813,0.097 2.5692,0.067 3.84445,-0.089 1.27527,-0.156 2.53148,-0.4372 3.74985,-0.8395 0.0951,-0.036 0.18996,-0.072 0.2845,-0.1097 0.0259,0.2379 0.18822,0.5318 0.45444,0.9412 0.70574,1.0852 0.99441,1.4267 1.83443,2.1699 v 2e-4 c 0.2713,0.24 0.56302,0.3781 0.6481,0.307 0.0851,-0.071 0.31026,-0.1826 0.50022,-0.2476 0.42579,-0.1458 0.12477,-3.8122 -0.36055,-4.3916 -0.0324,-0.039 -0.0659,-0.072 -0.1014,-0.1012 0.0823,-0.041 0.1643,-0.082 0.24599,-0.1242 0.26244,-0.1491 0.52127,-0.3043 0.77626,-0.4655 0.54032,-0.3415 1.06292,-0.7093 1.5659,-1.1023 0.50302,-0.3929 0.98577,-0.8102 1.44643,-1.2506 0.4606,-0.4405 0.89853,-0.9033 1.31216,-1.3868 0.14599,-0.182 0.28857,-0.3666 0.42767,-0.5537 0.18161,0.1621 0.83878,0.4379 1.58188,0.6563 3.56212,1.0466 4.12037,1.0773 4.49864,0.2479 0.44002,-0.9649 -0.7204,-3.1293 -2.39921,-4.4749 -0.5707,-0.4577 -0.86549,-0.6901 -1.10676,-0.6927 l 0.007,-0.014 c 0.25003,-0.5823 0.47032,-1.1764 0.66007,-1.7803 0.18975,-0.604 0.34871,-1.2168 0.47627,-1.8363 0.12759,-0.6194 0.22364,-1.2448 0.28778,-1.8736 0.0641,-0.629 0.0962,-1.2608 0.0962,-1.8929 h -19.26028 z m -1.1706,0.1094 c -0.52101,0 -2.11543,0.6503 -2.08631,0.8725 0.0139,0.1058 0.0138,0.2392 0,0.2965 -0.0138,0.057 0.12082,0.1636 0.29904,0.2361 0.55188,0.2246 0.78248,0.2815 1.46544,0.3615 0.75998,0.089 0.83013,-0.014 0.7319,-1.0755 -0.0444,-0.4803 -0.1163,-0.6334 -0.32088,-0.6826 -0.0244,-0.01 -0.0544,-0.01 -0.0892,-0.01 z m 40.897451,0.025 c -0.0723,0 -0.13458,0.01 -0.18498,0.023 -0.42265,0.1154 -0.56245,0.4387 -0.62463,1.4411 -0.13738,2.2156 0.0147,2.4256 1.59079,2.1924 1.4164,-0.2097 1.89294,-0.3428 3.02735,-0.8451 0.36637,-0.1621 0.63979,-0.3917 0.60748,-0.51 -0.0323,-0.1184 -0.0407,-0.3962 -0.0185,-0.6171 0.0465,-0.4644 -3.31297,-1.7124 -4.39747,-1.6845 z m -0.53966,4.1858 c -0.34035,-0.016 -0.49309,0.1696 -0.75982,0.7252 -0.22492,0.4686 -0.4143,1.1727 -0.42064,1.5646 -0.014,0.8653 0.3661,0.9798 3.14893,0.9496 1.7599,-0.019 2.05409,-0.1012 2.1917,-0.6143 0.13716,-0.5112 -0.0564,-0.7124 -1.41121,-1.467 -0.86352,-0.481 -1.91416,-0.9669 -2.33489,-1.0797 -0.16629,-0.044 -0.30062,-0.072 -0.41407,-0.078 z m -39.605941,1.2814 c -0.0196,0 -0.0411,3e-4 -0.0643,0 -0.0232,0 -0.0481,0.01 -0.0746,0.012 -0.0531,0.011 -0.11268,0.028 -0.17747,0.05 -0.0648,0.022 -0.13468,0.049 -0.20889,0.081 -0.14844,0.064 -0.31346,0.1445 -0.48615,0.2373 -0.0863,0.046 -0.17457,0.096 -0.26359,0.1475 -0.089,0.051 -0.17905,0.1053 -0.26854,0.1605 -0.0895,0.055 -0.1785,0.1118 -0.26619,0.1692 -0.26305,0.1724 -0.51305,0.3515 -0.71945,0.5171 -0.0688,0.055 -0.13283,0.1088 -0.19085,0.1603 -0.058,0.051 -0.10994,0.1009 -0.15491,0.1472 -0.0675,0.07 -0.11912,0.1326 -0.15094,0.1863 -0.0106,0.018 -0.019,0.035 -0.0251,0.051 -0.006,0.015 -0.01,0.03 -0.011,0.044 -9.6e-4,0.014 -4e-5,0.026 0.004,0.037 0.0136,0.04 0.0262,0.082 0.0378,0.1244 0.0231,0.085 0.0411,0.1724 0.0498,0.2415 0.005,0.035 0.006,0.065 0.006,0.088 -3.9e-4,0.012 0.003,0.023 0.01,0.036 0.0136,0.024 0.041,0.05 0.0791,0.074 0.0381,0.025 0.0869,0.05 0.14365,0.072 0.0284,0.012 0.0589,0.022 0.0908,0.032 0.032,0.011 0.0654,0.02 0.10023,0.029 0.0347,0.01 0.0708,0.016 0.10774,0.023 0.11436,0.021 0.22016,0.041 0.31994,0.057 0.0998,0.016 0.1935,0.031 0.28356,0.043 0.2702,0.036 0.50773,0.052 0.7779,0.05 0.0901,0 0.1838,0 0.28357,-0.01 0.19954,-0.01 0.42328,-0.025 0.69082,-0.048 0.0744,-0.01 0.14447,-0.014 0.21032,-0.02 0.0658,-0.01 0.12742,-0.015 0.18496,-0.024 0.0575,-0.01 0.11106,-0.018 0.16057,-0.03 0.0495,-0.011 0.0951,-0.023 0.13684,-0.038 0.0417,-0.014 0.0796,-0.03 0.11384,-0.047 0.0514,-0.026 0.0945,-0.057 0.12981,-0.093 0.0118,-0.012 0.0226,-0.024 0.0326,-0.039 0.0401,-0.053 0.0667,-0.117 0.0807,-0.1935 0.007,-0.039 0.0108,-0.079 0.0118,-0.1246 9.1e-4,-0.045 -9.7e-4,-0.094 -0.007,-0.1463 -0.005,-0.052 -0.0129,-0.1088 -0.0234,-0.1694 -0.0105,-0.061 -0.0239,-0.1257 -0.0397,-0.1951 -0.0159,-0.07 -0.0343,-0.1432 -0.0551,-0.2221 -0.0418,-0.1576 -0.0934,-0.3348 -0.15375,-0.534 -0.0546,-0.1802 -0.10545,-0.3285 -0.1561,-0.4499 -0.0254,-0.061 -0.0506,-0.1149 -0.0763,-0.1628 -0.0257,-0.047 -0.0519,-0.09 -0.0789,-0.1255 -0.0135,-0.018 -0.0271,-0.035 -0.041,-0.05 -0.014,-0.016 -0.0282,-0.03 -0.0428,-0.043 -0.0146,-0.013 -0.0295,-0.024 -0.0448,-0.035 -0.0152,-0.011 -0.0308,-0.019 -0.0469,-0.028 -0.0161,-0.01 -0.0327,-0.015 -0.0498,-0.021 -0.0512,-0.018 -0.10672,-0.027 -0.16831,-0.03 z m 1.72739,4.2824 c -0.16288,0.01 -0.3441,0.1825 -0.70256,0.5281 -1.02797,0.9914 -1.66039,2.4863 -1.30769,3.0905 0.30321,0.5196 0.67131,0.4632 2.96679,-0.4539 0.54308,-0.217 1.00872,-0.4755 1.03469,-0.5745 0.0616,-0.2341 -0.67042,-1.3537 -1.39829,-2.1383 -0.28545,-0.3078 -0.43006,-0.4615 -0.59294,-0.4519 z m 33.516991,2.8006 c -0.2629,0 -0.50458,0.2037 -0.91969,0.7479 -1.12926,1.4795 -1.12102,1.6966 0.0859,2.2693 1.0847,0.5146 1.47871,0.6443 2.50342,0.8235 v 2e-4 c 0.33095,0.058 0.62833,0.025 0.661,-0.072 0.0327,-0.098 0.15658,-0.2948 0.27512,-0.4384 0.26566,-0.3219 -1.75308,-3.0731 -2.41799,-3.2953 -0.0653,-0.022 -0.12711,-0.034 -0.18778,-0.035 z m -2.76843,2.7013 c -0.11988,0 -0.28146,0.072 -0.53849,0.188 -0.87397,0.3918 -1.86848,1.058 -1.89968,1.2725 -0.0131,0.091 0.28018,0.4663 0.65161,0.8349 1.56995,1.5583 1.85347,1.7334 2.28488,1.4115 0.50184,-0.3744 0.5035,-1.8266 0.004,-3.0026 -0.21793,-0.5128 -0.30208,-0.7063 -0.50186,-0.7043 z m -24.247641,1.0537 c -0.17871,0 -0.25385,0.1714 -0.44882,0.63 -0.44731,1.0522 -0.44585,2.3511 0.003,2.6861 0.38594,0.2879 0.63965,0.1313 2.04405,-1.2626 0.33228,-0.3298 0.59461,-0.666 0.58284,-0.747 -0.0279,-0.1918 -0.91763,-0.7877 -1.69946,-1.1382 -0.22992,-0.1031 -0.37444,-0.1672 -0.48167,-0.1683 z m 3.26488,1.5152 c -0.18173,0 -0.30149,0.059 -0.40772,0.1854 -0.40595,0.4848 -0.65756,3.5517 -0.30141,3.6736 0.15891,0.054 0.3471,0.1475 0.41831,0.207 0.0711,0.06 0.31506,-0.056 0.542,-0.2568 0.70266,-0.6216 0.94433,-0.9072 1.53468,-1.815 0.65685,-1.0099 0.56058,-1.1809 -1.00583,-1.7844 -0.35434,-0.1365 -0.59827,-0.2061 -0.78003,-0.2098 z m 13.966831,1.0328 c -0.1257,0 -0.28762,0.023 -0.50139,0.066 -1.25994,0.2535 -1.35471,0.3699 -0.98915,1.2168 0.32854,0.7611 0.47395,1.0078 0.92413,1.5676 0.14538,0.1807 0.31467,0.2995 0.37604,0.2638 0.0614,-0.036 0.21555,-0.082 0.34248,-0.1023 0.2845,-0.046 0.48991,-2.3933 0.246,-2.8114 -0.0797,-0.1371 -0.18861,-0.2002 -0.39811,-0.2003 z m -4.82047,0.6932 c -0.90071,0.011 -1.74166,0.1265 -1.85932,0.2843 -0.0662,0.089 0.0292,0.6574 0.21175,1.264 0.77186,2.5636 0.97235,2.9138 1.61705,2.8201 0.74998,-0.1089 1.58959,-1.6535 1.73586,-3.1933 0.10208,-1.0741 0.0973,-1.0807 -0.80937,-1.1491 -0.28897,-0.022 -0.59573,-0.03 -0.89597,-0.026 z"
         id="path3842"
         inkscape:connector-curvature="0"
         sodipodi:nodetypes="cccscccccccccccscccccccscsccscccccccccccccccccccccccccccccccccccccscccscccccccccccccccccccccccccsccccccccccccccccccccccccccccccccccccccccccsccccccccccccccccccccccccccccccccccscccccssccccccccccccccccccccsccccccssccccccsccccccccccccccccacccccsa" />
      <g
         id="g4098"
         transform="translate(-45.036855,4.9782479)">
        <path
           style="fill:#e1b53a;fill-opacity:1;stroke:none;stroke-width:0.41501367;stroke-linecap:round;stroke-linejoin:round;stroke-miterlimit:4;stroke-dasharray:none;stroke-opacity:1"
           d="m 141.28557,1832.8172 c 0.36052,-0.3765 9.90976,1.6516 9.90976,1.6516 0,0 1.84978,-14.6299 2.59542,-16.9882 0.21633,-0.6842 1.28663,0 2.12352,0.354 l 0.11798,1.6516 c 0,0 2.70969,-0.407 3.0673,-0.118 0.39865,0.3222 0.97744,3.0168 0.4719,3.1853 l -2.12352,0.7078 c 0,0 3.64404,18.3682 4.60096,23.1228 0.16955,0.8425 -5.42678,1.2977 -5.42678,1.2977 0,0 -1.19575,-3.8775 -1.65162,-4.7189 -0.20572,-0.3797 -12.26924,-0.8258 -12.26924,-0.8258 0,0 -1.59243,4.1153 -2.00555,4.6009 -0.29554,0.3475 -4.57463,-0.7315 -4.71894,-1.1797 -0.21531,-0.6687 4.47953,-11.8751 5.30881,-12.7411 z"
           id="path3844"
           inkscape:connector-curvature="0"
           sodipodi:nodetypes="scsccsscscscsss" />
        <path
           style="fill:none;stroke:#d40125;stroke-width:1.09805703;stroke-linecap:round;stroke-linejoin:round;stroke-miterlimit:4;stroke-dasharray:none;stroke-opacity:1"
           d="m 152.20693,1844.3295 c 0,0 -7.51213,-0.4831 -8.47796,-0.4955 -0.66718,-0.01 -1.87694,5.3806 -1.87694,5.3806"
           id="path3846"
           inkscape:connector-curvature="0"
           sodipodi:nodetypes="csc" />
        <path
           style="fill:none;stroke:#d40125;stroke-width:1.09805703;stroke-linecap:round;stroke-linejoin:round;stroke-miterlimit:4;stroke-dasharray:none;stroke-opacity:1"
           d="m 154.17074,1846.3654 0.53272,2"
           id="path3848"
           inkscape:connector-curvature="0"
           sodipodi:nodetypes="cc" />
        <circle
           r="0.62252051"
           cy="1844.7166"
           cx="153.88089"
           id="circle3850"
           style="opacity:1;fill:#d40125;fill-opacity:1;stroke:none;stroke-width:1.10491288;stroke-linecap:round;stroke-linejoin:round;stroke-miterlimit:4;stroke-dasharray:none;stroke-dashoffset:0;stroke-opacity:1" />
        <path
           inkscape:connector-curvature="0"
           style="fill:#fbdd74;fill-opacity:1;stroke-width:0.15253094"
           d="m 144.16637,1837.0056 c 0.93077,-0.6321 0.91146,-2.2041 -0.0356,-2.8974 -0.94114,-0.6891 -2.52126,-0.4446 -3.01438,0.4662 -0.0764,0.1412 -0.23555,0.2382 -0.3536,0.2157 -0.11804,-0.023 -0.23396,0.06 -0.25759,0.1837 -0.0236,0.1236 -0.14408,0.2054 -0.26768,0.1817 -0.14625,-0.028 -0.25273,0.1036 -0.30492,0.3766 -0.0441,0.2307 -0.16301,0.4757 -0.26425,0.5445 -0.12645,0.086 -0.0379,0.1313 0.28285,0.1451 0.25679,0.011 0.48387,-0.069 0.50461,-0.1771 0.0208,-0.1086 0.19353,-0.1899 0.38397,-0.1808 0.22896,0.011 0.34835,-0.074 0.35247,-0.2502 0.007,-0.3068 0.53664,-1.0289 0.83907,-1.1444 0.11246,-0.043 0.50566,-0.066 0.87379,-0.052 0.59101,0.023 0.71172,0.084 1.03174,0.5221 0.40962,0.5612 0.36892,1.2815 -0.09,1.5931 -0.15762,0.107 -0.24546,0.2809 -0.20186,0.3996 0.0582,0.1584 0.0317,0.1604 -0.1081,0.01 -0.10192,-0.1112 -0.35215,-0.2432 -0.55608,-0.2934 -0.52027,-0.1282 -1.04933,-1.1669 -0.54524,-1.0705 0.0965,0.019 0.27537,0.1659 0.39745,0.3277 0.41689,0.5526 1.06601,0.017 0.67585,-0.5574 -0.40808,-0.6009 -1.62695,-0.2626 -1.77113,0.4916 -0.20754,1.0857 1.40659,1.862 2.42867,1.168 z"
           id="path3852" />
        <path
           id="path3854"
           d="m 148.85894,1837.9806 c 0.93077,-0.6321 0.91146,-2.2041 -0.0356,-2.8974 -0.94114,-0.689 -2.52126,-0.4446 -3.01438,0.4662 -0.0764,0.1412 -0.23555,0.2383 -0.3536,0.2157 -0.11804,-0.023 -0.23396,0.06 -0.25759,0.1837 -0.0236,0.1236 -0.14408,0.2054 -0.26768,0.1818 -0.14625,-0.028 -0.25273,0.1035 -0.30492,0.3765 -0.0441,0.2307 -0.16301,0.4757 -0.26425,0.5445 -0.12645,0.086 -0.0379,0.1313 0.28285,0.1451 0.2568,0.011 0.48387,-0.069 0.50461,-0.1771 0.0207,-0.1086 0.19353,-0.1899 0.38397,-0.1808 0.22896,0.011 0.34835,-0.074 0.35247,-0.2502 0.007,-0.3068 0.53664,-1.0289 0.83907,-1.1443 0.11246,-0.043 0.50566,-0.067 0.87379,-0.053 0.59101,0.023 0.71172,0.084 1.03174,0.5221 0.40962,0.5612 0.36892,1.2815 -0.09,1.5931 -0.15762,0.1071 -0.24546,0.2809 -0.20186,0.3996 0.0582,0.1584 0.0317,0.1604 -0.1081,0.01 -0.10192,-0.1111 -0.35215,-0.2432 -0.55608,-0.2934 -0.52027,-0.1281 -1.04933,-1.1668 -0.54524,-1.0705 0.0965,0.018 0.27537,0.166 0.39745,0.3278 0.41689,0.5525 1.06601,0.017 0.67585,-0.5574 -0.40808,-0.601 -1.62695,-0.2627 -1.77112,0.4915 -0.20755,1.0858 1.40658,1.862 2.42866,1.168 z"
           style="fill:#fbdd74;fill-opacity:1;stroke-width:0.15253094"
           inkscape:connector-curvature="0" />
        <path
           inkscape:connector-curvature="0"
           style="fill:#fbdd74;fill-opacity:1;stroke-width:0.15253094"
           d="m 154.02766,1838.1494 c 0.79556,-0.7956 0.48143,-2.3361 -0.57896,-2.8392 -1.05377,-0.5001 -2.5599,0.037 -2.87324,1.0239 -0.0486,0.153 -0.18663,0.2782 -0.30681,0.2782 -0.12019,0 -0.21852,0.103 -0.21852,0.2288 0,0.1259 -0.10296,0.2288 -0.2288,0.2288 -0.1489,0 -0.22879,0.1491 -0.22879,0.4271 0,0.2349 -0.0708,0.4979 -0.15733,0.5844 -0.10808,0.1081 -0.0126,0.1361 0.30506,0.09 0.25432,-0.037 0.46239,-0.1583 0.46239,-0.2688 0,-0.1105 0.15444,-0.2228 0.3432,-0.2496 0.22694,-0.032 0.3283,-0.1379 0.29922,-0.3119 -0.0506,-0.3027 0.33392,-1.1114 0.6093,-1.2816 0.10239,-0.063 0.48417,-0.1603 0.84839,-0.2156 0.58475,-0.089 0.71478,-0.051 1.11143,0.3192 0.5077,0.4742 0.60295,1.1894 0.21068,1.5816 -0.13472,0.1348 -0.18836,0.322 -0.12325,0.4304 0.0869,0.1447 0.0612,0.1516 -0.10467,0.028 -0.12097,-0.09 -0.39154,-0.1726 -0.60127,-0.1837 -0.53508,-0.028 -1.24976,-0.9491 -0.73654,-0.9491 0.0983,0 0.30162,0.1113 0.45191,0.2473 0.51322,0.4645 1.05029,-0.1833 0.55918,-0.6744 -0.51365,-0.5136 -1.64733,0.047 -1.64733,0.8154 0,1.1054 1.73116,1.5647 2.60475,0.6912 z"
           id="path3856" />
        <path
           id="path3858"
           d="m 160.65032,1846.772 c 0.87978,-0.5974 0.86152,-2.0833 -0.0337,-2.7387 -0.88958,-0.6512 -2.38314,-0.4202 -2.84925,0.4407 -0.0722,0.1335 -0.22264,0.2252 -0.33422,0.2039 -0.11158,-0.021 -0.22115,0.057 -0.24348,0.1736 -0.0223,0.1169 -0.13619,0.1942 -0.25302,0.1718 -0.13824,-0.026 -0.23888,0.098 -0.28821,0.3559 -0.0417,0.2181 -0.15409,0.4497 -0.24978,0.5147 -0.11952,0.081 -0.0358,0.1241 0.26735,0.1372 0.24273,0.011 0.45737,-0.065 0.47698,-0.1674 0.0196,-0.1026 0.18292,-0.1795 0.36292,-0.1709 0.21642,0.01 0.32927,-0.07 0.33317,-0.2365 0.007,-0.29 0.50724,-0.9725 0.7931,-1.0817 0.1063,-0.041 0.47796,-0.063 0.82592,-0.05 0.55864,0.021 0.67274,0.079 0.97523,0.4936 0.38718,0.5304 0.3487,1.2112 -0.0851,1.5058 -0.14899,0.1012 -0.23202,0.2655 -0.19081,0.3777 0.055,0.1497 0.0299,0.1516 -0.10217,0.01 -0.0963,-0.1051 -0.33286,-0.2299 -0.52562,-0.2773 -0.49177,-0.1212 -0.99185,-1.103 -0.51537,-1.0119 0.0912,0.017 0.26028,0.1569 0.37568,0.3098 0.39404,0.5223 1.00761,0.016 0.63882,-0.5269 -0.38572,-0.568 -1.53782,-0.2483 -1.6741,0.4647 -0.19617,1.0262 1.32953,1.7599 2.29562,1.1039 z"
           style="fill:#fbdd74;fill-opacity:1;stroke-width:0.1441749"
           inkscape:connector-curvature="0" />
        <path
           inkscape:connector-curvature="0"
           style="fill:#fbdd74;fill-opacity:1;stroke-width:0.15253094"
           d="m 159.24351,1839.5755 c 0.93077,-0.6321 0.91146,-2.2041 -0.0356,-2.8974 -0.94114,-0.689 -2.52125,-0.4446 -3.01438,0.4662 -0.0764,0.1412 -0.23555,0.2383 -0.3536,0.2157 -0.11804,-0.023 -0.23396,0.06 -0.25759,0.1837 -0.0236,0.1236 -0.14408,0.2054 -0.26768,0.1818 -0.14625,-0.028 -0.25273,0.1035 -0.30492,0.3765 -0.0441,0.2308 -0.16301,0.4758 -0.26425,0.5445 -0.12644,0.086 -0.0379,0.1313 0.28285,0.1451 0.25679,0.011 0.48387,-0.069 0.50461,-0.1771 0.0207,-0.1085 0.19353,-0.1898 0.38397,-0.1808 0.22896,0.011 0.34835,-0.074 0.35247,-0.2502 0.007,-0.3068 0.53664,-1.0289 0.83907,-1.1443 0.11246,-0.043 0.50566,-0.067 0.87379,-0.053 0.59101,0.023 0.71172,0.084 1.03174,0.5221 0.40962,0.5612 0.36892,1.2815 -0.09,1.5931 -0.15762,0.1071 -0.24546,0.2809 -0.20186,0.3996 0.0582,0.1585 0.0317,0.1604 -0.10809,0.01 -0.10193,-0.1111 -0.35216,-0.2431 -0.55609,-0.2934 -0.52027,-0.1281 -1.04933,-1.1668 -0.54524,-1.0705 0.0965,0.018 0.27537,0.166 0.39745,0.3278 0.41689,0.5525 1.06601,0.017 0.67585,-0.5574 -0.40808,-0.601 -1.62695,-0.2627 -1.77113,0.4915 -0.20754,1.0858 1.40659,1.862 2.42867,1.168 z"
           id="path3860" />
        <g
           id="g3902"
           transform="matrix(0.08784446,0,0,0.08784446,134.15165,1738.8669)"
           style="fill:#fbdd74;fill-opacity:1">
          <path
             inkscape:connector-curvature="0"
             style="fill:#fbdd74;fill-opacity:1;stroke-width:0.67212105"
             d="m 246.09425,1087.501 c -0.17244,-0.8317 -0.50242,-3.2514 -0.73329,-5.377 -0.55181,-5.0803 0.76311,-5.1929 4.02789,-0.345 2.82189,4.1903 2.96973,5.6954 0.64622,6.5788 -2.64039,1.0039 -3.59825,0.7956 -3.94082,-0.8568 z"
             id="path3862" />
          <path
             inkscape:connector-curvature="0"
             style="fill:#fbdd74;fill-opacity:1;stroke-width:0.67212105"
             d="m 236.0166,1087.7537 c -0.25354,-0.4102 0.0489,-2.5631 0.67207,-4.7841 1.53285,-5.463 2.94938,-5.4583 4.99683,0.017 0.83397,2.2301 1.37624,4.1947 1.20504,4.3659 -0.76947,0.7695 -6.44178,1.101 -6.87394,0.4017 z"
             id="path3864" />
          <path
             inkscape:connector-curvature="0"
             style="fill:#fbdd74;fill-opacity:1;stroke-width:0.67212105"
             d="m 229.72785,1085.6444 c -2.82866,-1.2664 -3.48071,-2.2032 -2.11926,-3.0446 0.39487,-0.244 0.54956,-0.8825 0.34376,-1.4188 -0.20858,-0.5436 -0.0807,-0.7937 0.28901,-0.5652 0.36476,0.2254 1.37222,-0.4144 2.23881,-1.4219 2.41719,-2.8102 3.80381,-1.841 3.80381,2.6587 0,4.7378 -0.8546,5.449 -4.55613,3.7918 z"
             id="path3866" />
          <path
             inkscape:connector-curvature="0"
             style="fill:#fbdd74;fill-opacity:1;stroke-width:0.67212105"
             d="m 254.33437,1082.7962 c -3.75887,-5.0778 -4.13742,-5.9512 -3.05035,-7.0383 1.26454,-1.2645 5.37019,-0.6726 8.48875,1.224 2.17507,1.3227 2.18115,1.3413 1.03094,3.1523 -1.4666,2.3092 -3.7581,4.8464 -4.37712,4.8464 -0.26136,0 -1.20285,-0.983 -2.09222,-2.1844 z"
             id="path3868" />
          <path
             inkscape:connector-curvature="0"
             style="fill:#fbdd74;fill-opacity:1;stroke-width:0.67212105"
             d="m 220.89034,1081.1932 c -0.76616,-0.974 -1.39302,-2.0112 -1.39302,-2.3048 0,-0.2936 1.33265,-1.4333 2.96146,-2.5325 7.24325,-4.8884 8.76179,-2.859 3.31013,4.4239 -1.98175,2.6474 -3.05012,2.7379 -4.87857,0.4134 z"
             id="path3870" />
          <path
             inkscape:connector-curvature="0"
             style="fill:#fbdd74;fill-opacity:1;stroke-width:0.67212105"
             d="m 228.23489,1079.3498 c 0,-0.1396 0.52929,-0.6689 1.17621,-1.1762 1.06602,-0.836 1.0898,-0.8123 0.25376,0.2538 -0.87803,1.1195 -1.42997,1.4756 -1.42997,0.9224 z"
             id="path3872" />
          <path
             inkscape:connector-curvature="0"
             style="fill:#fbdd74;fill-opacity:1;stroke-width:0.67212105"
             d="m 238.65277,1075.9341 c -0.36967,-0.1351 -1.49833,-0.4277 -2.50813,-0.6502 -3.11485,-0.6864 -6.41933,-4.1721 -7.64685,-8.0662 -1.39349,-4.4207 -0.83324,-10.232 1.24058,-12.8685 1.92423,-2.4462 6.26535,-4.3002 9.92258,-4.2377 l 3.02454,0.052 -3.02454,0.933 c -3.08379,0.9514 -6.38761,3.8917 -5.67268,5.0484 0.2176,0.3521 0.0216,0.5571 -0.4355,0.4555 -1.10605,-0.2458 -2.13997,4.5659 -1.6062,7.4749 0.87323,4.7592 4.12444,7.4631 8.97367,7.4631 7.16067,0 10.34222,-9.6754 4.73345,-14.3948 -2.17503,-1.8302 -4.54614,-2.1979 -6.70905,-1.0403 -2.39446,1.2815 -1.56904,2.6648 1.59006,2.6648 3.45492,0 4.50322,0.8807 4.50322,3.7831 0,5.6853 -7.85816,6.5571 -10.42106,1.1562 -1.05229,-2.2175 -1.05551,-2.5967 -0.0446,-5.2439 1.7459,-4.5715 3.80207,-6.0624 8.32345,-6.0349 7.24515,0.044 10.87278,3.6006 10.87723,10.6641 0.005,7.7322 -4.3297,12.813 -11.08749,12.9962 -1.84833,0.05 -3.66306,-0.019 -4.03272,-0.1545 z"
             id="path3874" />
          <path
             inkscape:connector-curvature="0"
             style="fill:#fbdd74;fill-opacity:1;stroke-width:0.67212105"
             d="m 258.59462,1073.0504 c -4.59961,-4.1928 -4.11002,-5.33 1.79465,-4.1683 5.24036,1.031 6.07289,1.944 4.59618,5.0407 -0.60852,1.2761 -1.50737,2.3202 -1.99745,2.3202 -0.49008,0 -2.4671,-1.4367 -4.39338,-3.1926 z"
             id="path3876" />
          <path
             inkscape:connector-curvature="0"
             style="fill:#fbdd74;fill-opacity:1;stroke-width:0.67212105"
             d="m 215.8198,1073.1638 c -0.62821,-1.3238 -0.9415,-2.6093 -0.69619,-2.8565 0.65018,-0.6552 9.32454,-2.7154 9.9187,-2.3557 1.16697,0.7066 0.31486,2.2946 -2.61508,4.8736 -3.8518,3.3905 -5.12818,3.4559 -6.60743,0.3386 z"
             id="path3878" />
          <path
             inkscape:connector-curvature="0"
             style="fill:#fbdd74;fill-opacity:1;stroke-width:0.67212105"
             d="m 227.79917,1071.0273 c 0.24425,-0.3952 0.0944,-0.8351 -0.33303,-0.9776 -0.42742,-0.1425 -0.65515,-0.625 -0.50607,-1.0722 0.17215,-0.5165 0.5718,-0.3317 1.09524,0.5065 0.60812,0.9738 0.62436,1.4432 0.062,1.7908 -0.4456,0.2754 -0.57774,0.1726 -0.31811,-0.2475 z"
             id="path3880" />
          <path
             inkscape:connector-curvature="0"
             style="fill:#fbdd74;fill-opacity:1;stroke-width:0.67212105"
             d="m 214.44876,1065.4438 c -0.25403,-1.5036 -0.33647,-2.8592 -0.18319,-3.0125 0.15327,-0.1533 2.52732,-0.3597 5.27567,-0.4588 4.46976,-0.1611 4.99698,-0.05 4.99698,1.0569 0,0.8143 -1.2632,1.9052 -3.69666,3.1924 -5.02772,2.6595 -5.8285,2.5621 -6.3928,-0.778 z"
             id="path3882" />
          <path
             inkscape:connector-curvature="0"
             style="fill:#fbdd74;fill-opacity:1;stroke-width:0.67212105"
             d="m 262.00897,1066.7098 c -4.21898,-1.1809 -4.87287,-1.5688 -4.87287,-2.8909 0,-1.3177 0.5948,-1.6764 4.33888,-2.6169 2.38639,-0.5995 5.22605,-1.0899 6.31035,-1.0899 1.71442,0 2.02802,0.3015 2.40523,2.3122 0.23857,1.2717 0.23945,3.0864 0.002,4.0327 -0.52443,2.0895 -1.51223,2.12 -8.18353,0.2528 z"
             id="path3884" />
          <path
             inkscape:connector-curvature="0"
             style="fill:#fbdd74;fill-opacity:1;stroke-width:0.67212105"
             d="m 256.29596,1058.9586 c -1.01658,-0.154 -1.84833,-0.5377 -1.84833,-0.8525 0,-0.3149 -0.16708,-1.008 -0.37129,-1.5401 -0.45768,-1.1927 8.0764,-7.2117 10.2219,-7.2094 1.12434,10e-4 1.68918,0.7062 2.52045,3.1458 1.83731,5.3922 1.60215,6.0145 -2.45727,6.5021 -3.64816,0.4381 -4.91761,0.4309 -8.06546,-0.046 z"
             id="path3886" />
          <path
             inkscape:connector-curvature="0"
             style="fill:#fbdd74;fill-opacity:1;stroke-width:0.67212105"
             d="m 215.89118,1058.2896 c -1.02864,-0.2644 -1.18386,-0.7529 -0.86456,-2.7205 0.59958,-3.6948 1.3751,-4.0528 4.76585,-2.2006 7.0185,3.834 7.37557,5.4477 1.17747,5.3214 -2.10376,-0.043 -4.38921,-0.223 -5.07876,-0.4003 z"
             id="path3888" />
          <path
             inkscape:connector-curvature="0"
             style="fill:#fbdd74;fill-opacity:1;stroke-width:0.67212105"
             d="m 224.37019,1050.0103 c -1.94075,-1.113 -3.52863,-2.4543 -3.52863,-2.9807 0,-0.5265 0.73781,-1.8058 1.63958,-2.843 2.0763,-2.3881 3.23174,-1.7976 6.22288,3.1802 3.17828,5.2892 1.77354,6.1461 -4.33383,2.6435 z"
             id="path3890" />
          <path
             inkscape:connector-curvature="0"
             style="fill:#fbdd74;fill-opacity:1;stroke-width:0.67212105"
             d="m 250.76162,1051.3917 c -0.80827,-1.3078 4.32099,-9.4269 5.95546,-9.4269 0.47125,0 1.59006,0.7815 2.48625,1.7366 l 1.62943,1.7367 -2.01636,1.6406 c -1.109,0.9024 -2.34721,1.9034 -2.75158,2.2246 -1.87082,1.4858 -4.93089,2.6908 -5.3032,2.0884 z"
             id="path3892" />
          <path
             inkscape:connector-curvature="0"
             style="fill:#fbdd74;fill-opacity:1;stroke-width:0.67212105"
             d="m 258.8164,1049.3581 c 1.109,-0.7345 2.31882,-1.3362 2.68848,-1.3373 0.36967,-10e-4 -0.31816,0.6019 -1.52852,1.3398 -2.85352,1.7398 -3.7877,1.7378 -1.15996,0 z"
             id="path3894" />
          <path
             inkscape:connector-curvature="0"
             style="fill:#fbdd74;fill-opacity:1;stroke-width:0.67212105"
             d="m 246.83024,1048.91 c -0.57208,-0.5721 -0.46302,-5.4215 0.17132,-7.6174 0.36423,-1.2608 0.87928,-1.6353 2.0633,-1.5 3.27566,0.3743 3.42363,1.3076 0.8834,5.5719 -2.57671,4.3255 -2.46501,4.1985 -3.11802,3.5455 z"
             id="path3896" />
          <path
             inkscape:connector-curvature="0"
             style="fill:#fbdd74;fill-opacity:1;stroke-width:0.67212105"
             d="m 232.65605,1045.8765 c -2.84613,-3.3251 -3.0171,-4.7612 -0.69287,-5.8202 2.97292,-1.3546 3.45023,-0.9846 4.59151,3.5589 1.34324,5.3474 1.35426,5.0708 -0.20197,5.0708 -0.71053,0 -2.37403,-1.2643 -3.69667,-2.8095 z"
             id="path3898" />
          <path
             inkscape:connector-curvature="0"
             style="fill:#fbdd74;fill-opacity:1;stroke-width:0.67212105"
             d="m 240.26463,1044.4852 c -1.34538,-5.4278 -0.60566,-6.8957 3.09298,-6.1374 1.109,0.2274 2.06528,0.4537 2.12506,0.5029 0.0598,0.049 -0.35008,2.1311 -0.91079,4.6263 -0.79494,3.5376 -1.28523,4.5369 -2.22605,4.5369 -0.89639,0 -1.4314,-0.9071 -2.0812,-3.5287 z"
             id="path3900" />
        </g>
        <g
           transform="matrix(0.07596587,0,0,0.07596587,137.02958,1746.6106)"
           id="g3944"
           style="fill:#fbdd74;fill-opacity:1">
          <path
             id="path3904"
             d="m 246.09425,1087.501 c -0.17244,-0.8317 -0.50242,-3.2514 -0.73329,-5.377 -0.55181,-5.0803 0.76311,-5.1929 4.02789,-0.345 2.82189,4.1903 2.96973,5.6954 0.64622,6.5788 -2.64039,1.0039 -3.59825,0.7956 -3.94082,-0.8568 z"
             style="fill:#fbdd74;fill-opacity:1;stroke-width:0.67212105"
             inkscape:connector-curvature="0" />
          <path
             id="path3906"
             d="m 236.0166,1087.7537 c -0.25354,-0.4102 0.0489,-2.5631 0.67207,-4.7841 1.53285,-5.463 2.94938,-5.4583 4.99683,0.017 0.83397,2.2301 1.37624,4.1947 1.20504,4.3659 -0.76947,0.7695 -6.44178,1.101 -6.87394,0.4017 z"
             style="fill:#fbdd74;fill-opacity:1;stroke-width:0.67212105"
             inkscape:connector-curvature="0" />
          <path
             id="path3908"
             d="m 229.72785,1085.6444 c -2.82866,-1.2664 -3.48071,-2.2032 -2.11926,-3.0446 0.39487,-0.244 0.54956,-0.8825 0.34376,-1.4188 -0.20858,-0.5436 -0.0807,-0.7937 0.28901,-0.5652 0.36476,0.2254 1.37222,-0.4144 2.23881,-1.4219 2.41719,-2.8102 3.80381,-1.841 3.80381,2.6587 0,4.7378 -0.8546,5.449 -4.55613,3.7918 z"
             style="fill:#fbdd74;fill-opacity:1;stroke-width:0.67212105"
             inkscape:connector-curvature="0" />
          <path
             id="path3910"
             d="m 254.33437,1082.7962 c -3.75887,-5.0778 -4.13742,-5.9512 -3.05035,-7.0383 1.26454,-1.2645 5.37019,-0.6726 8.48875,1.224 2.17507,1.3227 2.18115,1.3413 1.03094,3.1523 -1.4666,2.3092 -3.7581,4.8464 -4.37712,4.8464 -0.26136,0 -1.20285,-0.983 -2.09222,-2.1844 z"
             style="fill:#fbdd74;fill-opacity:1;stroke-width:0.67212105"
             inkscape:connector-curvature="0" />
          <path
             id="path3912"
             d="m 220.89034,1081.1932 c -0.76616,-0.974 -1.39302,-2.0112 -1.39302,-2.3048 0,-0.2936 1.33265,-1.4333 2.96146,-2.5325 7.24325,-4.8884 8.76179,-2.859 3.31013,4.4239 -1.98175,2.6474 -3.05012,2.7379 -4.87857,0.4134 z"
             style="fill:#fbdd74;fill-opacity:1;stroke-width:0.67212105"
             inkscape:connector-curvature="0" />
          <path
             id="path3914"
             d="m 228.23489,1079.3498 c 0,-0.1396 0.52929,-0.6689 1.17621,-1.1762 1.06602,-0.836 1.0898,-0.8123 0.25376,0.2538 -0.87803,1.1195 -1.42997,1.4756 -1.42997,0.9224 z"
             style="fill:#fbdd74;fill-opacity:1;stroke-width:0.67212105"
             inkscape:connector-curvature="0" />
          <path
             id="path3916"
             d="m 238.65277,1075.9341 c -0.36967,-0.1351 -1.49833,-0.4277 -2.50813,-0.6502 -3.11485,-0.6864 -6.41933,-4.1721 -7.64685,-8.0662 -1.39349,-4.4207 -0.83324,-10.232 1.24058,-12.8685 1.92423,-2.4462 6.26535,-4.3002 9.92258,-4.2377 l 3.02454,0.052 -3.02454,0.933 c -3.08379,0.9514 -6.38761,3.8917 -5.67268,5.0484 0.2176,0.3521 0.0216,0.5571 -0.4355,0.4555 -1.10605,-0.2458 -2.13997,4.5659 -1.6062,7.4749 0.87323,4.7592 4.12444,7.4631 8.97367,7.4631 7.16067,0 10.34222,-9.6754 4.73345,-14.3948 -2.17503,-1.8302 -4.54614,-2.1979 -6.70905,-1.0403 -2.39446,1.2815 -1.56904,2.6648 1.59006,2.6648 3.45492,0 4.50322,0.8807 4.50322,3.7831 0,5.6853 -7.85816,6.5571 -10.42106,1.1562 -1.05229,-2.2175 -1.05551,-2.5967 -0.0446,-5.2439 1.7459,-4.5715 3.80207,-6.0624 8.32345,-6.0349 7.24515,0.044 10.87278,3.6006 10.87723,10.6641 0.005,7.7322 -4.3297,12.813 -11.08749,12.9962 -1.84833,0.05 -3.66306,-0.019 -4.03272,-0.1545 z"
             style="fill:#fbdd74;fill-opacity:1;stroke-width:0.67212105"
             inkscape:connector-curvature="0" />
          <path
             id="path3918"
             d="m 258.59462,1073.0504 c -4.59961,-4.1928 -4.11002,-5.33 1.79465,-4.1683 5.24036,1.031 6.07289,1.944 4.59618,5.0407 -0.60852,1.2761 -1.50737,2.3202 -1.99745,2.3202 -0.49008,0 -2.4671,-1.4367 -4.39338,-3.1926 z"
             style="fill:#fbdd74;fill-opacity:1;stroke-width:0.67212105"
             inkscape:connector-curvature="0" />
          <path
             id="path3920"
             d="m 215.8198,1073.1638 c -0.62821,-1.3238 -0.9415,-2.6093 -0.69619,-2.8565 0.65018,-0.6552 9.32454,-2.7154 9.9187,-2.3557 1.16697,0.7066 0.31486,2.2946 -2.61508,4.8736 -3.8518,3.3905 -5.12818,3.4559 -6.60743,0.3386 z"
             style="fill:#fbdd74;fill-opacity:1;stroke-width:0.67212105"
             inkscape:connector-curvature="0" />
          <path
             id="path3922"
             d="m 227.79917,1071.0273 c 0.24425,-0.3952 0.0944,-0.8351 -0.33303,-0.9776 -0.42742,-0.1425 -0.65515,-0.625 -0.50607,-1.0722 0.17215,-0.5165 0.5718,-0.3317 1.09524,0.5065 0.60812,0.9738 0.62436,1.4432 0.062,1.7908 -0.4456,0.2754 -0.57774,0.1726 -0.31811,-0.2475 z"
             style="fill:#fbdd74;fill-opacity:1;stroke-width:0.67212105"
             inkscape:connector-curvature="0" />
          <path
             id="path3924"
             d="m 214.44876,1065.4438 c -0.25403,-1.5036 -0.33647,-2.8592 -0.18319,-3.0125 0.15327,-0.1533 2.52732,-0.3597 5.27567,-0.4588 4.46976,-0.1611 4.99698,-0.05 4.99698,1.0569 0,0.8143 -1.2632,1.9052 -3.69666,3.1924 -5.02772,2.6595 -5.8285,2.5621 -6.3928,-0.778 z"
             style="fill:#fbdd74;fill-opacity:1;stroke-width:0.67212105"
             inkscape:connector-curvature="0" />
          <path
             id="path3926"
             d="m 262.00897,1066.7098 c -4.21898,-1.1809 -4.87287,-1.5688 -4.87287,-2.8909 0,-1.3177 0.5948,-1.6764 4.33888,-2.6169 2.38639,-0.5995 5.22605,-1.0899 6.31035,-1.0899 1.71442,0 2.02802,0.3015 2.40523,2.3122 0.23857,1.2717 0.23945,3.0864 0.002,4.0327 -0.52443,2.0895 -1.51223,2.12 -8.18353,0.2528 z"
             style="fill:#fbdd74;fill-opacity:1;stroke-width:0.67212105"
             inkscape:connector-curvature="0" />
          <path
             id="path3928"
             d="m 256.29596,1058.9586 c -1.01658,-0.154 -1.84833,-0.5377 -1.84833,-0.8525 0,-0.3149 -0.16708,-1.008 -0.37129,-1.5401 -0.45768,-1.1927 8.0764,-7.2117 10.2219,-7.2094 1.12434,10e-4 1.68918,0.7062 2.52045,3.1458 1.83731,5.3922 1.60215,6.0145 -2.45727,6.5021 -3.64816,0.4381 -4.91761,0.4309 -8.06546,-0.046 z"
             style="fill:#fbdd74;fill-opacity:1;stroke-width:0.67212105"
             inkscape:connector-curvature="0" />
          <path
             id="path3930"
             d="m 215.89118,1058.2896 c -1.02864,-0.2644 -1.18386,-0.7529 -0.86456,-2.7205 0.59958,-3.6948 1.3751,-4.0528 4.76585,-2.2006 7.0185,3.834 7.37557,5.4477 1.17747,5.3214 -2.10376,-0.043 -4.38921,-0.223 -5.07876,-0.4003 z"
             style="fill:#fbdd74;fill-opacity:1;stroke-width:0.67212105"
             inkscape:connector-curvature="0" />
          <path
             id="path3932"
             d="m 224.37019,1050.0103 c -1.94075,-1.113 -3.52863,-2.4543 -3.52863,-2.9807 0,-0.5265 0.73781,-1.8058 1.63958,-2.843 2.0763,-2.3881 3.23174,-1.7976 6.22288,3.1802 3.17828,5.2892 1.77354,6.1461 -4.33383,2.6435 z"
             style="fill:#fbdd74;fill-opacity:1;stroke-width:0.67212105"
             inkscape:connector-curvature="0" />
          <path
             id="path3934"
             d="m 250.76162,1051.3917 c -0.80827,-1.3078 4.32099,-9.4269 5.95546,-9.4269 0.47125,0 1.59006,0.7815 2.48625,1.7366 l 1.62943,1.7367 -2.01636,1.6406 c -1.109,0.9024 -2.34721,1.9034 -2.75158,2.2246 -1.87082,1.4858 -4.93089,2.6908 -5.3032,2.0884 z"
             style="fill:#fbdd74;fill-opacity:1;stroke-width:0.67212105"
             inkscape:connector-curvature="0" />
          <path
             id="path3936"
             d="m 258.8164,1049.3581 c 1.109,-0.7345 2.31882,-1.3362 2.68848,-1.3373 0.36967,-10e-4 -0.31816,0.6019 -1.52852,1.3398 -2.85352,1.7398 -3.7877,1.7378 -1.15996,0 z"
             style="fill:#fbdd74;fill-opacity:1;stroke-width:0.67212105"
             inkscape:connector-curvature="0" />
          <path
             id="path3938"
             d="m 246.83024,1048.91 c -0.57208,-0.5721 -0.46302,-5.4215 0.17132,-7.6174 0.36423,-1.2608 0.87928,-1.6353 2.0633,-1.5 3.27566,0.3743 3.42363,1.3076 0.8834,5.5719 -2.57671,4.3255 -2.46501,4.1985 -3.11802,3.5455 z"
             style="fill:#fbdd74;fill-opacity:1;stroke-width:0.67212105"
             inkscape:connector-curvature="0" />
          <path
             id="path3940"
             d="m 232.65605,1045.8765 c -2.84613,-3.3251 -3.0171,-4.7612 -0.69287,-5.8202 2.97292,-1.3546 3.45023,-0.9846 4.59151,3.5589 1.34324,5.3474 1.35426,5.0708 -0.20197,5.0708 -0.71053,0 -2.37403,-1.2643 -3.69667,-2.8095 z"
             style="fill:#fbdd74;fill-opacity:1;stroke-width:0.67212105"
             inkscape:connector-curvature="0" />
          <path
             id="path3942"
             d="m 240.26463,1044.4852 c -1.34538,-5.4278 -0.60566,-6.8957 3.09298,-6.1374 1.109,0.2274 2.06528,0.4537 2.12506,0.5029 0.0598,0.049 -0.35008,2.1311 -0.91079,4.6263 -0.79494,3.5376 -1.28523,4.5369 -2.22605,4.5369 -0.89639,0 -1.4314,-0.9071 -2.0812,-3.5287 z"
             style="fill:#fbdd74;fill-opacity:1;stroke-width:0.67212105"
             inkscape:connector-curvature="0" />
        </g>
        <g
           id="g3962"
           transform="matrix(0.17701876,0,0,0.17701876,122.66554,1642.1699)"
           style="fill:#d40125;fill-opacity:1">
          <path
             inkscape:connector-curvature="0"
             style="fill:#d40125;fill-opacity:1;stroke-width:0.67212105"
             d="m 204.00877,1018.0186 c -1.29326,-0.3786 -2.56139,-1.0282 -2.81807,-1.4435 -0.69267,-1.1207 0.80353,-2.5634 2.23979,-2.1596 0.68714,0.1932 1.85426,0.5228 2.59359,0.7326 1.13497,0.322 1.34425,0.06 1.34425,-1.6803 0,-1.8939 -0.18477,-2.0617 -2.27013,-2.0617 -2.48432,0 -4.00443,-1.2361 -3.17348,-2.5806 0.64931,-1.0506 7.29961,-1.2092 8.31062,-0.1982 0.48406,0.4841 0.51564,2.1721 0.0987,5.274 -0.56509,4.2039 -0.7452,4.5717 -2.29355,4.6838 -0.92417,0.067 -2.73843,-0.188 -4.03168,-0.5665 z"
             id="path3946" />
          <path
             inkscape:connector-curvature="0"
             style="fill:#d40125;fill-opacity:1;stroke-width:0.67212105"
             d="m 195.64944,1016.1809 c -0.20469,-0.3312 0.0781,-1.4654 0.62831,-2.5204 1.45339,-2.7867 1.23787,-5.2396 -0.65838,-7.4931 -3.32949,-3.9569 -9.57077,-3.1011 -11.09635,1.5214 -0.44687,1.3541 -0.65953,3.0468 -0.47257,3.7617 0.46067,1.7617 -0.33003,1.6343 -2.19801,-0.3541 -1.40201,-1.4924 -1.47104,-1.8539 -0.70645,-3.6998 1.4215,-3.4318 4.99691,-6.0723 8.22231,-6.0723 6.01468,0 10.60669,4.0595 10.60669,9.3766 0,3.8771 -2.98163,7.6545 -4.32555,5.48 z"
             id="path3948" />
          <path
             inkscape:connector-curvature="0"
             style="fill:#d40125;fill-opacity:1;stroke-width:0.67212105"
             d="m 187.58531,1013.1921 c -2.03247,-2.0325 -2.20851,-4.4004 -0.48535,-6.5284 2.99315,-3.6964 9.45311,-0.403 8.14641,4.1532 -0.33517,1.1687 -0.48024,2.3338 -0.32238,2.5893 0.15787,0.2554 -0.0777,0.4854 -0.52356,0.5111 -0.44582,0.026 -1.77351,0.2611 -2.95043,0.5231 -1.76677,0.3935 -2.44055,0.1758 -3.86469,-1.2483 z"
             id="path3950" />
          <path
             inkscape:connector-curvature="0"
             style="fill:#d40125;fill-opacity:1;stroke-width:0.67212105"
             d="m 192.55668,1010.7807 c 0.52419,-0.9795 0.43583,-1.5562 -0.36042,-2.3524 -1.26629,-1.2663 -1.77806,-1.3111 -2.84078,-0.2483 -1.05299,1.0529 -1.03382,3.0224 0.0336,3.4531 1.6328,0.6589 2.48093,0.4306 3.16759,-0.8524 z"
             id="path3952" />
          <path
             inkscape:connector-curvature="0"
             style="fill:#d40125;fill-opacity:1;stroke-width:0.67212105"
             d="m 174.60242,1005.2902 c -1.57108,-1.1127 -2.85651,-2.5418 -2.85651,-3.1757 0,-1.4257 5.19733,-7.5114 6.41492,-7.5114 0.48863,0 2.01647,1.37664 3.3952,3.0592 2.37022,2.8925 2.4436,3.1214 1.34695,4.2008 -1.09267,1.0754 -1.25282,1.0345 -2.76561,-0.7068 -1.90461,-2.19234 -2.42835,-2.26581 -3.97427,-0.5576 -1.11322,1.2301 -1.10479,1.3246 0.17948,2.012 2.5694,1.3751 3.58894,2.7999 2.73756,3.8257 -1.02821,1.239 -1.15672,1.2061 -4.47772,-1.1462 z"
             id="path3954" />
          <path
             inkscape:connector-curvature="0"
             style="fill:#d40125;fill-opacity:1;stroke-width:0.67212105"
             d="m 200.42307,1006.2532 c -0.97225,-0.9723 -0.35296,-2.2551 1.56829,-3.2486 2.27849,-1.1782 2.37141,-1.4904 0.98797,-3.31943 -0.96094,-1.27043 -1.03519,-1.25561 -2.96305,0.59143 -1.97856,1.8956 -4.07401,1.9969 -4.07401,0.197 0,-1.21096 4.85478,-5.87759 6.07743,-5.84187 1.16983,0.0342 6.02075,6.13707 6.02075,7.57467 0,0.5536 -1.33929,1.7914 -2.9762,2.7507 -3.10821,1.8215 -3.89579,2.0415 -4.64118,1.2961 z"
             id="path3956" />
          <path
             inkscape:connector-curvature="0"
             style="fill:#d40125;fill-opacity:1;stroke-width:0.67212105"
             d="m 201.66005,1000.6599 c -0.23547,-0.381 0.0343,-0.4936 0.63246,-0.2641 1.16439,0.4468 1.37743,0.9286 0.41063,0.9286 -0.34785,0 -0.81724,-0.299 -1.04309,-0.6645 z"
             id="path3958" />
          <path
             inkscape:connector-curvature="0"
             style="fill:#d40125;fill-opacity:1;stroke-width:0.67212105"
             d="m 186.01125,999.82008 c -0.38482,-0.46665 -0.80302,-2.51194 -0.92933,-4.54511 l -0.22965,-3.69667 5.20894,-0.1963 c 4.53705,-0.17098 5.89195,0.19398 5.09536,1.37252 -0.0625,0.0924 0.27016,0.88505 0.73918,1.76141 0.47389,0.88547 0.53943,1.39974 0.14753,1.15753 -0.41796,-0.25831 -0.88697,0.53299 -1.15143,1.94268 -0.84456,4.50186 -3.40709,3.62146 -3.06947,-1.05461 0.19058,-2.63945 0.13356,-2.72342 -1.70617,-2.51272 -1.73877,0.19913 -1.88733,0.42756 -1.71825,2.64198 0.2096,2.74497 -1.19017,4.58021 -2.38671,3.12929 z"
             id="path3960" />
        </g>
        <g
           id="g4004"
           transform="matrix(0.05133592,0,0,0.05133592,142.99691,1768.611)"
           style="fill:#fbdd74;fill-opacity:1">
          <path
             inkscape:connector-curvature="0"
             style="fill:#fbdd74;fill-opacity:1;stroke-width:0.67212105"
             d="m 246.09425,1087.501 c -0.17244,-0.8317 -0.50242,-3.2514 -0.73329,-5.377 -0.55181,-5.0803 0.76311,-5.1929 4.02789,-0.345 2.82189,4.1903 2.96973,5.6954 0.64622,6.5788 -2.64039,1.0039 -3.59825,0.7956 -3.94082,-0.8568 z"
             id="path3964" />
          <path
             inkscape:connector-curvature="0"
             style="fill:#fbdd74;fill-opacity:1;stroke-width:0.67212105"
             d="m 236.0166,1087.7537 c -0.25354,-0.4102 0.0489,-2.5631 0.67207,-4.7841 1.53285,-5.463 2.94938,-5.4583 4.99683,0.017 0.83397,2.2301 1.37624,4.1947 1.20504,4.3659 -0.76947,0.7695 -6.44178,1.101 -6.87394,0.4017 z"
             id="path3966" />
          <path
             inkscape:connector-curvature="0"
             style="fill:#fbdd74;fill-opacity:1;stroke-width:0.67212105"
             d="m 229.72785,1085.6444 c -2.82866,-1.2664 -3.48071,-2.2032 -2.11926,-3.0446 0.39487,-0.244 0.54956,-0.8825 0.34376,-1.4188 -0.20858,-0.5436 -0.0807,-0.7937 0.28901,-0.5652 0.36476,0.2254 1.37222,-0.4144 2.23881,-1.4219 2.41719,-2.8102 3.80381,-1.841 3.80381,2.6587 0,4.7378 -0.8546,5.449 -4.55613,3.7918 z"
             id="path3968" />
          <path
             inkscape:connector-curvature="0"
             style="fill:#fbdd74;fill-opacity:1;stroke-width:0.67212105"
             d="m 254.33437,1082.7962 c -3.75887,-5.0778 -4.13742,-5.9512 -3.05035,-7.0383 1.26454,-1.2645 5.37019,-0.6726 8.48875,1.224 2.17507,1.3227 2.18115,1.3413 1.03094,3.1523 -1.4666,2.3092 -3.7581,4.8464 -4.37712,4.8464 -0.26136,0 -1.20285,-0.983 -2.09222,-2.1844 z"
             id="path3970" />
          <path
             inkscape:connector-curvature="0"
             style="fill:#fbdd74;fill-opacity:1;stroke-width:0.67212105"
             d="m 220.89034,1081.1932 c -0.76616,-0.974 -1.39302,-2.0112 -1.39302,-2.3048 0,-0.2936 1.33265,-1.4333 2.96146,-2.5325 7.24325,-4.8884 8.76179,-2.859 3.31013,4.4239 -1.98175,2.6474 -3.05012,2.7379 -4.87857,0.4134 z"
             id="path3972" />
          <path
             inkscape:connector-curvature="0"
             style="fill:#fbdd74;fill-opacity:1;stroke-width:0.67212105"
             d="m 228.23489,1079.3498 c 0,-0.1396 0.52929,-0.6689 1.17621,-1.1762 1.06602,-0.836 1.0898,-0.8123 0.25376,0.2538 -0.87803,1.1195 -1.42997,1.4756 -1.42997,0.9224 z"
             id="path3974" />
          <path
             inkscape:connector-curvature="0"
             style="fill:#fbdd74;fill-opacity:1;stroke-width:0.67212105"
             d="m 238.65277,1075.9341 c -0.36967,-0.1351 -1.49833,-0.4277 -2.50813,-0.6502 -3.11485,-0.6864 -6.41933,-4.1721 -7.64685,-8.0662 -1.39349,-4.4207 -0.83324,-10.232 1.24058,-12.8685 1.92423,-2.4462 6.26535,-4.3002 9.92258,-4.2377 l 3.02454,0.052 -3.02454,0.933 c -3.08379,0.9514 -6.38761,3.8917 -5.67268,5.0484 0.2176,0.3521 0.0216,0.5571 -0.4355,0.4555 -1.10605,-0.2458 -2.13997,4.5659 -1.6062,7.4749 0.87323,4.7592 4.12444,7.4631 8.97367,7.4631 7.16067,0 10.34222,-9.6754 4.73345,-14.3948 -2.17503,-1.8302 -4.54614,-2.1979 -6.70905,-1.0403 -2.39446,1.2815 -1.56904,2.6648 1.59006,2.6648 3.45492,0 4.50322,0.8807 4.50322,3.7831 0,5.6853 -7.85816,6.5571 -10.42106,1.1562 -1.05229,-2.2175 -1.05551,-2.5967 -0.0446,-5.2439 1.7459,-4.5715 3.80207,-6.0624 8.32345,-6.0349 7.24515,0.044 10.87278,3.6006 10.87723,10.6641 0.005,7.7322 -4.3297,12.813 -11.08749,12.9962 -1.84833,0.05 -3.66306,-0.019 -4.03272,-0.1545 z"
             id="path3976" />
          <path
             inkscape:connector-curvature="0"
             style="fill:#fbdd74;fill-opacity:1;stroke-width:0.67212105"
             d="m 258.59462,1073.0504 c -4.59961,-4.1928 -4.11002,-5.33 1.79465,-4.1683 5.24036,1.031 6.07289,1.944 4.59618,5.0407 -0.60852,1.2761 -1.50737,2.3202 -1.99745,2.3202 -0.49008,0 -2.4671,-1.4367 -4.39338,-3.1926 z"
             id="path3978" />
          <path
             inkscape:connector-curvature="0"
             style="fill:#fbdd74;fill-opacity:1;stroke-width:0.67212105"
             d="m 215.8198,1073.1638 c -0.62821,-1.3238 -0.9415,-2.6093 -0.69619,-2.8565 0.65018,-0.6552 9.32454,-2.7154 9.9187,-2.3557 1.16697,0.7066 0.31486,2.2946 -2.61508,4.8736 -3.8518,3.3905 -5.12818,3.4559 -6.60743,0.3386 z"
             id="path3980" />
          <path
             inkscape:connector-curvature="0"
             style="fill:#fbdd74;fill-opacity:1;stroke-width:0.67212105"
             d="m 227.79917,1071.0273 c 0.24425,-0.3952 0.0944,-0.8351 -0.33303,-0.9776 -0.42742,-0.1425 -0.65515,-0.625 -0.50607,-1.0722 0.17215,-0.5165 0.5718,-0.3317 1.09524,0.5065 0.60812,0.9738 0.62436,1.4432 0.062,1.7908 -0.4456,0.2754 -0.57774,0.1726 -0.31811,-0.2475 z"
             id="path3982" />
          <path
             inkscape:connector-curvature="0"
             style="fill:#fbdd74;fill-opacity:1;stroke-width:0.67212105"
             d="m 214.44876,1065.4438 c -0.25403,-1.5036 -0.33647,-2.8592 -0.18319,-3.0125 0.15327,-0.1533 2.52732,-0.3597 5.27567,-0.4588 4.46976,-0.1611 4.99698,-0.05 4.99698,1.0569 0,0.8143 -1.2632,1.9052 -3.69666,3.1924 -5.02772,2.6595 -5.8285,2.5621 -6.3928,-0.778 z"
             id="path3984" />
          <path
             inkscape:connector-curvature="0"
             style="fill:#fbdd74;fill-opacity:1;stroke-width:0.67212105"
             d="m 262.00897,1066.7098 c -4.21898,-1.1809 -4.87287,-1.5688 -4.87287,-2.8909 0,-1.3177 0.5948,-1.6764 4.33888,-2.6169 2.38639,-0.5995 5.22605,-1.0899 6.31035,-1.0899 1.71442,0 2.02802,0.3015 2.40523,2.3122 0.23857,1.2717 0.23945,3.0864 0.002,4.0327 -0.52443,2.0895 -1.51223,2.12 -8.18353,0.2528 z"
             id="path3986" />
          <path
             inkscape:connector-curvature="0"
             style="fill:#fbdd74;fill-opacity:1;stroke-width:0.67212105"
             d="m 256.29596,1058.9586 c -1.01658,-0.154 -1.84833,-0.5377 -1.84833,-0.8525 0,-0.3149 -0.16708,-1.008 -0.37129,-1.5401 -0.45768,-1.1927 8.0764,-7.2117 10.2219,-7.2094 1.12434,10e-4 1.68918,0.7062 2.52045,3.1458 1.83731,5.3922 1.60215,6.0145 -2.45727,6.5021 -3.64816,0.4381 -4.91761,0.4309 -8.06546,-0.046 z"
             id="path3988" />
          <path
             inkscape:connector-curvature="0"
             style="fill:#fbdd74;fill-opacity:1;stroke-width:0.67212105"
             d="m 215.89118,1058.2896 c -1.02864,-0.2644 -1.18386,-0.7529 -0.86456,-2.7205 0.59958,-3.6948 1.3751,-4.0528 4.76585,-2.2006 7.0185,3.834 7.37557,5.4477 1.17747,5.3214 -2.10376,-0.043 -4.38921,-0.223 -5.07876,-0.4003 z"
             id="path3990" />
          <path
             inkscape:connector-curvature="0"
             style="fill:#fbdd74;fill-opacity:1;stroke-width:0.67212105"
             d="m 224.37019,1050.0103 c -1.94075,-1.113 -3.52863,-2.4543 -3.52863,-2.9807 0,-0.5265 0.73781,-1.8058 1.63958,-2.843 2.0763,-2.3881 3.23174,-1.7976 6.22288,3.1802 3.17828,5.2892 1.77354,6.1461 -4.33383,2.6435 z"
             id="path3992" />
          <path
             inkscape:connector-curvature="0"
             style="fill:#fbdd74;fill-opacity:1;stroke-width:0.67212105"
             d="m 250.76162,1051.3917 c -0.80827,-1.3078 4.32099,-9.4269 5.95546,-9.4269 0.47125,0 1.59006,0.7815 2.48625,1.7366 l 1.62943,1.7367 -2.01636,1.6406 c -1.109,0.9024 -2.34721,1.9034 -2.75158,2.2246 -1.87082,1.4858 -4.93089,2.6908 -5.3032,2.0884 z"
             id="path3994" />
          <path
             inkscape:connector-curvature="0"
             style="fill:#fbdd74;fill-opacity:1;stroke-width:0.67212105"
             d="m 258.8164,1049.3581 c 1.109,-0.7345 2.31882,-1.3362 2.68848,-1.3373 0.36967,-10e-4 -0.31816,0.6019 -1.52852,1.3398 -2.85352,1.7398 -3.7877,1.7378 -1.15996,0 z"
             id="path3996" />
          <path
             inkscape:connector-curvature="0"
             style="fill:#fbdd74;fill-opacity:1;stroke-width:0.67212105"
             d="m 246.83024,1048.91 c -0.57208,-0.5721 -0.46302,-5.4215 0.17132,-7.6174 0.36423,-1.2608 0.87928,-1.6353 2.0633,-1.5 3.27566,0.3743 3.42363,1.3076 0.8834,5.5719 -2.57671,4.3255 -2.46501,4.1985 -3.11802,3.5455 z"
             id="path3998" />
          <path
             inkscape:connector-curvature="0"
             style="fill:#fbdd74;fill-opacity:1;stroke-width:0.67212105"
             d="m 232.65605,1045.8765 c -2.84613,-3.3251 -3.0171,-4.7612 -0.69287,-5.8202 2.97292,-1.3546 3.45023,-0.9846 4.59151,3.5589 1.34324,5.3474 1.35426,5.0708 -0.20197,5.0708 -0.71053,0 -2.37403,-1.2643 -3.69667,-2.8095 z"
             id="path4000" />
          <path
             inkscape:connector-curvature="0"
             style="fill:#fbdd74;fill-opacity:1;stroke-width:0.67212105"
             d="m 240.26463,1044.4852 c -1.34538,-5.4278 -0.60566,-6.8957 3.09298,-6.1374 1.109,0.2274 2.06528,0.4537 2.12506,0.5029 0.0598,0.049 -0.35008,2.1311 -0.91079,4.6263 -0.79494,3.5376 -1.28523,4.5369 -2.22605,4.5369 -0.89639,0 -1.4314,-0.9071 -2.0812,-3.5287 z"
             id="path4002" />
        </g>
        <path
           id="path4006"
           d="m 143.13507,1840.9365 c 0.91523,-0.6543 0.85793,-2.2254 -0.10562,-2.8956 -0.95752,-0.6661 -2.53126,-0.3836 -3.00223,0.5389 -0.073,0.143 -0.22972,0.2439 -0.34828,0.2242 -0.11855,-0.02 -0.23244,0.066 -0.25307,0.1898 -0.0206,0.1242 -0.13908,0.2089 -0.26321,0.1882 -0.14689,-0.024 -0.25016,0.1096 -0.29573,0.3838 -0.0385,0.2318 -0.15147,0.4796 -0.25102,0.5507 -0.12433,0.089 -0.0347,0.1322 0.28627,0.1383 0.25699,0.01 0.48208,-0.08 0.50019,-0.1893 0.0181,-0.109 0.18888,-0.1944 0.37948,-0.19 0.22916,0.01 0.34647,-0.082 0.34633,-0.2586 -2.1e-4,-0.3069 0.51161,-1.0416 0.81117,-1.1643 0.11138,-0.046 0.5039,-0.079 0.87226,-0.074 0.59139,0.01 0.71354,0.067 1.04406,0.4971 0.42307,0.551 0.39978,1.2721 -0.0515,1.5948 -0.15499,0.1108 -0.23861,0.2867 -0.19215,0.4043 0.062,0.157 0.0355,0.1596 -0.10787,0.011 -0.10457,-0.1086 -0.35793,-0.2346 -0.56301,-0.2799 -0.52321,-0.1155 -1.07723,-1.1411 -0.57095,-1.057 0.0969,0.016 0.27929,0.1593 0.40525,0.3181 0.43012,0.5423 1.06612,-0.01 0.66218,-0.5736 -0.42248,-0.5909 -1.63282,-0.2233 -1.75872,0.5342 -0.18125,1.0905 1.45117,1.8274 2.45617,1.1089 z"
           style="fill:#fbdd74;fill-opacity:1;stroke-width:0.15253094"
           inkscape:connector-curvature="0" />
        <path
           inkscape:connector-curvature="0"
           style="fill:#fbdd74;fill-opacity:1;stroke-width:0.15253094"
           d="m 148.17926,1841.7979 c 0.91523,-0.6544 0.85793,-2.2255 -0.10562,-2.8957 -0.95752,-0.6661 -2.53127,-0.3835 -3.00223,0.539 -0.073,0.1429 -0.22973,0.2438 -0.34829,0.2241 -0.11855,-0.02 -0.23244,0.066 -0.25307,0.1899 -0.0206,0.1241 -0.13908,0.2088 -0.26321,0.1882 -0.14688,-0.024 -0.25015,0.1096 -0.29573,0.3838 -0.0385,0.2317 -0.15147,0.4795 -0.25101,0.5507 -0.12434,0.089 -0.0347,0.1321 0.28627,0.1382 0.25699,0.01 0.48207,-0.08 0.50018,-0.1893 0.0181,-0.109 0.18888,-0.1944 0.37949,-0.19 0.22916,0.01 0.34646,-0.082 0.34632,-0.2586 -2.1e-4,-0.3069 0.51161,-1.0416 0.81117,-1.1643 0.11138,-0.046 0.5039,-0.079 0.87226,-0.074 0.59139,0.01 0.71354,0.067 1.04406,0.4971 0.42307,0.5511 0.39978,1.2721 -0.0515,1.5948 -0.15499,0.1108 -0.2386,0.2867 -0.19215,0.4043 0.062,0.157 0.0355,0.1596 -0.10787,0.011 -0.10457,-0.1086 -0.35792,-0.2346 -0.56301,-0.2798 -0.52321,-0.1156 -1.07722,-1.1412 -0.57095,-1.0571 0.0969,0.016 0.2793,0.1593 0.40525,0.3181 0.43012,0.5423 1.06612,-0.01 0.66219,-0.5736 -0.42249,-0.5909 -1.63282,-0.2233 -1.75873,0.5342 -0.18124,1.0905 1.45118,1.8275 2.45618,1.109 z"
           id="path4008" />
        <path
           id="path4010"
           d="m 153.35056,1841.8417 c 0.77609,-0.8146 0.42482,-2.347 -0.64742,-2.8244 -1.06555,-0.4744 -2.55826,0.099 -2.84765,1.0931 -0.0448,0.1542 -0.17985,0.2827 -0.3,0.2856 -0.12015,0 -0.21597,0.1082 -0.21293,0.234 0.003,0.1258 -0.0974,0.2312 -0.2232,0.2342 -0.14885,0 -0.22512,0.1546 -0.2184,0.4325 0.006,0.2349 -0.0588,0.4995 -0.14316,0.5881 -0.10543,0.1106 -0.009,0.1363 0.30714,0.082 0.25333,-0.043 0.45842,-0.1694 0.45575,-0.2798 -0.003,-0.1105 0.14901,-0.2265 0.33706,-0.2579 0.22611,-0.038 0.32488,-0.1457 0.29161,-0.3191 -0.0579,-0.3013 0.30695,-1.119 0.57814,-1.2958 0.10083,-0.066 0.48016,-0.172 0.84294,-0.2361 0.58243,-0.1028 0.71333,-0.069 1.11881,0.2922 0.51902,0.4619 0.63152,1.1745 0.24885,1.5761 -0.13142,0.138 -0.18052,0.3265 -0.11282,0.4332 0.0904,0.1426 0.0649,0.1501 -0.10396,0.031 -0.12311,-0.087 -0.3956,-0.1632 -0.60553,-0.1691 -0.53561,-0.015 -1.27233,-0.9187 -0.75926,-0.9311 0.0982,0 0.30422,0.104 0.45776,0.2363 0.52429,0.452 1.04555,-0.2085 0.54271,-0.6877 -0.52592,-0.501 -1.64571,0.087 -1.62715,0.855 0.0267,1.1051 1.76848,1.5224 2.62071,0.628 z"
           style="fill:#fbdd74;fill-opacity:1;stroke-width:0.15253094"
           inkscape:connector-curvature="0" />
        <path
           id="path4012"
           d="m 159.03857,1843.2512 c 0.91523,-0.6544 0.85792,-2.2255 -0.10562,-2.8957 -0.95752,-0.6661 -2.53127,-0.3836 -3.00223,0.5389 -0.073,0.143 -0.22973,0.2439 -0.34829,0.2242 -0.11855,-0.02 -0.23244,0.066 -0.25307,0.1899 -0.0206,0.1241 -0.13908,0.2088 -0.26321,0.1881 -0.14689,-0.024 -0.25015,0.1096 -0.29573,0.3838 -0.0385,0.2318 -0.15147,0.4796 -0.25102,0.5508 -0.12433,0.089 -0.0347,0.1321 0.28627,0.1382 0.25699,0 0.48208,-0.08 0.50019,-0.1893 0.0181,-0.109 0.18888,-0.1944 0.37949,-0.19 0.22916,0.01 0.34646,-0.082 0.34632,-0.2586 -2.1e-4,-0.3069 0.51161,-1.0416 0.81117,-1.1643 0.11139,-0.046 0.5039,-0.079 0.87226,-0.074 0.59139,0.01 0.71354,0.066 1.04406,0.4971 0.42307,0.5511 0.39978,1.2721 -0.0515,1.5948 -0.15499,0.1108 -0.2386,0.2867 -0.19215,0.4043 0.062,0.157 0.0355,0.1596 -0.10787,0.011 -0.10457,-0.1086 -0.35792,-0.2346 -0.563,-0.2798 -0.52322,-0.1156 -1.07723,-1.1412 -0.57096,-1.0571 0.0969,0.016 0.2793,0.1593 0.40525,0.3181 0.43012,0.5423 1.06612,-0.01 0.66218,-0.5736 -0.42248,-0.5909 -1.63282,-0.2233 -1.75872,0.5342 -0.18124,1.0905 1.45118,1.8275 2.45618,1.1089 z"
           style="fill:#fbdd74;fill-opacity:1;stroke-width:0.15253094"
           inkscape:connector-curvature="0" />
        <path
           inkscape:connector-curvature="0"
           style="fill:#fbdd74;fill-opacity:1;stroke-width:0.1441749"
           d="m 141.00495,1844.8951 c 0.87979,-0.5975 0.86153,-2.0834 -0.0336,-2.7387 -0.88959,-0.6513 -2.38314,-0.4203 -2.84925,0.4407 -0.0722,0.1334 -0.22265,0.2252 -0.33423,0.2039 -0.11158,-0.021 -0.22114,0.057 -0.24348,0.1736 -0.0223,0.1168 -0.13619,0.1941 -0.25301,0.1718 -0.13824,-0.026 -0.23889,0.098 -0.28822,0.3559 -0.0417,0.2181 -0.15408,0.4497 -0.24977,0.5147 -0.11952,0.081 -0.0359,0.1241 0.26734,0.1371 0.24274,0.011 0.45737,-0.065 0.47698,-0.1674 0.0196,-0.1026 0.18292,-0.1794 0.36293,-0.1709 0.21642,0.01 0.32927,-0.07 0.33316,-0.2365 0.007,-0.2899 0.50724,-0.9725 0.79311,-1.0816 0.10629,-0.041 0.47796,-0.063 0.82592,-0.05 0.55863,0.021 0.67273,0.079 0.97522,0.4935 0.38718,0.5304 0.3487,1.2113 -0.0851,1.5058 -0.14898,0.1012 -0.23202,0.2656 -0.19081,0.3777 0.055,0.1498 0.0299,0.1516 -0.10217,0.01 -0.0963,-0.105 -0.33286,-0.2298 -0.52561,-0.2773 -0.49177,-0.1211 -0.99186,-1.1029 -0.51537,-1.0118 0.0912,0.017 0.26027,0.1568 0.37567,0.3097 0.39405,0.5223 1.00762,0.016 0.63882,-0.5268 -0.38572,-0.568 -1.53782,-0.2483 -1.6741,0.4646 -0.19617,1.0263 1.32954,1.76 2.29562,1.104 z"
           id="path4014" />
        <g
           transform="matrix(0.17899104,0,0,0.17899104,287.94743,1552.9993)"
           id="g4096">
          <path
             style="opacity:1;fill:#d40125;fill-opacity:1;stroke:#d40125;stroke-width:0.28001735;stroke-linecap:round;stroke-linejoin:round;stroke-miterlimit:4;stroke-dasharray:none;stroke-dashoffset:0;stroke-opacity:1"
             id="path4016"
             sodipodi:type="arc"
             sodipodi:cx="-776.2193"
             sodipodi:cy="1652.389"
             sodipodi:rx="102.91454"
             sodipodi:ry="101.3065"
             sodipodi:start="0"
             sodipodi:end="3.1415927"
             d="m -673.30476,1652.389 a 102.91454,101.3065 0 0 1 -51.45727,87.734 102.91454,101.3065 0 0 1 -102.91454,0 102.91454,101.3065 0 0 1 -51.45727,-87.734 l 102.91454,0 z" />
          <path
             inkscape:transform-center-y="6.4284055"
             inkscape:transform-center-x="0.88200501"
             id="path4018"
             d="m -729.74374,1764.4763 c 1.44968,1.2825 3.00789,2.0207 3.46255,1.6407 0.45489,-0.38 1.6577,-0.9754 2.67275,-1.3228 2.27527,-0.7787 0.66732,-20.371 -1.92599,-23.4672 -1.35717,-1.624 -3.05913,-1.5873 -7.58625,0.1562 -10.00641,3.8554 -10.62147,4.9463 -6.42547,11.3982 3.77114,5.7985 5.31389,7.6232 9.80256,11.5944 z"
             style="fill:#d40125;fill-opacity:1;stroke-width:1.26520634"
             inkscape:connector-curvature="0" />
          <path
             inkscape:connector-curvature="0"
             style="fill:#2745db;fill-opacity:1;stroke-width:0.81026924"
             d="m -748.35095,1769.0801 c 0.77689,0.9659 1.68102,1.5999 2.00897,1.4091 0.32818,-0.191 1.15169,-0.4372 1.82993,-0.547 1.52025,-0.2463 2.61733,-12.788 1.314,-15.0221 -0.68174,-1.1716 -1.76007,-1.3319 -4.80602,-0.7189 -6.73257,1.3552 -7.2384,1.9775 -5.2851,6.5028 1.75564,4.0669 2.53277,5.3853 4.93833,8.3761 z"
             id="path4020" />
          <path
             inkscape:connector-curvature="0"
             style="fill:#e1b53a;fill-opacity:1;stroke-width:1.12486076"
             d="m -828.86221,1751.2074 c -7.5045,7.4482 -8.85983,8.2855 -10.92205,6.7469 -2.3988,-1.7897 -2.40727,-8.7318 -0.0172,-14.3536 1.6668,-3.9209 1.69612,-3.9355 4.97246,-2.4667 4.17765,1.8727 8.93159,5.0569 9.08073,6.0822 0.0629,0.4328 -1.33833,2.2289 -3.11388,3.9912 z"
             id="path4022"
             inkscape:transform-center-x="0.025975146"
             inkscape:transform-center-y="3.5715555" />
          <text
             xml:space="preserve"
             style="font-style:normal;font-weight:normal;font-size:21.15979576px;line-height:1.25;font-family:sans-serif;letter-spacing:0px;word-spacing:0px;fill:#000000;fill-opacity:1;stroke:#000000;stroke-width:10;stroke-linecap:round;stroke-linejoin:round;stroke-miterlimit:4;stroke-dasharray:none;stroke-opacity:1"
             x="-846.92065"
             y="1678.6753"
             id="text4026"><tspan
               sodipodi:role="line"
               id="tspan4024"
               x="-846.92065"
               y="1678.6753"
               style="font-style:normal;font-variant:normal;font-weight:normal;font-stretch:normal;font-family:'Goudy Stout';-inkscape-font-specification:'Goudy Stout';fill:#000000;fill-opacity:1;stroke:#000000;stroke-width:10;stroke-linecap:round;stroke-linejoin:round;stroke-miterlimit:4;stroke-dasharray:none;stroke-opacity:1">smart</tspan></text>
          <text
             id="text4030"
             y="1678.6753"
             x="-846.92065"
             style="font-style:normal;font-weight:normal;font-size:21.15979576px;line-height:1.25;font-family:sans-serif;letter-spacing:0px;word-spacing:0px;fill:#fbdd74;fill-opacity:1;stroke:none;stroke-width:0.52899492"
             xml:space="preserve"><tspan
               style="font-style:normal;font-variant:normal;font-weight:normal;font-stretch:normal;font-family:'Goudy Stout';-inkscape-font-specification:'Goudy Stout';fill:#fbdd74;fill-opacity:1;stroke-width:0.52899492"
               y="1678.6753"
               x="-846.92065"
               id="tspan4028"
               sodipodi:role="line">smart</tspan></text>
          <path
             d="m -673.30476,1652.389 a 102.91454,101.3065 0 0 1 -51.45727,87.734 102.91454,101.3065 0 0 1 -102.91454,0 102.91454,101.3065 0 0 1 -51.45727,-87.734 l 102.91454,0 z"
             sodipodi:end="3.1415927"
             sodipodi:start="0"
             sodipodi:ry="101.3065"
             sodipodi:rx="102.91454"
             sodipodi:cy="1652.389"
             sodipodi:cx="-776.2193"
             sodipodi:type="arc"
             id="path4032"
             style="opacity:1;fill:#d40125;fill-opacity:1;stroke:#d40125;stroke-width:0.28001735;stroke-linecap:round;stroke-linejoin:round;stroke-miterlimit:4;stroke-dasharray:none;stroke-dashoffset:0;stroke-opacity:1" />
          <text
             id="text4036"
             y="1678.6753"
             x="-846.92065"
             style="font-style:normal;font-weight:normal;font-size:21.15979576px;line-height:1.25;font-family:sans-serif;letter-spacing:0px;word-spacing:0px;fill:#000000;fill-opacity:1;stroke:#000000;stroke-width:10;stroke-linecap:round;stroke-linejoin:round;stroke-miterlimit:4;stroke-dasharray:none;stroke-opacity:1"
             xml:space="preserve"><tspan
               style="font-style:normal;font-variant:normal;font-weight:normal;font-stretch:normal;font-family:'Goudy Stout';-inkscape-font-specification:'Goudy Stout';fill:#000000;fill-opacity:1;stroke:#000000;stroke-width:10;stroke-linecap:round;stroke-linejoin:round;stroke-miterlimit:4;stroke-dasharray:none;stroke-opacity:1"
               y="1678.6753"
               x="-846.92065"
               id="tspan4034"
               sodipodi:role="line">smart</tspan></text>
          <text
             xml:space="preserve"
             style="font-style:normal;font-weight:normal;font-size:21.15979576px;line-height:1.25;font-family:sans-serif;letter-spacing:0px;word-spacing:0px;fill:#fbdd74;fill-opacity:1;stroke:none;stroke-width:0.52899492"
             x="-846.92065"
             y="1678.6753"
             id="text4040"><tspan
               sodipodi:role="line"
               id="tspan4038"
               x="-846.92065"
               y="1678.6753"
               style="font-style:normal;font-variant:normal;font-weight:normal;font-stretch:normal;font-family:'Goudy Stout';-inkscape-font-specification:'Goudy Stout';fill:#fbdd74;fill-opacity:1;stroke-width:0.52899492">smart</tspan></text>
          <path
             d="m -673.30476,1652.389 a 102.91454,101.3065 0 0 1 -51.45727,87.734 102.91454,101.3065 0 0 1 -102.91454,0 102.91454,101.3065 0 0 1 -51.45727,-87.734 l 102.91454,0 z"
             sodipodi:end="3.1415927"
             sodipodi:start="0"
             sodipodi:ry="101.3065"
             sodipodi:rx="102.91454"
             sodipodi:cy="1652.389"
             sodipodi:cx="-776.2193"
             sodipodi:type="arc"
             id="path4042"
             style="opacity:1;fill:#d40125;fill-opacity:1;stroke:#d40125;stroke-width:0.28001735;stroke-linecap:round;stroke-linejoin:round;stroke-miterlimit:4;stroke-dasharray:none;stroke-dashoffset:0;stroke-opacity:1" />
          <path
             inkscape:connector-curvature="0"
             style="fill:#e1b53a;fill-opacity:1;stroke-width:1.25744545"
             d="m -717.38213,1746.8702 c 8.38903,8.326 9.90412,9.262 12.2094,7.5421 2.68154,-2.0007 2.69101,-9.761 0.0193,-16.0455 -1.86327,-4.3829 -1.89605,-4.3992 -5.55856,-2.7575 -4.67005,2.0937 -9.98434,5.6531 -10.15105,6.7992 -0.0704,0.4837 1.49607,2.4917 3.48091,4.4617 z"
             id="path4044"
             inkscape:transform-center-x="-0.029066937"
             inkscape:transform-center-y="3.992503" />
          <path
             inkscape:connector-curvature="0"
             style="fill:#d40125;fill-opacity:1;stroke-width:1.20230722"
             d="m -887.75117,1678.9235 c -7.8088,-0.6658 -9.08756,-1.128 -9.52952,-3.4512 -0.44052,-2.3158 0.48478,-3.145 6.74997,-6.0492 3.99321,-1.8514 8.81945,-3.6624 10.72494,-4.0249 3.01273,-0.5731 3.66465,-0.1476 4.99967,3.2594 0.84431,2.1549 1.45253,5.3439 1.35155,7.0861 -0.22319,3.8471 -1.94879,4.231 -14.29653,3.1798 z"
             id="path4046"
             inkscape:transform-center-x="6.0927338"
             inkscape:transform-center-y="-0.2406641" />
          <path
             inkscape:transform-center-y="4.0329884"
             inkscape:transform-center-x="5.5106057"
             id="path4048"
             d="m -854.71003,1722.699 c -1.44446,2.3814 -5.11626,9.4973 -8.15942,15.8129 -7.2734,15.0951 -3.33332,16.8841 12.0693,5.481 13.3132,-9.8564 15.4197,-14.3459 9.20756,-19.6223 -7.05931,-5.9965 -10.24773,-6.4025 -13.11744,-1.6716 z"
             style="fill:#d40125;fill-opacity:1;stroke-width:2.20383"
             inkscape:connector-curvature="0" />
          <text
             id="text4052"
             y="1678.6753"
             x="-846.92065"
             style="font-style:normal;font-weight:normal;font-size:21.15979576px;line-height:1.25;font-family:sans-serif;letter-spacing:0px;word-spacing:0px;fill:#000000;fill-opacity:1;stroke:#000000;stroke-width:10;stroke-linecap:round;stroke-linejoin:round;stroke-miterlimit:4;stroke-dasharray:none;stroke-opacity:1"
             xml:space="preserve"><tspan
               style="font-style:normal;font-variant:normal;font-weight:normal;font-stretch:normal;font-family:'Goudy Stout';-inkscape-font-specification:'Goudy Stout';fill:#000000;fill-opacity:1;stroke:#000000;stroke-width:10;stroke-linecap:round;stroke-linejoin:round;stroke-miterlimit:4;stroke-dasharray:none;stroke-opacity:1"
               y="1678.6753"
               x="-846.92065"
               id="tspan4050"
               sodipodi:role="line">smart</tspan></text>
          <text
             xml:space="preserve"
             style="font-style:normal;font-weight:normal;font-size:21.15979576px;line-height:1.25;font-family:sans-serif;letter-spacing:0px;word-spacing:0px;fill:#fbdd74;fill-opacity:1;stroke:none;stroke-width:0.52899492"
             x="-846.92065"
             y="1678.6753"
             id="text4056"><tspan
               sodipodi:role="line"
               id="tspan4054"
               x="-846.92065"
               y="1678.6753"
               style="font-style:normal;font-variant:normal;font-weight:normal;font-stretch:normal;font-family:'Goudy Stout';-inkscape-font-specification:'Goudy Stout';fill:#fbdd74;fill-opacity:1;stroke-width:0.52899492">smart</tspan></text>
          <path
             style="opacity:1;fill:#d40125;fill-opacity:1;stroke:#d40125;stroke-width:0.27992916;stroke-linecap:round;stroke-linejoin:round;stroke-miterlimit:4;stroke-dasharray:none;stroke-dashoffset:0;stroke-opacity:1"
             id="path4058"
             sodipodi:type="arc"
             sodipodi:cx="-776.2193"
             sodipodi:cy="1652.389"
             sodipodi:rx="102.91454"
             sodipodi:ry="101.3065"
             sodipodi:start="0"
             sodipodi:end="3.1415927"
             d="m -673.30476,1652.389 a 102.91454,101.3065 0 0 1 -51.45727,87.734 102.91454,101.3065 0 0 1 -102.91454,0 102.91454,101.3065 0 0 1 -51.45727,-87.734 l 102.91454,0 z" />
          <path
             id="path4060"
             d="m -646.501,1668.1318 c 1.95764,-0.8668 3.41805,-2.0936 3.24543,-2.7259 -0.17263,-0.6327 -0.21705,-2.1166 -0.0986,-3.2975 0.26546,-2.6466 -20.17777,-10.0582 -24.48631,-8.8772 -2.25853,0.6165 -3.00596,2.3449 -3.33812,7.7011 -0.73417,11.8392 0.0794,12.9603 8.50115,11.7141 7.56855,-1.1206 10.11459,-1.8309 16.17638,-4.5148 z"
             style="fill:#2745db;fill-opacity:1;stroke-width:1.39952302"
             inkscape:connector-curvature="0" />
          <path
             inkscape:connector-curvature="0"
             style="fill:#e1b53a;fill-opacity:1;stroke-width:1.44277477"
             d="m -659.21681,1692.785 c 9.40406,-0.103 10.97541,-0.5424 11.71071,-3.2834 0.73289,-2.732 -0.30074,-3.8066 -7.54036,-7.8387 -4.61422,-2.5704 -10.22891,-5.1665 -12.47707,-5.7695 -3.55442,-0.9535 -4.37234,-0.5027 -6.27271,3.4563 -1.20186,2.5038 -2.21303,6.2659 -2.24699,8.3599 -0.0749,4.6238 1.95624,5.2364 16.82633,5.0754 z"
             id="path4062"
             inkscape:transform-center-x="-7.068069"
             inkscape:transform-center-y="-0.26672281" />
          <path
             inkscape:connector-curvature="0"
             style="fill:#d40125;fill-opacity:1;stroke-width:2.12107754"
             d="m -686.76846,1718.2 c 19.03432,5.5929 22.01743,5.7574 24.03874,1.3255 2.35132,-5.1557 -3.84872,-16.7214 -12.81949,-23.9126 -6.25631,-5.0159 -6.31779,-5.0134 -10.40259,0.4042 -5.20827,6.9074 -10.19265,16.5206 -9.52056,18.3625 0.28359,0.7781 4.20045,2.4972 8.7039,3.8204 z"
             id="path4064" />
          <path
             inkscape:connector-curvature="0"
             style="fill:#2745db;fill-opacity:1;stroke-width:1.17349255"
             d="m -684.12029,1740.6932 c 1.76843,0.3086 3.3582,0.1356 3.53286,-0.3855 0.17481,-0.5213 0.83609,-1.5759 1.46945,-2.3434 1.41957,-1.7204 -9.36714,-16.4206 -12.92009,-17.6075 -1.86123,-0.624 -3.18824,0.2316 -5.91824,3.8087 -6.03419,7.9064 -5.9903,9.0672 0.45901,12.1273 5.79611,2.7499 7.90148,3.4425 13.37708,4.4002 z"
             id="path4066"
             inkscape:transform-center-x="-3.3195842"
             inkscape:transform-center-y="3.0283152" />
          <path
             inkscape:connector-curvature="0"
             style="fill:#e1b53a;fill-opacity:1;stroke-width:1.52198005"
             d="m -779.88762,1765.8278 c 4.12448,13.6986 5.19678,15.5685 8.64184,15.0681 4.0075,-0.5824 8.49379,-8.8349 9.27539,-17.063 0.5455,-5.7388 0.51987,-5.775 -4.32464,-6.1403 -6.17679,-0.466 -13.88479,0.2566 -14.72302,1.38 -0.35416,0.4741 0.15466,3.5141 1.13043,6.7552 z"
             id="path4068"
             inkscape:transform-center-x="-1.9311008"
             inkscape:transform-center-y="3.2184944" />
          <path
             inkscape:connector-curvature="0"
             style="fill:#e1b53a;fill-opacity:1;stroke-width:0.67212105"
             d="m -894.93888,1660.4815 c -0.95235,-0.3876 -1.67125,-0.9553 -1.59759,-1.2613 0.0737,-0.3062 0.0734,-1.0192 -7e-4,-1.5843 -0.16598,-1.2666 9.53942,-5.1221 11.62485,-4.6179 1.09314,0.263 1.4771,1.0818 1.71455,3.6481 0.52485,5.6725 0.15063,6.2225 -3.9102,5.7469 -3.64944,-0.4276 -4.88196,-0.7316 -7.83089,-1.9316 z"
             id="path4070" />
          <path
             id="path4072"
             d="m -867.02904,1722.1151 c -12.26589,4.9007 -14.23317,5.2019 -15.85332,2.4259 -1.88462,-3.2292 1.49501,-11.2163 6.98803,-16.5137 3.83082,-3.6949 3.87175,-3.6972 6.92218,-0.4085 3.88939,4.193 7.80135,10.1754 7.47218,11.427 -0.13888,0.5286 -2.62705,1.9097 -5.52907,3.0693 z"
             style="fill:#2745db;fill-opacity:1;stroke-width:1.405231"
             inkscape:connector-curvature="0" />
          <path
             inkscape:connector-curvature="0"
             style="fill:#d40125;fill-opacity:1;stroke-width:1.70346534"
             d="m -801.7716,1750.7168 c -0.2524,2.138 -0.55348,8.32 -0.66904,13.7376 -0.276,12.9487 3.06875,12.9438 10.24597,-0.014 6.20355,-11.2006 6.24575,-15.0335 0.18491,-16.753 -6.88753,-1.9543 -9.2602,-1.2176 -9.76184,3.0298 z"
             id="path4074"
             inkscape:transform-center-x="1.5483381"
             inkscape:transform-center-y="6.1111172" />
          <path
             inkscape:connector-curvature="0"
             style="fill:#2745db;fill-opacity:1;stroke-width:1.05831623"
             d="m -818.61408,1768.6858 c -1.21262,1.0728 -2.51602,1.6903 -2.89634,1.3724 -0.3805,-0.3179 -1.38663,-0.816 -2.2357,-1.1065 -1.9032,-0.6514 -0.55819,-17.0399 1.61105,-19.6298 1.13525,-1.3584 2.5589,-1.3277 6.34573,0.1307 8.37014,3.2249 8.88462,4.1374 5.37476,9.5343 -3.15448,4.8502 -4.44495,6.3767 -8.19963,9.6984 z"
             id="path4076"
             inkscape:transform-center-x="-0.73777735"
             inkscape:transform-center-y="5.3772367" />
          <text
             id="text4080"
             y="1678.6753"
             x="-846.92065"
             style="font-style:normal;font-weight:normal;font-size:21.15979576px;line-height:1.25;font-family:sans-serif;letter-spacing:0px;word-spacing:0px;fill:#fbdd74;fill-opacity:1;stroke:none;stroke-width:0.52899492"
             xml:space="preserve"><tspan
               style="font-style:normal;font-variant:normal;font-weight:normal;font-stretch:normal;font-family:'Goudy Stout';-inkscape-font-specification:'Goudy Stout';fill:#fbdd74;fill-opacity:1;stroke-width:0.52899492"
               y="1678.6753"
               x="-846.92065"
               id="tspan4078"
               sodipodi:role="line">smart</tspan></text>
          <text
             transform="rotate(-17.593013,880.7043,1905.2018)"
             xml:space="preserve"
             style="font-style:normal;font-weight:normal;font-size:23.18942451px;line-height:1.25;font-family:sans-serif;letter-spacing:0px;word-spacing:0px;fill:#fbdd74;fill-opacity:1;stroke:none;stroke-width:0.57973564"
             id="text4086"><textPath
               id="textPath4084"
               xlink:href="#path4232"><tspan
   style="font-style:normal;font-variant:normal;font-weight:normal;font-stretch:normal;font-family:'Goudy Stout';-inkscape-font-specification:'Goudy Stout';fill:#fbdd74;fill-opacity:1;stroke-width:0.57973564"
   id="tspan4082">llammas</tspan></textPath></text>
          <path
             id="path4088"
             d="m -894.37637,1696.8814 c -1.57865,-0.2948 -2.85651,-0.9383 -2.83962,-1.4297 0.0168,-0.4916 -0.20688,-1.5825 -0.4972,-2.4241 -0.65059,-1.8863 12.99349,-10.8252 16.34252,-10.7068 1.75514,0.06 2.59907,1.1929 3.76606,5.0456 2.57944,8.5157 2.17906,9.4746 -4.18385,10.0185 -5.71836,0.4885 -7.69957,0.4094 -12.5879,-0.5036 z"
             style="fill:#e1b53a;fill-opacity:1;stroke-width:1.04981053"
             inkscape:connector-curvature="0" />
          <path
             inkscape:connector-curvature="0"
             style="fill:#e1b53a;fill-opacity:1;stroke-width:1.04981053"
             d="m -894.37637,1696.8814 c -1.57865,-0.2948 -2.85651,-0.9383 -2.83962,-1.4297 0.0168,-0.4916 -0.20688,-1.5825 -0.4972,-2.4241 -0.65059,-1.8863 12.99349,-10.8252 16.34252,-10.7068 1.75514,0.06 2.59907,1.1929 3.76606,5.0456 2.57944,8.5157 2.17906,9.4746 -4.18385,10.0185 -5.71836,0.4885 -7.69957,0.4094 -12.5879,-0.5036 z"
             id="path4090" />
          <path
             inkscape:connector-curvature="0"
             style="fill:#e1b53a;fill-opacity:1;stroke-width:1.04981053"
             d="m -894.37637,1696.8814 c -1.57865,-0.2948 -2.85651,-0.9383 -2.83962,-1.4297 0.0168,-0.4916 -0.20688,-1.5825 -0.4972,-2.4241 -0.65059,-1.8863 12.99349,-10.8252 16.34252,-10.7068 1.75514,0.06 2.59907,1.1929 3.76606,5.0456 2.57944,8.5157 2.17906,9.4746 -4.18385,10.0185 -5.71836,0.4885 -7.69957,0.4094 -12.5879,-0.5036 z"
             id="path4092" />
          <path
             id="path4094"
             d="m -894.37637,1696.8814 c -1.57865,-0.2948 -2.85651,-0.9383 -2.83962,-1.4297 0.0168,-0.4916 -0.20688,-1.5825 -0.4972,-2.4241 -0.65059,-1.8863 12.99349,-10.8252 16.34252,-10.7068 1.75514,0.06 2.59907,1.1929 3.76606,5.0456 2.57944,8.5157 2.17906,9.4746 -4.18385,10.0185 -5.71836,0.4885 -7.69957,0.4094 -12.5879,-0.5036 z"
             style="fill:#e1b53a;fill-opacity:1;stroke-width:1.04981053"
             inkscape:connector-curvature="0" />
        </g>
      </g>
    </g>
  </g>
</svg>
