<?xml version="1.0" encoding="UTF-8" standalone="no"?>
<!-- Created with Inkscape (http://www.inkscape.org/) -->

<svg
   xmlns:dc="http://purl.org/dc/elements/1.1/"
   xmlns:cc="http://creativecommons.org/ns#"
   xmlns:rdf="http://www.w3.org/1999/02/22-rdf-syntax-ns#"
   xmlns:svg="http://www.w3.org/2000/svg"
   xmlns="http://www.w3.org/2000/svg"
   xmlns:sodipodi="http://sodipodi.sourceforge.net/DTD/sodipodi-0.dtd"
   xmlns:inkscape="http://www.inkscape.org/namespaces/inkscape"
   width="105.83334mm"
   height="62.055332mm"
   viewBox="0 0 105.83334 62.055334"
   version="1.1"
   id="svg3016"
   inkscape:version="0.92.2 (5c3e80d, 2017-08-06)"
   sodipodi:docname="llamaBusBody.svg">
  <defs
     id="defs3010" />
  <sodipodi:namedview
     id="base"
     pagecolor="#ffffff"
     bordercolor="#666666"
     borderopacity="1.0"
     inkscape:pageopacity="0.0"
     inkscape:pageshadow="2"
     inkscape:zoom="1.1416016"
     inkscape:cx="189.41015"
     inkscape:cy="195.40103"
     inkscape:document-units="mm"
     inkscape:current-layer="layer1"
     showgrid="false"
     fit-margin-top="0"
     fit-margin-left="0"
     fit-margin-right="0"
     fit-margin-bottom="0"
     inkscape:window-width="1024"
     inkscape:window-height="705"
     inkscape:window-x="-8"
     inkscape:window-y="-8"
     inkscape:window-maximized="1" />
  <metadata
     id="metadata3013">
    <rdf:RDF>
      <cc:Work
         rdf:about="">
        <dc:format>image/svg+xml</dc:format>
        <dc:type
           rdf:resource="http://purl.org/dc/dcmitype/StillImage" />
        <dc:title></dc:title>
      </cc:Work>
    </rdf:RDF>
  </metadata>
  <g
     inkscape:label="Layer 1"
     inkscape:groupmode="layer"
     id="layer1"
     transform="translate(48.924916,-181.7784)">
    <g
       id="g10321">
      <path
         sodipodi:nodetypes="ccaaac"
         inkscape:connector-curvature="0"
         id="path11554"
         d="m -32.81765,236.16117 16.081791,-0.15446 c 0,0 -0.480715,-4.17485 -1.651407,-5.68569 -1.608835,-2.0763 -4.15934,-3.60426 -6.62915,-3.6707 -2.191217,-0.0589 -4.565654,1.1178 -6.017227,2.93657 -1.368383,1.71448 -1.784007,6.57428 -1.784007,6.57428"
         style="fill:#2f2a28;fill-opacity:1;stroke:none;stroke-width:0.09989497px;stroke-linecap:butt;stroke-linejoin:miter;stroke-opacity:1" />
      <path
         style="fill:#fbdd74;fill-opacity:1;stroke:none;stroke-width:1.45493972;stroke-linecap:round;stroke-linejoin:round;stroke-miterlimit:4;stroke-dasharray:none;stroke-opacity:1"
         d="m 49.057495,227.28926 c 0,0 4.389132,-5.80918 4.505734,-9.27309 0.08107,-2.40846 -2.691566,-6.66127 -2.691566,-6.66127 v 0 l -4.475034,0.11183 0.14098,15.82346 z"
         id="path11731"
         inkscape:connector-curvature="0"
         sodipodi:nodetypes="caccccc" />
      <path
         sodipodi:nodetypes="cacscc"
         inkscape:connector-curvature="0"
         id="path11733"
         d="m 48.564066,226.65487 c 0,0 4.213845,-3.8865 4.634827,-6.51938 0.33794,-2.11354 -1.903224,-6.13258 -1.903224,-6.13258 0,0 -0.126442,4.00411 -0.528673,5.95635 -0.237066,1.15063 -2.442523,5.72172 -3.006264,6.81889 z"
         style="fill:#f9cc30;fill-opacity:1;stroke:none;stroke-width:0.09492598px;stroke-linecap:butt;stroke-linejoin:miter;stroke-opacity:1" />
      <path
         sodipodi:nodetypes="caacac"
         inkscape:connector-curvature="0"
         id="path11729"
         d="m 53.868547,216.29376 c 0,0 1.197279,0.4836 1.65651,0.91639 0.303609,0.28612 0.700547,0.64131 0.669652,1.05734 -0.122098,1.64424 -3.234712,3.742 -3.234712,3.742 0,0 1.11403,-1.9022 1.260999,-2.96657 0.126368,-0.9152 -0.352449,-2.74916 -0.352449,-2.74916 z"
         style="fill:#2f2a28;fill-opacity:1;stroke:#2f2a28;stroke-width:1.42388988;stroke-linecap:round;stroke-linejoin:round;stroke-miterlimit:4;stroke-dasharray:none;stroke-opacity:1" />
      <path
         inkscape:connector-curvature="0"
         style="opacity:1;fill:#fbdd74;fill-opacity:1;stroke:none;stroke-width:0.35877538;stroke-linecap:round;stroke-miterlimit:4;stroke-dasharray:none;stroke-dashoffset:0;stroke-opacity:1"
         d="m -40.476988,191.35041 c -2.725469,0 -4.919653,1.97175 -4.919653,4.42111 v 35.04565 c 0,2.44936 2.194184,4.42112 4.919653,4.42112 h 7.659338 a 8.0079779,8.0079779 0 0 1 7.978788,-7.42536 8.0079779,8.0079779 0 0 1 7.986025,7.42536 h 36.746184 a 8.0079779,8.0079779 0 0 1 7.986021,-7.57314 8.0079779,8.0079779 0 0 1 7.9925,7.57314 h 6.342995 c 2.725466,0 4.889075,-1.9719 4.919643,-4.42112 l 0.328538,-26.33304 c 0.07665,-6.1422 -6.630693,-13.13372 -11.656616,-13.13372 z"
         id="path11163" />
      <path
         sodipodi:nodetypes="ccaaccc"
         inkscape:connector-curvature="0"
         id="path11611"
         d="m -44.447433,224.21255 0.12626,-19.55638 c 0,0 0.145907,9.71165 2.355321,13.83506 1.895073,3.53677 5.588921,5.79784 8.76127,8.2547 1.332352,1.03188 4.277163,2.69537 4.277163,2.69537 l -15.103504,-0.13945 z"
         style="opacity:0.8;fill:#f9c81f;fill-opacity:1;stroke:none;stroke-width:0.09492598px;stroke-linecap:butt;stroke-linejoin:miter;stroke-opacity:1" />
      <path
         style="fill:#2f2a28;fill-opacity:1;stroke:none;stroke-width:0.09743083px;stroke-linecap:butt;stroke-linejoin:miter;stroke-opacity:1"
         d="m 19.771371,236.16117 16.081791,-0.14693 c 0,0 -0.480716,-3.97143 -1.651407,-5.40865 -1.608835,-1.97513 -4.159341,-3.42864 -6.629151,-3.49184 -2.191217,-0.056 -4.565653,1.06333 -6.017226,2.79348 -1.368384,1.63094 -1.784007,6.25394 -1.784007,6.25394"
         id="path11567"
         inkscape:connector-curvature="0"
         sodipodi:nodetypes="ccaaac" />
      <path
         sodipodi:nodetypes="cscscccscc"
         inkscape:connector-curvature="0"
         id="path11171"
         d="M -40.477049,191.35041 H 35.80641 c 5.025923,0 8.634055,5.32135 8.634055,5.32135 v 0 c 0,0 0,0 -0.02974,0.004 l -89.652998,0.17006 c 0,0 -0.260571,-0.005 -0.132158,-0.007 l -0.154413,-1.07267 c -0.233983,-1.62547 2.057175,-4.61565 5.051787,-4.41409 z"
         style="opacity:0.98000004;fill:#d18b00;fill-opacity:1;stroke:none;stroke-width:0.35877538;stroke-linecap:round;stroke-miterlimit:4;stroke-dasharray:none;stroke-dashoffset:0;stroke-opacity:1" />
      <path
         sodipodi:nodetypes="caaccc"
         inkscape:connector-curvature="0"
         id="path11613"
         d="m -45.374433,196.83824 c 0,0 3.446838,-2.19424 5.345423,-2.90845 1.844938,-0.69402 3.877157,-0.7454 5.769252,-1.29805 1.153258,-0.33686 3.389437,-1.22597 3.389437,-1.22597 l -12.476009,0.36057 -2.028103,5.0719"
         style="opacity:0.8;fill:#b07602;fill-opacity:1;stroke:none;stroke-width:0.09492598px;stroke-linecap:butt;stroke-linejoin:miter;stroke-opacity:1" />
      <rect
         y="221.36476"
         x="-45.396698"
         height="2.8477798"
         width="92.371544"
         id="rect11173"
         style="opacity:0.98000004;fill:#cd0437;fill-opacity:1;stroke:none;stroke-width:0.38881552;stroke-linecap:round;stroke-linejoin:round;stroke-miterlimit:4;stroke-dasharray:none;stroke-dashoffset:0;stroke-opacity:1" />
      <rect
         style="opacity:1;fill:#d10000;fill-opacity:0;stroke:none;stroke-width:0.558779;stroke-linecap:round;stroke-linejoin:round;stroke-miterlimit:4;stroke-dasharray:none;stroke-dashoffset:0;stroke-opacity:1"
         id="rect11175"
         width="92.603325"
         height="7.2584586"
         x="-45.320034"
         y="214.66681" />
      <rect
         ry="0.43308198"
         y="217.56421"
         x="39.014072"
         height="1.6656927"
         width="5.6685963"
         id="rect11177"
         style="opacity:1;fill:#cc0036;fill-opacity:1;stroke:none;stroke-width:0.28702033;stroke-linecap:round;stroke-linejoin:round;stroke-miterlimit:4;stroke-dasharray:none;stroke-dashoffset:0;stroke-opacity:1" />
      <rect
         style="opacity:1;fill:#cc0036;fill-opacity:1;stroke:none;stroke-width:0.28702033;stroke-linecap:round;stroke-linejoin:round;stroke-miterlimit:4;stroke-dasharray:none;stroke-dashoffset:0;stroke-opacity:1"
         id="rect11179"
         width="5.6685963"
         height="1.6656927"
         x="-42.764767"
         y="209.20866"
         ry="0.43308198" />
      <rect
         ry="0.43308198"
         y="199.71593"
         x="-42.764767"
         height="1.6656927"
         width="5.6685963"
         id="rect11181"
         style="opacity:1;fill:#cc0036;fill-opacity:1;stroke:none;stroke-width:0.28702033;stroke-linecap:round;stroke-linejoin:round;stroke-miterlimit:4;stroke-dasharray:none;stroke-dashoffset:0;stroke-opacity:1" />
      <rect
         style="opacity:0.98000004;fill:#cd0337;fill-opacity:0.99607843;stroke:none;stroke-width:0.31755784;stroke-linecap:round;stroke-linejoin:round;stroke-miterlimit:4;stroke-dasharray:none;stroke-dashoffset:0;stroke-opacity:1"
         id="rect11201"
         width="92.424706"
         height="1.8985198"
         x="-45.449856"
         y="213.56915" />
      <rect
         style="opacity:0.98000004;fill:#336fd7;fill-opacity:1;stroke:none;stroke-width:0.52023494;stroke-linecap:round;stroke-linejoin:round;stroke-miterlimit:4;stroke-dasharray:none;stroke-dashoffset:0;stroke-opacity:1"
         id="rect11217"
         width="13.718663"
         height="11.075106"
         x="-18.54619"
         y="199.79042"
         ry="1.0618863" />
      <rect
         ry="1.0618863"
         y="199.79042"
         x="-34.683857"
         height="11.075106"
         width="13.718663"
         id="rect11219"
         style="opacity:0.98000004;fill:#3570d7;fill-opacity:1;stroke:none;stroke-width:0.52023494;stroke-linecap:round;stroke-linejoin:round;stroke-miterlimit:4;stroke-dasharray:none;stroke-dashoffset:0;stroke-opacity:0.94117647" />
      <rect
         ry="1.0618863"
         y="199.76869"
         x="29.486092"
         height="11.075106"
         width="13.718663"
         id="rect11221"
         style="opacity:0.98000004;fill:#3771d5;fill-opacity:1;stroke:none;stroke-width:0.52023494;stroke-linecap:round;stroke-linejoin:round;stroke-miterlimit:4;stroke-dasharray:none;stroke-dashoffset:0;stroke-opacity:1" />
      <path
         sodipodi:nodetypes="caacsaasc"
         inkscape:connector-curvature="0"
         id="path11357"
         d="m -31.258946,235.37035 c 0,0 2.644637,-2.64568 4.362335,-3.18564 1.357535,-0.42672 2.934625,-0.40459 4.268068,0.0923 1.792165,0.66786 4.418577,3.66022 4.418577,3.66022 0,0 -0.528641,-2.09367 -1.308795,-2.94403 -0.626999,-0.68344 -1.454023,-1.52817 -2.40043,-1.92175 -1.319156,-0.54853 -2.867523,-0.80904 -4.258628,-0.48359 -1.579813,0.36961 -3.103091,1.27272 -4.090739,2.63771 -0.461614,0.63798 -0.990388,2.14476 -0.990388,2.14476 z"
         style="fill:#3c3632;fill-opacity:0.53211012;stroke:none;stroke-width:0.09458239px;stroke-linecap:butt;stroke-linejoin:miter;stroke-opacity:1" />
      <path
         sodipodi:nodetypes="ccasccaacc"
         inkscape:connector-curvature="0"
         id="path11404"
         d="m 32.912148,229.30185 h 13.564258 c 0,0 0.142538,1.67806 0,2.49865 -0.103514,0.59593 -0.354578,1.16089 -0.61192,1.70828 -0.475976,1.01242 -2.466809,1.59005 -2.466809,1.59005 h -7.354712 c 0,0 -0.352856,-1.92339 -0.746232,-2.8086 -0.340518,-0.76627 -0.821025,-1.47629 -1.371543,-2.10877 -0.293611,-0.33732 -1.013042,-0.87961 -1.013042,-0.87961 h 13.564258"
         style="fill:#d18b00;fill-opacity:1;stroke:none;stroke-width:0.09492598px;stroke-linecap:butt;stroke-linejoin:miter;stroke-opacity:1" />
      <path
         inkscape:connector-curvature="0"
         id="path11406"
         d="m -19.866748,229.30189 c 0,0 0.644928,0.57058 0.922933,0.89754 0.55086,0.64777 1.103435,1.31959 1.461712,2.09078 0.408139,0.8785 0.746244,2.80866 0.746244,2.80866 h 29.058662 7.354725 c 0,0 0.352684,-1.92346 0.746059,-2.80866 0.340518,-0.76627 0.821088,-1.47628 1.371607,-2.10876 0.29361,-0.33732 1.013038,-0.87956 1.013038,-0.87956 H 9.2440125 -6.3025285 Z"
         style="fill:#d18b00;fill-opacity:1;stroke:none;stroke-width:0.09492598px;stroke-linecap:butt;stroke-linejoin:miter;stroke-opacity:1" />
      <path
         style="fill:#d18b00;fill-opacity:1;stroke:none;stroke-width:0.09200282px;stroke-linecap:butt;stroke-linejoin:miter;stroke-opacity:1"
         d="m -29.876685,229.4413 -15.103504,-0.13945 c 0,0 -0.4073,1.89203 -0.108175,2.76433 0.320469,0.9345 1.324667,1.93613 1.908951,2.26713 0.962946,0.54559 2.028756,0.76552 2.028756,0.76552 l 8.333007,0.13946 c 0,0 0.331459,-1.9234 0.700979,-2.8086 0.31987,-0.76628 0.771238,-1.47629 1.288373,-2.10878 0.275809,-0.33732 0.951613,-0.87961 0.951613,-0.87961 l -15.103504,-0.13945"
         id="path11410"
         inkscape:connector-curvature="0"
         sodipodi:nodetypes="ccasccaacc" />
      <rect
         style="opacity:1;fill:#fbdd74;fill-opacity:0.98039216;stroke:#050402;stroke-width:0.55271089;stroke-linecap:round;stroke-linejoin:round;stroke-miterlimit:4;stroke-dasharray:none;stroke-dashoffset:0;stroke-opacity:1"
         id="rect11203"
         width="18.432487"
         height="32.671387"
         x="-0.78418708"
         y="198.78613"
         ry="3.4571776" />
      <rect
         style="opacity:0.98000004;fill:#3771d5;fill-opacity:1;stroke:none;stroke-width:0.39268935;stroke-linecap:round;stroke-linejoin:round;stroke-miterlimit:4;stroke-dasharray:none;stroke-dashoffset:0;stroke-opacity:1"
         id="rect11205"
         width="6.2521296"
         height="13.84621"
         x="1.4139692"
         y="200.69954"
         ry="1.327581" />
      <rect
         ry="1.327581"
         y="200.69954"
         x="9.1980085"
         height="13.84621"
         width="6.2521296"
         id="rect11207"
         style="opacity:0.98000004;fill:#3771d5;fill-opacity:1;stroke:none;stroke-width:0.39268935;stroke-linecap:round;stroke-linejoin:round;stroke-miterlimit:4;stroke-dasharray:none;stroke-dashoffset:0;stroke-opacity:1" />
      <rect
         ry="1.327581"
         y="215.69785"
         x="1.4139692"
         height="13.84621"
         width="6.2521296"
         id="rect11211"
         style="opacity:0.98000004;fill:#3771d5;fill-opacity:1;stroke:none;stroke-width:0.39268935;stroke-linecap:round;stroke-linejoin:round;stroke-miterlimit:4;stroke-dasharray:none;stroke-dashoffset:0;stroke-opacity:1" />
      <rect
         style="opacity:0.98000004;fill:#3b73d3;fill-opacity:1;stroke:none;stroke-width:0.39268935;stroke-linecap:round;stroke-linejoin:round;stroke-miterlimit:4;stroke-dasharray:none;stroke-dashoffset:0;stroke-opacity:1"
         id="rect11213"
         width="6.2521296"
         height="13.84621"
         x="9.1980085"
         y="215.69785"
         ry="1.327581" />
      <path
         sodipodi:nodetypes="sacss"
         inkscape:connector-curvature="0"
         id="path11643"
         d="m 42.202404,207.68064 c -1.340905,-1.49763 0.0036,-4.21378 -1.507811,-5.55205 -1.576441,-1.39599 -6.476728,-1.33658 -6.476728,-1.33658 0,0 7.185539,-1.07614 8.128885,-0.14067 0.862101,0.85492 -0.144346,7.0293 -0.144346,7.0293 z"
         style="opacity:0.8;fill:#5284da;fill-opacity:1;stroke:none;stroke-width:0.10023263px;stroke-linecap:butt;stroke-linejoin:miter;stroke-opacity:1" />
      <path
         style="opacity:0.8;fill:#5284da;fill-opacity:1;stroke:none;stroke-width:0.10023263px;stroke-linecap:butt;stroke-linejoin:miter;stroke-opacity:1"
         d="m 30.3618,203.20241 c 1.340905,1.49763 -0.0036,4.21378 1.507811,5.55205 1.576441,1.39599 6.476728,1.33658 6.476728,1.33658 0,0 -7.185539,1.07615 -8.128885,0.14068 -0.862101,-0.85493 0.144346,-7.02931 0.144346,-7.02931 z"
         id="path11645"
         inkscape:connector-curvature="0"
         sodipodi:nodetypes="sacss" />
      <path
         sodipodi:nodetypes="ccccc"
         style="fill:#6c97e2;fill-opacity:1;stroke:none;stroke-width:0.09492598px;stroke-linecap:butt;stroke-linejoin:miter;stroke-opacity:1"
         d="m 40.603647,199.84893 -7.691499,10.69564 0.966715,0.0361 8.113008,-10.74521 z"
         id="path11427"
         inkscape:connector-curvature="0" />
      <path
         sodipodi:nodetypes="ccccc"
         style="fill:#6c97e2;fill-opacity:1;stroke:none;stroke-width:0.09492598px;stroke-linecap:butt;stroke-linejoin:miter;stroke-opacity:1"
         d="m 42.8478,200.22766 -6.845496,10.38622 -1.395705,-0.0401 7.754807,-10.63813 z"
         id="path11429"
         inkscape:connector-curvature="0" />
      <path
         id="path11452"
         d="m 16.551966,235.23829 h 3.467579 c 0.230765,-4.24356 3.736219,-7.56776 7.986027,-7.57314 4.252305,0.004 7.761586,3.3271 7.992493,7.57314 h 6.343002 c 2.725468,0 4.889068,-1.9719 4.919644,-4.42112 l 0.03681,-19.00598"
         style="opacity:0.98000004;fill:none;fill-opacity:1;stroke:#cc0036;stroke-width:1.42388988;stroke-linecap:round;stroke-linejoin:round;stroke-miterlimit:4;stroke-dasharray:none;stroke-dashoffset:0;stroke-opacity:1"
         inkscape:connector-curvature="0"
         sodipodi:nodetypes="ccccscc" />
      <path
         id="path11445"
         d="m -45.270442,204.65617 v 26.161 c 0,2.44936 2.194184,4.42112 4.919654,4.42112 h 7.659338 a 8.0079776,8.0079776 0 0 1 7.978788,-7.42536 8.0079776,8.0079776 0 0 1 7.986024,7.42536 H 2.1873652"
         style="opacity:0.98000004;fill:none;fill-opacity:1;stroke:#cc0036;stroke-width:1.42388988;stroke-linecap:round;stroke-linejoin:round;stroke-miterlimit:4;stroke-dasharray:none;stroke-dashoffset:0;stroke-opacity:1"
         inkscape:connector-curvature="0" />
      <path
         id="path11438"
         d="m -37.376931,191.35041 h -2.973857 v 0 c -2.537748,0 -5.2013,1.88798 -5.04195,4.91665"
         style="opacity:0.98000004;fill:none;fill-opacity:1;stroke:#cc0036;stroke-width:1.42388988;stroke-linecap:round;stroke-linejoin:round;stroke-miterlimit:4;stroke-dasharray:none;stroke-dashoffset:0;stroke-opacity:1"
         inkscape:connector-curvature="0"
         sodipodi:nodetypes="cccc" />
      <circle
         r="1.1865749"
         cy="201.79788"
         cx="-45.386189"
         id="path11459"
         style="opacity:1;fill:#cd0437;fill-opacity:1;stroke:none;stroke-width:1.21135104;stroke-linecap:round;stroke-linejoin:round;stroke-miterlimit:4;stroke-dasharray:none;stroke-dashoffset:0;stroke-opacity:1" />
      <circle
         r="1.1865749"
         cy="235.15532"
         cx="13.882954"
         id="path11459-1"
         style="opacity:1;fill:#cd0437;fill-opacity:1;stroke:none;stroke-width:1.21135104;stroke-linecap:round;stroke-linejoin:round;stroke-miterlimit:4;stroke-dasharray:none;stroke-dashoffset:0;stroke-opacity:1" />
      <rect
         ry="1.5910122"
         y="-232.35524"
         x="-48.212925"
         height="6.1192498"
         width="14.161063"
         id="rect11169"
         style="opacity:1;fill:#99be91;fill-opacity:1;stroke:none;stroke-width:0.29099011;stroke-linecap:round;stroke-linejoin:round;stroke-miterlimit:4;stroke-dasharray:none;stroke-dashoffset:0;stroke-opacity:1"
         transform="scale(1,-1)" />
      <path
         id="path11481"
         d="m -40.97735,226.38626 h -5.644606 c -0.881422,0 -1.591015,0.70958 -1.591015,1.59102 v 2.93723 c 0,0.8814 0.709593,1.59099 1.591015,1.59099 v 0 h 10.979036 c 0.881422,0 1.591015,-0.70959 1.591015,-1.59099 l -4e-6,-1.46241"
         style="opacity:1;fill:none;fill-opacity:1;stroke:#cd0437;stroke-width:1.42388988;stroke-linecap:round;stroke-linejoin:round;stroke-miterlimit:4;stroke-dasharray:none;stroke-dashoffset:0;stroke-opacity:1"
         inkscape:connector-curvature="0" />
      <circle
         style="opacity:1;fill:#cd0437;fill-opacity:1;stroke:none;stroke-width:1.42388988;stroke-linecap:round;stroke-linejoin:round;stroke-miterlimit:4;stroke-dasharray:none;stroke-dashoffset:0;stroke-opacity:1"
         id="circle11483"
         cx="-38.145168"
         cy="226.32303"
         r="1.1865749" />
      <rect
         style="opacity:1;fill:#99be91;fill-opacity:1;stroke:none;stroke-width:0.35877538;stroke-linecap:round;stroke-linejoin:round;stroke-miterlimit:4;stroke-dasharray:none;stroke-dashoffset:0;stroke-opacity:1"
         id="rect11167"
         width="9.2788601"
         height="6.0514307"
         x="41.266747"
         y="227.39505"
         ry="1.5733787" />
      <path
         sodipodi:nodetypes="cc"
         id="path11501"
         d="m 44.695949,227.39072 3.409933,0.004"
         style="opacity:1;fill:none;fill-opacity:1;stroke:#cc0036;stroke-width:1.42388988;stroke-linecap:round;stroke-linejoin:round;stroke-miterlimit:4;stroke-dasharray:none;stroke-dashoffset:0;stroke-opacity:0.98039216"
         inkscape:connector-curvature="0" />
      <path
         style="fill:#3c3632;fill-opacity:0.53211012;stroke:none;stroke-width:0.09458239px;stroke-linecap:butt;stroke-linejoin:miter;stroke-opacity:1"
         d="m 21.330074,235.37035 c 0,0 2.644637,-2.64568 4.362336,-3.18564 1.357534,-0.42672 2.934624,-0.40459 4.268067,0.0923 1.792166,0.66786 4.418577,3.66022 4.418577,3.66022 0,0 -0.528641,-2.09367 -1.308794,-2.94403 -0.627,-0.68344 -1.454024,-1.52817 -2.40043,-1.92175 -1.319156,-0.54853 -2.867523,-0.80904 -4.258628,-0.48359 -1.579814,0.36961 -3.103092,1.27272 -4.090739,2.63771 -0.461615,0.63798 -0.990389,2.14476 -0.990389,2.14476 z"
         id="path11583"
         inkscape:connector-curvature="0"
         sodipodi:nodetypes="caacsaasc" />
      <path
         sodipodi:nodetypes="casccsssscc"
         inkscape:connector-curvature="0"
         id="path11605"
         d="m -44.998982,227.46607 c 0,0 -1.19197,1.01938 -1.256155,1.73378 -0.05918,0.65864 0.202493,1.78476 0.854183,1.78476 h 7.134956 3.307234 c 0,0 -0.221153,0.5471 -0.464592,0.54821 l -10.863999,0.0488 c -0.339132,0 -0.859005,0.0108 -0.925766,-0.32655 -0.263847,-1.33364 -0.09387,-2.27001 -0.07823,-3.38487 0.0086,-0.61236 2.292352,-0.40409 2.292352,-0.40409 z"
         style="opacity:0.8;fill:#79a96f;fill-opacity:1;stroke:none;stroke-width:0.09422784;stroke-linecap:round;stroke-linejoin:round;stroke-miterlimit:4;stroke-dasharray:none;stroke-opacity:1" />
      <path
         style="opacity:0.8;fill:#79aa6e;fill-opacity:1;stroke:none;stroke-width:0.10056534;stroke-linecap:round;stroke-linejoin:round;stroke-miterlimit:4;stroke-dasharray:none;stroke-opacity:1"
         d="m 43.195967,227.53893 c 0,0 -0.975681,0.52568 -1.139177,1.0049 -0.329023,0.96442 0.137137,3.00173 0.578492,3.00173 h 4.832122 2.239813 c 0,0 -0.149775,0.92015 -0.314644,0.92201 l -7.357603,0.0821 c -0.229676,0 -0.581758,0.0183 -0.626972,-0.54922 -0.178689,-2.24299 -0.02751,-2.33946 -0.01692,-4.21453 0.0058,-1.0299 1.804892,-0.24695 1.804892,-0.24695 z"
         id="path11609"
         inkscape:connector-curvature="0"
         sodipodi:nodetypes="casccsssscc" />
      <path
         inkscape:connector-curvature="0"
         d="m 46.017509,227.3951 h 2.95472 c 0.871651,0 1.573378,0.70173 1.573378,1.57341 v 1.0473 m 0,0 v 1.85734 c 0,0.87165 -0.701726,1.57341 -1.573377,1.57341 h -6.132103 c -0.871653,0 -1.520531,-0.70338 -1.57338,-1.57341 l -0.101986,-1.67899"
         style="opacity:1;fill:none;fill-opacity:1;stroke:#cc0036;stroke-width:1.42388988;stroke-linecap:round;stroke-linejoin:round;stroke-miterlimit:4;stroke-dasharray:none;stroke-dashoffset:0;stroke-opacity:0.98039216"
         id="rect11489" />
      <circle
         style="opacity:1;fill:#cd0437;fill-opacity:1;stroke:none;stroke-width:1.21135104;stroke-linecap:round;stroke-linejoin:round;stroke-miterlimit:4;stroke-dasharray:none;stroke-dashoffset:0;stroke-opacity:1"
         id="circle11509"
         cx="42.053673"
         cy="227.6288"
         r="1.1865749" />
      <path
         inkscape:connector-curvature="0"
         d="m 0.60779482,214.48823 c 0,0 1.19166958,0.39766 1.81026798,0.48441 1.9529224,0.27393 5.2480365,-0.42687 5.9152407,0.102 0.1537611,0.12188 0.030133,0.4855 -0.1657284,0.4972 -0.6162111,0.0368 -6.7536052,-0.12895 -6.7536052,-0.12895 l -0.81125427,0.39666 z M 8.2780216,200.69956 c 0,0 -5.8045854,-0.79975 -6.8640517,0 -1.16845643,0.88204 -0.96543799,27.2548 0,28.8445 0.6675949,1.09925 5.7700788,0.13091 6.2521301,0 0.4633958,-0.12586 0,1.44055 0,1.44055 H 0.06728426 V 199.55485 H 8.3290151 Z"
         style="fill:#f9cc30;fill-opacity:1;stroke:none;stroke-width:0.09492598px;stroke-linecap:butt;stroke-linejoin:miter;stroke-opacity:1"
         id="path11631" />
      <rect
         ry="3.4571776"
         y="198.78613"
         x="-0.78418708"
         height="32.671387"
         width="18.432487"
         id="rect11514"
         style="opacity:0.98000004;fill:none;fill-opacity:0.98039216;stroke:#ce0839;stroke-width:1.42388988;stroke-linecap:round;stroke-linejoin:round;stroke-miterlimit:4;stroke-dasharray:none;stroke-dashoffset:0;stroke-opacity:1" />
      <path
         sodipodi:nodetypes="sacss"
         inkscape:connector-curvature="0"
         id="path11639"
         d="m -34.174682,203.45646 c 1.20268,1.49763 -0.0032,4.21378 1.352379,5.55205 1.413937,1.39599 5.809083,1.33658 5.809083,1.33658 0,0 -6.444826,1.07615 -7.290929,0.14067 -0.773233,-0.85492 0.129467,-7.0293 0.129467,-7.0293 z"
         style="opacity:0.8;fill:#5284da;fill-opacity:1;stroke:none;stroke-width:0.09492598px;stroke-linecap:butt;stroke-linejoin:miter;stroke-opacity:1" />
      <path
         style="opacity:0.8;fill:#5284da;fill-opacity:1;stroke:none;stroke-width:0.10023263px;stroke-linecap:butt;stroke-linejoin:miter;stroke-opacity:1"
         d="m -17.930369,203.09661 c 1.340905,1.49763 -0.0036,4.21378 1.507811,5.55204 1.576441,1.396 6.4767282,1.33659 6.4767282,1.33659 0,0 -7.1855392,1.07614 -8.1288852,0.14067 -0.862101,-0.85492 0.144346,-7.0293 0.144346,-7.0293 z"
         id="path11641"
         inkscape:connector-curvature="0"
         sodipodi:nodetypes="sacss" />
      <path
         inkscape:connector-curvature="0"
         id="path11417"
         d="m -30.149168,199.77119 -4.399053,6.63462 0.07211,1.44231 5.697135,-8.00482 z"
         style="fill:#6c97e2;fill-opacity:1;stroke:none;stroke-width:0.09492598px;stroke-linecap:butt;stroke-linejoin:miter;stroke-opacity:1" />
      <path
         inkscape:connector-curvature="0"
         id="path11419"
         d="m -27.566089,199.77661 -6.986103,9.94371 -0.02551,-1.12186 6.476168,-8.84736 z"
         style="fill:#6c97e2;fill-opacity:1;stroke:none;stroke-width:0.09492598px;stroke-linecap:butt;stroke-linejoin:miter;stroke-opacity:1" />
      <path
         sodipodi:nodetypes="ccccc"
         style="fill:#6c97e2;fill-opacity:1;stroke:none;stroke-width:0.09544236px;stroke-linecap:butt;stroke-linejoin:miter;stroke-opacity:1"
         d="m -10.336246,199.87642 -7.827216,10.32616 -0.07679,-1.52982 6.546818,-8.84736 z"
         id="path11423"
         inkscape:connector-curvature="0" />
      <path
         style="fill:#6c97e2;fill-opacity:1;stroke:none;stroke-width:0.09492598px;stroke-linecap:butt;stroke-linejoin:miter;stroke-opacity:1"
         d="m -13.81171,199.84549 -4.399053,6.63462 0.07211,1.44231 5.697135,-8.00482 z"
         id="path11421"
         inkscape:connector-curvature="0" />
      <path
         sodipodi:nodetypes="ccccc"
         inkscape:connector-curvature="0"
         id="path11425"
         d="m -15.604769,199.89647 -2.860961,4.25343 0.102072,1.40134 4.035383,-5.6548 z"
         style="fill:#6c97e2;fill-opacity:1;stroke:none;stroke-width:0.06714783px;stroke-linecap:butt;stroke-linejoin:miter;stroke-opacity:1" />
      <path
         sodipodi:nodetypes="sacss"
         inkscape:connector-curvature="0"
         id="path11647"
         d="m 2.0240449,206.84936 c 0.804265,1.49764 -0.00215,4.21378 0.9043737,5.55205 0.9455378,1.39599 3.8846944,1.33658 3.8846944,1.33658 0,0 -4.3098339,1.07615 -4.875646,0.14068 -0.5170822,-0.85493 0.086578,-7.02931 0.086578,-7.02931 z"
         style="opacity:0.8;fill:#5284da;fill-opacity:1;stroke:none;stroke-width:0.07762645px;stroke-linecap:butt;stroke-linejoin:miter;stroke-opacity:1" />
      <path
         style="opacity:0.8;fill:#5284da;fill-opacity:1;stroke:none;stroke-width:0.07762645px;stroke-linecap:butt;stroke-linejoin:miter;stroke-opacity:1"
         d="m 10.352109,206.23248 c 0.804265,1.49764 -0.0022,4.21378 0.904373,5.55205 0.945538,1.396 3.884695,1.33658 3.884695,1.33658 0,0 -4.309834,1.07615 -4.875646,0.14068 -0.5170825,-0.85493 0.08658,-7.02931 0.08658,-7.02931 z"
         id="path11649"
         inkscape:connector-curvature="0"
         sodipodi:nodetypes="sacss" />
      <path
         style="opacity:0.8;fill:#5284da;fill-opacity:1;stroke:none;stroke-width:0.07762645px;stroke-linecap:butt;stroke-linejoin:miter;stroke-opacity:1"
         d="m 2.2810838,221.19212 c 0.804265,1.49764 -0.00215,4.21379 0.9043737,5.55205 0.9455378,1.396 3.8846944,1.33658 3.8846944,1.33658 0,0 -4.3098339,1.07615 -4.875646,0.14068 -0.5170822,-0.85493 0.086578,-7.02931 0.086578,-7.02931 z"
         id="path11651"
         inkscape:connector-curvature="0"
         sodipodi:nodetypes="sacss" />
      <path
         sodipodi:nodetypes="sacss"
         inkscape:connector-curvature="0"
         id="path11653"
         d="m 10.146477,221.39774 c 0.804265,1.49763 -0.0022,4.21378 0.904374,5.55205 0.945538,1.39599 3.884694,1.33658 3.884694,1.33658 0,0 -4.309834,1.07615 -4.875646,0.14068 -0.5170819,-0.85493 0.08658,-7.02931 0.08658,-7.02931 z"
         style="opacity:0.8;fill:#5284da;fill-opacity:1;stroke:none;stroke-width:0.07762645px;stroke-linecap:butt;stroke-linejoin:miter;stroke-opacity:1" />
      <path
         style="fill:#d28c02;fill-opacity:1;stroke:none;stroke-width:0.32485214;stroke-linecap:butt;stroke-linejoin:miter;stroke-miterlimit:4;stroke-dasharray:none;stroke-opacity:1"
         d="m 39.241508,189.64278 c -2.755881,-3.38411 -3.674213,-5.27601 -6.577125,-7.50971 -0.576448,-0.44355 -1.586223,-0.46034 -2.231516,-0.11039 -1.789805,0.97045 -2.584618,3.26037 -2.81875,5.19058 -0.164644,1.35718 0.194402,2.87659 1.057044,3.9757 1.460228,1.8605 3.144398,2.88294 5.050279,4.19656 1.228179,0.84656 3.306372,-0.27848 4.345579,-1.32521 1.101559,-1.10944 2.155838,-3.2124 1.174489,-4.41746 z"
         id="path11705"
         inkscape:connector-curvature="0"
         sodipodi:nodetypes="ssaassas" />
      <path
         style="fill:#be6b45;fill-opacity:1;stroke:none;stroke-width:0.30047849;stroke-linecap:butt;stroke-linejoin:miter;stroke-miterlimit:4;stroke-dasharray:none;stroke-opacity:1"
         d="m 34.435812,192.66033 c 1.025794,-1.07066 2.212205,-2.37021 2.212205,-2.37021 0.789013,-0.84542 -1.908171,-3.11442 -3.529016,-4.16108 -0.393555,-0.25419 -1.317065,-0.14957 -1.36945,0.31601 -0.156613,1.39147 -0.601809,3.10377 0.263356,4.21371 0.686401,0.88065 1.698174,2.75798 2.422905,2.00157 z"
         id="path11707"
         inkscape:connector-curvature="0"
         sodipodi:nodetypes="ssssss" />
      <path
         style="fill:#2f2a28;fill-opacity:1;stroke:#2f2a28;stroke-width:1.42388988;stroke-linecap:round;stroke-linejoin:round;stroke-miterlimit:4;stroke-dasharray:none;stroke-opacity:1"
         d="m 34.276956,199.39182 -7.596177,-0.94627 c 0,0 1.276101,0.55908 1.605776,1.12293 0.692604,1.18457 1.327726,3.98395 1.327726,3.98395 0,0 -0.08607,-3.37963 0.218708,-3.53634 1.31401,-0.67579 4.443967,-0.62427 4.443967,-0.62427 z"
         id="path11711"
         inkscape:connector-curvature="0"
         sodipodi:nodetypes="ccscsc" />
      <ellipse
         style="fill:#ffffff;fill-opacity:1;stroke:none;stroke-width:0.96179712;stroke-linecap:square;stroke-miterlimit:4;stroke-dasharray:none;stroke-opacity:1"
         id="ellipse11713"
         cx="33.870239"
         cy="203.81911"
         rx="2.6745176"
         ry="2.633755" />
      <path
         style="fill:none;stroke:#cc0036;stroke-width:1.42388988;stroke-linecap:round;stroke-linejoin:miter;stroke-miterlimit:4;stroke-dasharray:none;stroke-opacity:0.98039216"
         d="m 33.520804,195.87083 c 0,0 -3.091284,-1.66773 -4.141902,-3.0136 -0.856826,-1.09764 -1.412333,-2.48933 -1.564272,-3.87348 -0.09885,-0.90075 0.44695,-2.68156 0.44695,-2.68156"
         id="path11717"
         inkscape:connector-curvature="0"
         sodipodi:nodetypes="caac" />
      <ellipse
         style="fill:#6e1365;fill-opacity:1;stroke:#cc0036;stroke-width:0.86804891;stroke-linecap:round;stroke-miterlimit:4;stroke-dasharray:none;stroke-opacity:0.98039216"
         id="ellipse11719"
         cx="29.107391"
         cy="183.66576"
         rx="0.51355064"
         ry="0.55159146" />
      <path
         sodipodi:nodetypes="caac"
         inkscape:connector-curvature="0"
         id="path11723"
         d="m 39.199038,193.22314 c 0,0 0.298606,-2.10052 0.0558,-3.10775 -0.392271,-1.62726 -1.356763,-3.09433 -2.367968,-4.42829 -0.842421,-1.11127 -3.019167,-2.89585 -3.019167,-2.89585"
         style="fill:none;stroke:#cc0036;stroke-width:1.42388988;stroke-linecap:round;stroke-linejoin:miter;stroke-miterlimit:4;stroke-dasharray:none;stroke-opacity:0.98039216" />
      <path
         sodipodi:nodetypes="cac"
         inkscape:connector-curvature="0"
         id="path11725"
         d="m 49.057495,227.2893 c 0,0 4.389133,-5.56389 4.505733,-8.88152 0.08107,-2.30675 -2.691565,-6.38 -2.691565,-6.38"
         style="fill:none;stroke:#ce0838;stroke-width:1.42388988;stroke-linecap:round;stroke-linejoin:round;stroke-miterlimit:4;stroke-dasharray:none;stroke-opacity:1" />
      <text
         id="text6851"
         y="220.26843"
         x="-42.609955"
         style="font-style:normal;font-weight:normal;font-size:5.45632124px;line-height:1.25;font-family:sans-serif;letter-spacing:0px;word-spacing:0px;fill:#2f2a28;fill-opacity:1;stroke:none;stroke-width:0.13640805"
         xml:space="preserve"><tspan
           style="font-style:normal;font-variant:normal;font-weight:normal;font-stretch:normal;font-family:'Goudy Stout';-inkscape-font-specification:'Goudy Stout';fill:#2f2a28;fill-opacity:1;stroke-width:0.13640805"
           y="220.26843"
           x="-42.609955"
           id="tspan6849"
           sodipodi:role="line">school</tspan></text>
    </g>
  </g>
</svg>
