<svg width="172" height="138" xmlns="http://www.w3.org/2000/svg" preserveAspectRatio="xMidYMid meet">
 <defs>
  <filter color-interpolation-filters="sRGB" height="1.5751" x="-0.098032" y="-0.28757" width="1.1961" id="filter5176">
   <feGaussianBlur stdDeviation="19.766649" id="feGaussianBlur5178"/>
  </filter>
  <filter color-interpolation-filters="sRGB" height="1.2296" x="-0.1073" y="-0.1148" width="1.2146" id="filter5208">
   <feGaussianBlur stdDeviation="4.119735" id="feGaussianBlur5210"/>
  </filter>
  <filter color-interpolation-filters="sRGB" id="filter5252">
   <feGaussianBlur stdDeviation="3.877952" id="feGaussianBlur5254"/>
  </filter>
  <filter color-interpolation-filters="sRGB" id="filter5256">
   <feGaussianBlur stdDeviation="3.877952" id="feGaussianBlur5258"/>
  </filter>
  <filter color-interpolation-filters="sRGB" id="filter5260">
   <feGaussianBlur stdDeviation="3.877952" id="feGaussianBlur5262"/>
  </filter>
  <filter color-interpolation-filters="sRGB" height="1.2272" x="-0.045357" y="-0.11362" width="1.0907" id="filter5264">
   <feGaussianBlur stdDeviation="3.877952" id="feGaussianBlur5266"/>
  </filter>
  <filter color-interpolation-filters="sRGB" id="filter5268">
   <feGaussianBlur stdDeviation="3.877952" id="feGaussianBlur5270"/>
  </filter>
  <radialGradient r="256.71" gradientTransform="matrix(2.4379 -.02685 .0074275 .67438 186.3 57.447)" cx="-130.53" cy="187.19" gradientUnits="userSpaceOnUse" id="radialGradient5285">
   <stop offset="0" stop-color="#ccc" id="stop5166"/>
   <stop offset="1" stop-color="#666" id="stop5168"/>
  </radialGradient>
  <radialGradient r="65.434" gradientTransform="matrix(2.2195 .013835 -.015485 2.4843 -349.11 -547.48)" cx="290.91" cy="366.14" gradientUnits="userSpaceOnUse" id="radialGradient5287">
   <stop offset="0" stop-color="#ececec" id="stop5182"/>
   <stop offset="1" stop-color="#666" id="stop5184"/>
  </radialGradient>
 </defs>
 <metadata>image/svg+xmlOpenclipartSanta Claus hat2011-12-25T16:43:28Christmas, Claus, NewYear, Santa, Xmas, clip art, clipart, hat, red, winter,http://openclipart.org/detail/166570/santa-claus-hat-by-ronesronesChristmasClausNewYearSantaXmasclip artcliparthatredwinter</metadata>
 <g>
  <title>background</title>
  <rect fill="none" id="canvas_background" height="140" width="174" y="-1" x="-1"/>
 </g>
 <g>
  <title>Layer 1</title>
  <g stroke="null" transform="rotate(-0.2409827709197998 95.63020324707124,75.53392028808504) " id="layer1">
   <g stroke="null" transform="matrix(0.16436587732060307,0,0,0.19322104246067878,220.9728859423073,520.2537195212512) " id="g5272">
    <path stroke="null" d="m-906.732078,-2438.027703c-13.809,-15.776 -30.641,-33.593 -31.315,-54.548c-0.71149,-22.125 16.236,-41.724 29.294,-59.599c14.329,-19.614 30.654,-39.946 52.528,-50.508c31.82,-15.363 70.575,-21.862 105.06,-14.142c33.267,7.4477 61.841,31.37 85.863,55.558c25.605,25.781 42.508,59.34 58.589,91.924c18.715,37.922 27.562,80.002 43.437,119.2c6.507,16.066 13.509,31.95 21.213,47.477c21.501,43.33 57.242,80.54 69.701,127.28c8.6745,32.542 2.0203,101.02 2.0203,101.02s-24.936,-45.947 -39.396,-67.68c-10.52,-15.811 -18.669,-34.737 -34.345,-45.457c-15.31,-10.469 -36.895,-6.9672 -53.538,-15.152c-23.32,-11.48 -41.87,-30.82 -62.627,-46.47c-82.647,-62.325 -178.3,-111.01 -246.47,-188.9l-0.0143,-0.003z" fill="#f10100" id="path5133"/>
    <path stroke="null" fill="#c10c0b" filter="url(#filter5252)" d="m-597.632078,-2385.499703s-46.48,-69.475 -73.741,-101.02c-16.349,-18.915 -33.866,-37.099 -53.538,-52.528c-19.631,-15.397 -67.68,-39.396 -63.64,-39.396c4.0406,0 28.432,-10.186 42.426,-7.0711c35.92,7.9963 67.307,34.4 90.914,62.629c27.745,33.178 40.08,77.085 53.538,118.19c2.0344,6.2133 4.0406,19.193 4.0406,19.193l0.0004,0.0031z" opacity="0.86574" id="path5139"/>
    <path stroke="null" fill="#c10c0b" filter="url(#filter5260)" d="m-729.959078,-2490.555703c26.608,-10.795 45.936,34.684 66.67,54.548c21.181,20.293 42.38,41.212 58.589,65.66c7.8236,11.8 18.183,38.386 18.183,38.386s-28.978,-29.225 -45.457,-41.416c-16.994,-12.572 -35.834,-22.51 -54.551,-32.327c-16.411,-8.6075 -41.417,-7.0845 -50.507,-23.233c-10.142,-18.016 -12.087,-53.847 7.0711,-61.619l0.0019,0.001z" opacity="0.86574" id="path5141"/>
    <path stroke="null" fill="#c10c0b" filter="url(#filter5256)" d="m-652.038079,-2358.530471c-15.062,0.535951 -38.532,15.952124 -38.532,15.952124s7.0108,47.188148 21.094,84.323548c3.0906,2.224342 6.1617,4.477392 9.2188,6.736125c20.755,15.33485 39.298,34.290061 62.625,45.530326c8.9804,4.327287 19.404,5.310908 29.5,6.919838c-0.99035,-4.790928 -2.068,-9.317702 -3.2188,-12.859875c-4.387,-13.503604 -28.973,-29.168646 -18.188,-38.609999c9.6893,-8.481835 23.223,11.788954 33.312,19.810576c22.384,17.795128 59.094,61.849875 59.094,61.849875s-22.505,-65.431044 -40.906,-94.520326c-11.448,-18.097886 -26.264,-34.24597 -42.406,-48.5001c-20.66,-18.255634 -41.02,-43.342433 -68.67,-46.508167c-0.92,-0.105818 -1.902,-0.157748 -2.906,-0.122475l-0.017,-0.00147z" opacity="0.86574" id="path5143"/>
    <path stroke="null" d="m-1077.452078,-2283.477703s-8.4978,-43.139 -1.0102,-62.629c4.7846,-12.454 17.154,-20.6 27.274,-29.294c13.601,-11.685 31.722,-17.67 44.447,-30.305c3.778,-3.7512 4.7843,-10.002 9.0914,-13.132c2.844,-2.0664 10.102,-3.0305 10.102,-3.0305s-2.2656,-9.3866 -2.0203,-14.142c0.35762,-6.9324 0.59184,-14.883 5.0508,-20.203c9.004,-10.743 24.537,-15.009 38.386,-17.173c6.0251,-0.94146 18.183,2.0203 18.183,2.0203s-9.2139,-13.732 -8.0812,-21.213c3.8417,-25.374 23.819,-50.664 47.477,-60.609c36.7,-15.428 82.96,-4.3672 118.7,13.16c22.771,11.165 44.956,30.576 52.933,54.65c3.5704,10.775 -7.3838,22.817 -4.397,33.768c5.5363,20.298 26.899,32.434 38.8,49.784c12.538,18.279 27.664,35.844 34.213,57.021c6.97,22.538 4.2031,70.649 4.2031,70.649" fill="#f10100" id="path5131"/>
    <path stroke="null" fill="#c10c0b" filter="url(#filter5268)" d="m-660.259078,-2275.397703s-35.53,-39.626 -48.487,-62.629c-6.905,-12.254 -18.923,-25.836 -15.152,-39.392c2.057,-7.397 18.182,-14.142 18.182,-14.142s-32.987,15.022 -50.508,19.193c-28.324,6.7429 -57.757,9.1091 -86.873,9.0914c-28.781,-0.01752 -85.863,-9.0914 -85.863,-9.0914s57.762,11.484 79.802,29.294c23.542,19.023 48.487,76.772 48.487,76.772l145.46,-4.0406" opacity="0.86574" id="path5135"/>
    <path stroke="null" fill="#c10c0b" filter="url(#filter5264)" d="m-761.274078,-2408.733063c-7.329,-4.7534 -5.398,-17.657 -12.122,-23.234c-21.399,-17.748 -52.199,-27.555 -79.806,-24.244c-8.5432,1.0248 -14.128,10.216 -22.223,13.132c-14.114,5.084 -36.473,19.778 -44.447,7.0711c-5.0143,-7.9912 8.233,-18.122 16.162,-23.234c10.935,-7.0492 26.048,-2.9425 38.386,-7.0711c11.424,-3.8227 20.322,-15.135 32.325,-16.162c22.076,-1.8892 45.785,6.0721 63.64,19.193c9.1812,6.7471 9.5997,22.137 19.193,28.284c8.6225,5.5252 23.685,-2.7632 30.305,5.0508c5.1147,6.0377 5.763,18.316 0,23.739c-10.069,9.478 -29.808,5.0011 -41.412,-2.5254l-0.001,0.0006z" opacity="0.86574" id="path5137"/>
    <path stroke="null" d="m-1084.522078,-2326.910703c28.807,-7.1098 58.266,12.35 87.883,14.142c52.135,3.1544 104.36,-7.4028 156.57,-6.0609c52.386,1.3463 104.26,17.273 156.57,14.142c16.151,-0.96668 33.062,-17.45 47.477,-10.102c8.8635,4.5187 10.805,17.413 12.122,27.274c2.9318,21.949 -9.7882,43.518 -10.102,65.66c-0.30723,21.715 15.129,44.108 8.0812,64.65c-4.6362,13.512 -17.535,23.9 -30.305,30.305c-16.728,8.3906 -36.877,6.9781 -55.558,8.0812c-50.774,2.998 -101.67,-4.2145 -152.53,-4.0406c-50.535,0.17276 -101.19,9.5368 -151.52,5.0508c-28.812,-2.5678 -60.285,-2.9125 -84.853,-18.183c-17.508,-10.882 -26.384,-17.138 -30.305,-37.376c-4.0729,-21.024 7.0396,-51.536 10.102,-72.731c2.5516,-17.663 -7.981,-37.576 0,-53.538c6.7763,-13.553 21.655,-23.643 36.365,-27.274l0.0028,0.0005z" fill="url(#radialGradient5285)" id="path5148"/>
    <path stroke="null" d="m-1076.192079,-2311.297696c27.365,-5.8748 55.35,10.205 83.485,11.685c49.525,2.6064 99.137,-6.1168 148.74,-5.008c49.764,1.1124 99.045,14.272 148.74,11.685c15.343,-0.79875 31.408,-14.419 45.101,-8.3467c8.4198,3.7337 10.264,14.388 11.515,22.536c2.7851,18.136 -9.2983,35.958 -9.5959,54.254c-0.29185,17.943 13.362,26.344 6.6666,43.318c-4.4042,11.165 -16.658,19.748 -28.788,25.04c-15.891,6.933 -35.031,5.7659 -52.778,6.6774c-48.232,2.4772 -96.582,-3.4824 -144.9,-3.3387c-48.006,0.14275 -96.122,7.8801 -143.94,4.1734c-27.37,-2.1217 -57.268,-2.4066 -80.606,-15.024c-16.631,-8.9918 -25.064,-14.161 -28.788,-30.883c-3.869,-17.372 7.6974,-32.482 10.606,-49.995c2.4239,-14.594 -7.5815,-31.049 0,-44.238c6.4371,-11.198 20.571,-19.536 34.545,-22.536l-0.0027,0.0006z" fill="#fff" filter="url(#filter5176)" opacity="0.78205" id="path5150"/>
    <path stroke="null" d="m-473.382078,-2101.647703c-10.984,2.7331 -23.851,4.6222 -31.315,13.132c-10.126,11.545 -10.464,29.18 -12.122,44.447c-1.4556,13.407 -5.3538,29.115 2.0203,40.406c8.2342,12.608 25.42,18.732 40.406,20.203c17.723,1.74 37.107,-3.6798 51.518,-14.142c14.359,-10.425 27.269,-26.819 29.294,-44.447c1.8845,-16.405 -5.5241,-34.763 -17.173,-46.467c-10.147,-10.196 -26.151,-13.23 -40.406,-15.152c-7.3716,-0.99416 -15.005,0.22425 -22.223,2.0203l0.0007,-0.0003z" fill="url(#radialGradient5287)" id="path5152"/>
    <path stroke="null" fill="#ececec" filter="url(#filter5208)" d="m-468.885005,-2095.532261c-7.895007,1.964418 -17.143239,3.322325 -22.508442,9.438923c-7.278131,8.298567 -12.02434,20.973776 -13.215741,31.947143c-1.046226,9.636413 -8.351394,22.616549 -3.051167,30.731223c5.918552,9.062111 27.84021,22.470549 38.611852,23.528209c12.738735,1.250692 29.486327,-6.022312 39.84449,-13.54229c5.76386,-4.184725 5.925128,-16.529149 10.168252,-24.348481c3.354534,-6.18124 11.371244,-7.633879 12.013196,-13.228c1.354563,-11.79141 -6.785076,-21.609041 -15.158314,-30.022401c-7.293511,-7.328395 -20.485624,-8.38338 -30.731223,-9.765249c-5.298556,-0.714584 -10.785351,-6.030782 -15.974128,-4.739857l0.001226,0.00078z" opacity="0.79487" id="path5154"/>
   </g>
  </g>
 </g>
</svg>